<svg width="358" height="476" viewBox="0 0 358 476" fill="none" xmlns="http://www.w3.org/2000/svg">
<path d="M233.477 133.089L232.954 384.472C232.908 400.639 222.284 416.781 201.059 429.116C158.326 453.95 88.833 453.944 45.83 429.117C24.185 416.621 13.375 400.221 13.422 383.847L13.945 132.464C13.899 148.838 24.709 165.238 46.353 177.734C89.356 202.562 158.849 202.567 201.582 177.734C222.807 165.398 233.431 149.255 233.477 133.089Z" fill="#71D8F8"/>
<path d="M233.469 133.044C233.568 97.93 184.504 69.3271 123.883 69.1574C63.2622 68.9876 14.0395 97.3153 13.9412 132.429C13.8429 167.543 62.9062 196.146 123.527 196.315C184.148 196.485 233.371 168.157 233.469 133.044Z" fill="#4DCDF3"/>
<path d="M248.324 114.128L248.258 137.414C248.206 155.698 236.189 173.955 212.183 187.906C163.86 215.988 85.2822 215.975 36.6432 187.894C12.1722 173.765 -0.0528284 155.222 0.000171588 136.706L0.0661811 113.42C0.0141811 131.936 12.2382 150.48 36.7092 164.608C85.3482 192.69 163.926 192.702 212.249 164.62C236.256 150.669 248.273 132.412 248.324 114.128Z" fill="#29C3ED"/>
<path d="M211.677 62.9269C260.316 91.0089 260.572 136.537 212.249 164.619C163.926 192.701 85.3482 192.688 36.7092 164.607C-11.9188 136.532 -12.1858 91.0229 36.1372 62.9409C84.4602 34.8589 163.05 34.8519 211.677 62.9269Z" fill="#95E2FE"/>
<path d="M202.441 18.8318C158.954 -6.30724 88.7195 -6.24724 45.4705 18.8318C2.28152 43.9708 2.52051 84.6578 46.0075 109.737C89.4945 134.876 159.787 134.876 202.976 109.797C246.165 84.6578 245.986 43.9118 202.441 18.8318Z" fill="#DBE6FA"/>
<path d="M192.018 99.3517C154.857 120.979 93.8135 120.686 56.8545 99.3517C48.7355 94.6707 42.3725 89.3307 37.9835 83.6267C22.1205 63.1227 33.6785 42.5037 56.4155 29.2827C93.3225 7.80569 154.049 7.61869 191.579 29.2827C226.184 49.2927 226.572 79.3817 192.018 99.3517Z" fill="#EBF2FF"/>
<path d="M235.231 64.6227L235.172 108.164C235.126 124.515 224.379 140.842 202.911 153.318C159.697 178.431 89.4253 178.42 45.9283 153.307C24.0443 140.672 13.1123 124.089 13.1593 107.53L13.2183 63.9888C13.1713 80.5478 24.1033 97.1307 45.9873 109.766C89.4843 134.879 159.755 134.891 202.97 109.777C224.438 97.3007 235.185 80.9737 235.231 64.6227Z" fill="#CBDBF4"/>
<path d="M202.971 109.776C180.041 123.102 149.497 129.28 119.373 128.461V172.003C149.478 172.812 179.997 166.633 202.912 153.317C224.38 140.841 235.127 124.514 235.174 108.163L235.233 64.6228C235.186 80.9738 224.44 97.2998 202.971 109.776Z" fill="#BBCFEF"/>
<g opacity="0.5">
<path d="M66.3709 411.056L88.5129 423.836C86.6209 422.697 85.4628 420.284 85.4628 416.964C85.4628 416.462 85.4819 415.941 85.5399 415.42C86.4999 405.278 96.8218 394.099 103.551 397.293L81.6398 384.61C74.3238 380.421 64.9798 382.892 60.7908 390.208C56.4018 398.111 59.4539 407.06 66.3709 411.056Z" fill="#FF6161"/>
<path d="M66.371 411.056L88.513 423.836C86.621 422.697 85.463 420.284 85.463 416.964C85.463 416.462 85.482 415.941 85.54 415.42C73.359 408.181 62.934 399.243 60.232 391.27C56.815 398.393 59.421 407.041 66.371 411.056Z" fill="#F04343"/>
<path d="M84.2451 416.269C84.2451 419.165 85.1331 421.346 86.6001 422.639C86.6191 422.639 86.6191 422.639 86.6191 422.658C86.6961 422.697 86.7541 422.754 86.8121 422.812L87.0241 422.947C87.1011 423.024 87.1981 423.082 87.2941 423.14C87.4681 423.236 87.6421 423.333 87.8151 423.429C88.3111 423.716 107.12 434.584 105.922 433.892C113.89 438.482 123.916 434.915 127.311 427.271C130.747 420.148 128.141 411.48 121.172 407.465C120.811 407.256 106.244 398.826 102.427 396.616C102.388 396.597 102.35 396.577 102.35 396.577C102.215 396.519 102.08 396.461 101.945 396.423C100.072 395.728 97.6791 396.037 95.0731 397.543C89.5521 400.747 84.9571 408.18 84.3201 414.704C84.2641 415.226 84.2451 415.747 84.2451 416.269Z" fill="#457AEF"/>
<path d="M84.2451 416.269C84.2451 419.165 85.1331 421.346 86.6001 422.639C86.6191 422.639 86.6191 422.639 86.6191 422.658C86.6961 422.697 86.7541 422.754 86.8121 422.812L87.0241 422.947C87.1011 423.024 87.1981 423.082 87.2941 423.14C87.4681 423.236 87.6421 423.333 87.8151 423.429C88.3111 423.716 107.12 434.584 105.922 433.892C113.89 438.482 123.916 434.915 127.311 427.271C119.454 430.327 102.987 423.889 95.3431 420.379C95.3431 420.379 95.3431 420.379 95.3241 420.379C91.6181 418.68 87.9111 416.769 84.3211 414.703C84.2641 415.226 84.2451 415.747 84.2451 416.269Z" fill="#3A63DF"/>
<g opacity="0.5">
<path d="M125.4 426.108C125.4 426.108 126.516 417.545 118.05 411.676C109.584 405.806 81.884 390.524 81.884 390.524C81.884 390.524 78.44 388.632 79.871 387.419C79.871 387.419 80.696 385.915 85.401 388.802C89.84 391.519 117.686 407.164 117.686 407.164C117.686 407.164 130.324 413.107 125.4 426.108Z" fill="white"/>
</g>
<path d="M180.288 361.404C176.968 352.149 168.261 354.97 159.751 357.519C158.587 363.707 161.301 370.214 167.061 373.542L182.853 382.656C182.631 374.896 182.411 367.323 180.288 361.404Z" fill="#FF6161"/>
<path d="M182.584 375.632C173.482 369.784 165.783 363.091 162.278 356.768C161.438 357.013 160.594 357.266 159.751 357.519C158.587 363.707 161.301 370.214 167.061 373.542L182.853 382.656C182.785 380.281 182.706 377.93 182.584 375.632Z" fill="#F04343"/>
<path d="M170.685 419.848L187.627 410.07C182.93 401.601 183.117 389.797 182.725 378.832C177.598 379.67 176.549 381.591 155.647 393.304C157.557 392.396 160.125 392.648 162.925 394.25C172.146 399.551 177.475 415.761 170.685 419.848Z" fill="#FF6161"/>
<path d="M185.067 403.661C181.601 406.373 177.748 409.001 173.66 411.431C174.003 414.516 173.358 418.24 170.687 419.848L187.629 410.07C186.534 408.095 185.695 405.948 185.067 403.661Z" fill="#F04343"/>
<path d="M172.599 418.651C172.58 418.651 172.58 418.651 172.58 418.67C172.503 418.709 172.445 418.767 172.387 418.824L172.175 418.959C172.032 419.102 171.576 419.334 171.383 419.442L154.8 429.017C153.974 429.387 150.842 431.951 145.65 431.951C139.456 431.951 134.051 428.157 131.886 423.283C128.45 416.16 131.056 407.492 138.025 403.477C138.386 403.268 152.953 394.838 156.77 392.628C156.809 392.609 156.847 392.589 156.847 392.589C156.982 392.531 157.117 392.473 157.252 392.435C159.125 391.74 161.518 392.049 164.124 393.555C172.745 398.558 178.403 413.534 172.599 418.651Z" fill="#457AEF"/>
<path d="M172.6 418.651C172.581 418.651 172.581 418.651 172.581 418.67C172.504 418.709 172.446 418.767 172.388 418.824L172.176 418.959C172.033 419.102 171.577 419.334 171.384 419.442C170.888 419.729 152.079 430.597 153.276 429.905C145.921 434.142 136.608 431.57 132.427 424.326C132.234 423.978 132.041 423.631 131.887 423.284C139.743 426.34 156.211 419.902 163.855 416.392C163.855 416.392 163.855 416.392 163.874 416.392C167.58 414.693 171.287 412.782 174.877 410.716C175.188 413.501 174.711 416.789 172.6 418.651Z" fill="#3A63DF"/>
<g opacity="0.5">
<path d="M133.799 422.12C133.799 422.12 132.683 413.557 141.149 407.687C149.615 401.817 177.316 386.535 177.316 386.535C177.316 386.535 180.76 384.643 179.329 383.43C179.329 383.43 178.504 381.926 173.798 384.813C169.359 387.53 141.513 403.175 141.513 403.175C141.513 403.175 128.875 409.118 133.799 422.12Z" fill="white"/>
</g>
<path d="M95.4102 359.953C93.3152 359.276 91.3472 358.46 89.7462 357.278C87.9652 355.963 86.6782 354.242 85.6032 352.366C81.9172 351.468 77.8922 351.903 74.3412 353.937L52.4302 366.62C54.3412 365.712 56.9092 365.963 59.7072 367.566C69.0252 372.922 74.2002 389.11 67.4682 393.164L89.6102 380.385C96.5122 376.397 99.4442 367.554 95.4102 359.953Z" fill="#457AEF"/>
<path d="M89.6112 380.385L67.4692 393.164C70.1282 391.563 70.7872 387.857 70.4422 384.747C82.6232 377.508 93.0482 368.57 95.7502 360.597C99.1662 367.721 96.5602 376.369 89.6112 380.385Z" fill="#3A63DF"/>
<path d="M69.3822 391.967C69.3632 391.967 69.3632 391.967 69.3632 391.986C69.2862 392.024 69.2282 392.082 69.1702 392.14L68.9582 392.275C68.8152 392.418 68.3592 392.65 68.1662 392.758C67.6702 393.045 48.8612 403.913 50.0582 403.221C41.9902 407.869 32.0142 404.131 28.6692 396.6C25.2332 389.477 27.8392 380.809 34.8082 376.794C36.2112 375.982 29.2132 380.031 53.6302 365.906C53.7652 365.848 53.9002 365.79 54.0352 365.751C60.9662 363.179 70.7082 374.281 71.6602 384.032C71.9692 386.818 71.4932 390.106 69.3822 391.967Z" fill="#FF6161"/>
<path d="M69.3819 391.967C69.3629 391.967 69.3629 391.967 69.3629 391.986C69.2859 392.024 69.2279 392.082 69.1699 392.14L68.9579 392.275C68.8149 392.418 68.3589 392.65 68.1659 392.758C67.6699 393.045 48.8609 403.913 50.0579 403.221C41.9899 407.869 32.0139 404.131 28.6689 396.6C36.5259 399.656 52.9929 393.218 60.6369 389.708C60.6369 389.708 60.6369 389.708 60.6559 389.708C64.3619 388.009 68.0689 386.098 71.6589 384.033C71.9689 386.818 71.4929 390.106 69.3819 391.967Z" fill="#F04343"/>
<g opacity="0.5">
<path d="M30.5812 395.437C30.5812 395.437 29.4652 386.874 37.9312 381.004C46.3972 375.134 74.0982 359.852 74.0982 359.852C74.0982 359.852 77.5422 357.96 76.1112 356.747C76.1112 356.747 75.2862 355.243 70.5802 358.13C66.1412 360.847 38.2952 376.492 38.2952 376.492C38.2952 376.492 25.6572 382.435 30.5812 395.437Z" fill="white"/>
</g>
<path d="M156.589 358.43C156.518 361.589 155.397 363.906 153.566 365.009L170.797 355.064C166.462 355.243 161.386 357.12 156.589 358.43Z" fill="#457AEF"/>
<path d="M156.589 358.43C156.518 361.589 155.397 363.906 153.566 365.009L170.797 355.064C166.462 355.243 161.386 357.12 156.589 358.43Z" fill="#3A63DF"/>
<path d="M129.456 361.19C125.206 361.253 119.371 361.757 113.319 361.881C113.332 373.782 126.093 380.861 136.154 375.066C136.651 374.78 154.686 364.392 155.265 363.985C155.323 363.927 155.381 363.869 155.458 363.831C155.458 363.812 155.458 363.812 155.477 363.812C156.825 362.623 157.65 360.654 157.78 358.099C149.908 360.366 137.354 361.071 129.456 361.19Z" fill="#FF6161"/>
<path d="M150.789 359.587C149.446 360.259 148.102 360.934 146.753 361.552C146.734 361.552 146.734 361.552 146.734 361.552C139.071 365.07 122.613 371.499 114.766 368.444C118.121 376.025 128.126 379.689 136.154 375.066C136.651 374.78 154.686 364.392 155.265 363.985C155.323 363.927 155.381 363.869 155.458 363.831C155.458 363.812 155.458 363.812 155.477 363.812C156.825 362.623 157.65 360.654 157.78 358.099C152.992 359.478 151.716 359.46 150.789 359.587Z" fill="#F04343"/>
<path d="M89.7463 357.278C88.6973 356.503 87.8223 355.582 87.0303 354.597C77.8393 361.022 78.5033 374.729 88.1323 380.291L110.274 393.071C107.609 391.466 106.959 387.758 107.301 384.654C108.261 374.513 118.583 363.334 125.312 366.527L117.088 361.767C107.315 362.191 96.1743 362.022 89.7463 357.278Z" fill="#FF6161"/>
<path d="M88.1322 380.291L110.274 393.07C107.615 391.469 106.956 387.763 107.301 384.653C95.1202 377.414 84.6962 368.476 81.9932 360.503C78.5762 367.628 81.1822 376.276 88.1322 380.291Z" fill="#F04343"/>
<path d="M108.36 391.874C108.379 391.874 108.379 391.874 108.379 391.893C108.456 391.931 108.514 391.989 108.572 392.047L108.784 392.182C108.927 392.325 109.383 392.557 109.576 392.665C110.072 392.952 128.881 403.82 127.684 403.128C130.097 404.518 132.703 405.174 135.309 405.174C140.579 405.174 145.714 402.433 148.533 397.549C152.912 389.666 149.876 380.7 142.935 376.7C123.301 365.336 124.167 365.789 123.708 365.658C121.835 364.963 119.442 365.272 116.836 366.778C108.215 371.781 102.557 386.757 108.36 391.874Z" fill="#457AEF"/>
<path d="M108.36 391.874C108.379 391.874 108.379 391.874 108.379 391.893C108.456 391.931 108.514 391.989 108.572 392.047L108.784 392.182C108.927 392.325 109.383 392.557 109.576 392.665C110.072 392.952 128.881 403.82 127.684 403.128C130.097 404.518 132.703 405.174 135.309 405.174C140.579 405.174 145.714 402.433 148.533 397.549C148.726 397.202 148.919 396.854 149.073 396.507C148.378 396.777 147.587 396.99 146.718 397.125C140.058 398.09 128.668 394.924 117.105 389.616C117.105 389.616 117.105 389.616 117.086 389.616C113.379 387.917 109.673 386.006 106.082 383.94C105.773 386.724 106.249 390.012 108.36 391.874Z" fill="#3A63DF"/>
<g opacity="0.5">
<path d="M139.447 376.399C139.447 376.399 123.449 367.41 113.773 361.876C111.638 361.927 109.495 361.903 107.354 361.82C115.167 366.177 133.247 376.359 139.81 380.91C148.276 386.781 147.16 395.343 147.16 395.343C152.085 382.342 139.447 376.399 139.447 376.399Z" fill="white"/>
</g>
<path d="M160.913 381.861L182.075 369.647C181.713 366.687 181.179 363.891 180.288 361.404C176.498 350.84 165.691 356.008 156.169 358.547C160.556 362.552 163.963 369.143 163.963 374.989C163.963 378.309 162.805 380.722 160.913 381.861Z" fill="#FF6161"/>
<path d="M180.299 361.441C175.799 365.647 170.077 369.765 163.887 373.444C164.229 376.549 163.579 380.256 160.913 381.861L182.075 369.647C181.716 366.701 181.184 363.917 180.299 361.441Z" fill="#F04343"/>
<path d="M157.664 358.131C155.699 358.694 153.769 359.193 151.946 359.46C146.849 360.21 141.507 360.62 136.206 360.888C132.049 363.294 128.253 365.49 128.253 365.49C121.316 369.487 118.28 378.44 122.654 386.339C125.473 391.223 130.607 393.964 135.878 393.964C138.484 393.964 141.09 393.307 143.503 391.917L145.028 391.029C150.612 387.807 161.257 381.651 162.132 381.164C162.2 381.123 162.117 381.184 162.614 380.836C162.672 380.778 162.73 380.72 162.807 380.681C162.807 380.662 162.807 380.662 162.826 380.662C164.938 378.801 165.413 375.511 165.103 372.728C164.601 367.575 161.613 361.887 157.664 358.131Z" fill="#457AEF"/>
<path d="M162.826 380.664C162.807 380.664 162.807 380.664 162.807 380.683C162.73 380.721 162.672 380.779 162.614 380.837L162.402 380.972C162.259 381.115 161.804 381.347 161.611 381.455L145.028 391.03L143.503 391.918C141.09 393.308 138.484 393.964 135.878 393.964C129.684 393.964 124.279 390.17 122.114 385.296C129.971 388.352 146.438 381.914 154.082 378.404C154.082 378.404 154.082 378.404 154.101 378.404C157.807 376.705 161.514 374.794 165.104 372.728C165.414 375.514 164.938 378.802 162.826 380.664Z" fill="#3A63DF"/>
<g opacity="0.5">
<path d="M139.652 360.733C135.105 363.297 131.739 365.188 131.739 365.188C131.739 365.188 119.102 371.131 124.025 384.132C124.025 384.132 122.909 375.57 131.374 369.7C134.688 367.402 140.95 363.664 147.343 359.962C144.786 360.258 142.253 360.554 139.652 360.733Z" fill="white"/>
</g>
<path d="M132.362 361.06C124.994 361.282 122.005 361.562 116.762 361.781L95.6924 373.978C103.24 370.395 113.78 383.74 113.78 393.649C113.78 396.969 112.622 399.383 110.73 400.522L132.872 387.742C143.305 381.714 142.905 366.617 132.362 361.06Z" fill="#FF6161"/>
<path d="M132.872 387.742L110.73 400.522C113.389 398.921 114.048 395.215 113.703 392.105C125.884 384.866 136.308 375.928 139.011 367.955C142.428 375.079 139.821 383.727 132.872 387.742Z" fill="#F04343"/>
<path d="M112.643 399.325C112.624 399.325 112.624 399.325 112.624 399.344C112.547 399.383 112.489 399.441 112.431 399.498L112.219 399.633C112.142 399.71 112.045 399.768 111.949 399.826C111.775 399.922 111.602 400.019 111.428 400.115L94.8451 409.69L93.3202 410.578C90.9072 411.968 88.3012 412.624 85.6952 412.624C80.4252 412.624 75.2902 409.883 72.4712 404.999C68.0922 397.116 71.1281 388.15 78.0691 384.15C79.4721 383.337 72.4731 387.387 96.8911 373.262C99.3181 372.221 101.903 372.918 104.169 374.227C112.887 379.29 118.485 394.175 112.643 399.325Z" fill="#457AEF"/>
<path d="M112.643 399.325C112.624 399.325 112.624 399.325 112.624 399.344C112.547 399.383 112.489 399.441 112.431 399.498L112.219 399.633C112.142 399.71 112.045 399.768 111.949 399.826C111.775 399.922 111.602 400.019 111.428 400.115L94.8452 409.69L93.3202 410.578C90.9072 411.968 88.3012 412.624 85.6952 412.624C79.5012 412.624 74.0962 408.83 71.9312 403.956C79.7882 407.012 96.2551 400.574 103.899 397.064C103.899 397.064 103.899 397.064 103.918 397.064C107.624 395.365 111.331 393.454 114.921 391.388C115.231 394.175 114.754 397.463 112.643 399.325Z" fill="#3A63DF"/>
<g opacity="0.5">
<path d="M73.8429 402.794C73.8429 402.794 72.7269 394.231 81.1929 388.361C89.6589 382.491 117.36 367.209 117.36 367.209C117.36 367.209 120.804 365.317 119.373 364.104C119.373 364.104 118.548 362.6 113.842 365.487C109.403 368.204 81.5569 383.849 81.5569 383.849C81.5569 383.849 68.9189 389.793 73.8429 402.794Z" fill="white"/>
</g>
<path d="M155.488 358.72C151.772 359.663 150.821 359.553 148.487 359.839C145.614 361.002 149.108 359.376 124.68 373.37C126.591 372.463 129.158 372.714 131.958 374.316C137.498 377.501 142.074 384.972 142.691 391.497C142.748 392.019 142.768 392.539 142.768 393.042C142.768 396.362 141.61 398.775 139.718 399.914L161.86 387.135C174.861 379.622 170.273 359.947 155.488 358.72Z" fill="#FF6161"/>
<path d="M161.86 387.133L139.718 399.913C141.61 398.774 142.768 396.361 142.768 393.041C142.768 392.539 142.749 392.018 142.691 391.497C154.872 384.258 165.297 375.32 167.999 367.347C171.416 374.47 168.81 383.118 161.86 387.133Z" fill="#F04343"/>
<path d="M143.987 392.346C143.987 395.242 143.099 397.423 141.632 398.716C141.613 398.716 141.613 398.716 141.613 398.735C141.536 398.774 141.478 398.832 141.42 398.889L141.208 399.024C141.131 399.101 141.034 399.159 140.938 399.217C140.764 399.314 140.59 399.41 140.417 399.507C139.921 399.794 121.112 410.662 122.309 409.97C114.954 414.207 105.641 411.635 101.46 404.391C101.267 404.044 101.074 403.696 100.92 403.349C97.4842 396.226 100.09 387.558 107.059 383.543C126.777 372.127 125.86 372.623 126.286 372.501C133.217 369.929 142.959 381.031 143.911 390.782C143.967 391.303 143.987 391.824 143.987 392.346Z" fill="#457AEF"/>
<path d="M143.987 392.346C143.987 395.242 143.099 397.423 141.632 398.716C141.613 398.716 141.613 398.716 141.613 398.735C141.536 398.774 141.478 398.832 141.42 398.889L141.208 399.024C141.131 399.101 141.034 399.159 140.938 399.217C140.764 399.314 140.59 399.41 140.417 399.507C139.921 399.794 121.112 410.662 122.309 409.97C114.954 414.207 105.641 411.635 101.46 404.391C101.267 404.044 101.074 403.696 100.92 403.349C101.615 403.619 102.406 403.832 103.275 403.967C109.935 404.932 121.325 401.766 132.888 396.457C132.888 396.457 132.888 396.457 132.907 396.457C136.613 394.758 140.32 392.847 143.91 390.781C143.967 391.303 143.987 391.824 143.987 392.346Z" fill="#3A63DF"/>
<g opacity="0.5">
<path d="M102.831 402.185C102.831 402.185 101.715 393.622 110.181 387.752C118.647 381.882 146.348 366.6 146.348 366.6C146.348 366.6 149.792 364.708 148.361 363.495C148.361 363.495 147.536 361.991 142.831 364.878C138.392 367.595 110.546 383.24 110.546 383.24C110.546 383.24 97.9071 389.184 102.831 402.185Z" fill="white"/>
</g>
<path d="M81.8682 334.253C80.6992 331.452 81.0591 328.229 81.8831 325.293C81.8831 321.074 81.7731 309.053 81.7241 300.434L77.3011 297.874C70.0451 293.719 60.2041 295.91 55.8931 304.534C52.4761 311.657 55.0821 320.306 62.0321 324.321L81.9101 335.794C81.8941 335.277 81.8762 334.763 81.8682 334.253Z" fill="#FF6161"/>
<path d="M81.8682 334.253C81.1482 332.529 80.9991 330.5 81.2011 328.684C69.0191 321.444 58.5961 312.507 55.8931 304.534C52.4761 311.657 55.0821 320.306 62.0321 324.321L81.9101 335.794C81.8941 335.277 81.8762 334.763 81.8682 334.253Z" fill="#F04343"/>
<path d="M81.9104 268.427C81.9324 267.464 82.2534 266.716 82.6774 266.067C75.4504 262.311 66.4824 264.789 62.3994 271.92C62.2064 272.268 62.0134 272.635 61.8394 272.982C58.4224 280.105 61.0284 288.753 67.9784 292.769L81.7254 300.704C81.6634 289.954 81.6574 279.215 81.9104 268.427Z" fill="#FF6161"/>
<path d="M81.7014 293.673C71.9694 287.158 64.1274 279.729 61.8404 272.982C58.4234 280.105 61.0294 288.753 67.9794 292.769L81.7264 300.704C81.7124 298.36 81.7064 296.016 81.7014 293.673Z" fill="#F04343"/>
<path d="M89.9832 357.407C83.5352 367.628 90.8392 380.778 102.841 380.778C108.042 380.778 111.151 378.221 111.991 377.844L128.574 368.269C128.776 368.156 129.226 367.925 129.365 367.787L129.578 367.652C129.636 367.594 129.694 367.536 129.771 367.498C129.771 367.479 129.771 367.479 129.79 367.479C132.33 365.24 132.058 361.566 132.144 361.071C119.082 361.442 99.5192 364.191 89.9832 357.407Z" fill="#457AEF"/>
<path d="M129.016 361.206C126.389 362.629 123.734 363.994 121.064 365.219C121.045 365.219 121.045 365.219 121.045 365.219C113.359 368.748 96.9251 375.161 89.0771 372.111C92.4721 379.723 102.449 383.348 110.467 378.733C110.963 378.446 129.772 367.578 128.575 368.27C129.576 367.712 129.678 367.545 129.772 367.498C129.772 367.479 129.772 367.479 129.791 367.479C132.331 365.24 132.059 361.566 132.145 361.071C131.321 361.093 130.17 361.186 129.016 361.206Z" fill="#3A63DF"/>
<path d="M81.7672 307.056C81.7092 299.329 81.6672 291.613 81.7072 283.889C81.4252 283.639 81.1912 283.353 80.8862 283.12C80.5672 282.884 80.2282 282.645 79.9072 282.427C73.2902 278.109 64.3762 279.565 59.4882 285.931L43.9282 306.217C45.3042 304.49 47.8482 303.656 51.1402 304.089C61.7202 305.49 72.4872 318.088 68.2832 324.589L81.7672 307.056Z" fill="#FF6161"/>
<path d="M59.4872 285.932L43.9282 306.217C45.8622 303.789 49.6222 303.62 52.6612 304.368C61.4282 293.236 71.6492 284.067 79.9072 282.427C73.2892 278.111 64.3752 279.566 59.4872 285.932Z" fill="#F04343"/>
<path d="M45.3641 304.477C45.3611 304.496 45.3611 304.496 45.3421 304.494C45.2941 304.566 45.2291 304.615 45.1641 304.665L45.0021 304.858C44.8411 304.981 44.5521 305.402 44.4201 305.58C44.0321 306.085 30.8421 323.264 31.6841 322.168C26.0931 329.469 28.3221 339.874 35.4581 344.238C42.0721 348.574 51.0061 347.121 55.8961 340.736C56.1501 340.406 66.4091 327.063 69.0981 323.567C69.1911 323.415 69.2721 323.3 69.3521 323.114C72.8071 316.578 63.0711 305.471 53.5271 303.255C50.8071 302.583 47.4851 302.626 45.3641 304.477Z" fill="#457AEF"/>
<path d="M45.3643 304.477C45.3613 304.496 45.3613 304.496 45.3423 304.494C45.2943 304.566 45.2293 304.615 45.1643 304.665L45.0023 304.858C44.8413 304.981 44.5523 305.402 44.4203 305.58C44.0323 306.085 30.8423 323.264 31.6843 322.168C26.0953 329.467 28.3183 339.872 35.4583 344.238C33.4543 336.05 41.9853 320.564 46.4623 313.442C46.4623 313.442 46.4623 313.442 46.4653 313.423C48.6333 309.97 51.0113 306.545 53.5283 303.254C50.8073 302.583 47.4853 302.626 45.3643 304.477Z" fill="#3A63DF"/>
<g opacity="0.5">
<path d="M36.8613 342.493C36.8613 342.493 45.2053 344.716 52.1293 337.089C59.0533 329.462 77.8193 303.992 77.8193 303.992C77.8193 303.992 80.1443 300.824 81.1603 302.401C81.1603 302.401 82.5433 303.415 79.0683 307.704C75.7953 311.751 56.6503 337.317 56.6503 337.317C56.6503 337.317 49.1093 349.071 36.8613 342.493Z" fill="white"/>
</g>
<path d="M155.558 274.12C165.848 273.098 175.813 269.717 185.821 268.032C182.879 263.335 177.51 260.378 171.601 260.871L146.382 263.093C151.179 263.063 154.429 269.091 155.558 274.12Z" fill="#FF6161"/>
<path d="M155.489 274.129C155.968 274.082 156.444 273.997 156.921 273.94C155.849 269.241 152.876 263.366 148.204 262.984C148.066 262.962 147.919 262.957 147.772 262.953C147.772 262.953 147.729 262.954 147.686 262.955C147.643 262.956 147.574 262.966 147.488 262.969C147.152 263.004 126.112 264.855 126.112 264.855C119.792 265.399 114.76 269.734 112.942 275.413C127.144 275.558 141.333 275.519 155.489 274.129Z" fill="#457AEF"/>
<g opacity="0.5">
<path d="M117.144 275.449C119.081 273.223 122.214 270.838 127.16 269.991C137.314 268.254 168.879 266.127 168.879 266.127C168.879 266.127 172.8 265.87 172.017 264.165C172.017 264.165 171.906 262.454 166.421 263.078C161.249 263.661 129.399 266.057 129.399 266.057C129.399 266.057 118.672 266.09 115.323 275.433C115.929 275.439 116.537 275.445 117.144 275.449Z" fill="white"/>
</g>
<path d="M81.8823 325.425C76.8713 331.434 77.0373 340.516 83.1473 346.258C81.4613 339.386 81.8803 331.408 81.8823 325.425Z" fill="#457AEF"/>
<path d="M81.8822 325.554C77.1182 321.628 70.2472 320.827 64.5692 324.079L42.6582 336.762C49.4592 333.534 59.7112 344.775 60.6692 354.889C61.0132 357.974 60.3672 361.699 57.6952 363.306C79.7622 350.24 80.4322 350.902 83.5132 347.475C81.4522 340.391 81.8732 331.889 81.8822 325.554Z" fill="#FF6161"/>
<path d="M81.9593 337.618C77.2363 343.593 69.4323 349.68 60.6693 354.888C61.0133 357.973 60.3673 361.698 57.6953 363.305C79.7623 350.239 80.4323 350.901 83.5133 347.474C82.6073 344.36 82.1393 340.991 81.9593 337.618Z" fill="#F04343"/>
<path d="M59.6092 362.108C59.5902 362.108 59.5902 362.108 59.5902 362.127C60.2172 361.811 58.5952 362.828 40.2852 373.362C32.3172 377.952 22.2922 374.385 18.8962 366.741C15.4602 359.618 18.0662 350.95 25.0352 346.935C28.0922 345.165 19.4402 350.171 43.8572 336.047C51.1812 332.905 60.9562 344.632 61.8872 354.174C62.1972 356.958 61.7202 360.247 59.6092 362.108Z" fill="#457AEF"/>
<path d="M59.6095 362.108C59.5905 362.108 59.5905 362.108 59.5905 362.127C59.5135 362.166 59.4555 362.224 59.3975 362.281L59.1855 362.416C59.0425 362.559 58.5865 362.791 58.3935 362.899C57.8975 363.186 39.0885 374.054 40.2855 373.362C32.3195 377.951 22.2935 374.389 18.8965 366.741C26.7535 369.797 43.2205 363.359 50.8645 359.849C50.8645 359.849 50.8645 359.849 50.8835 359.849C54.5895 358.15 58.2965 356.239 61.8865 354.173C62.1975 356.958 61.7205 360.247 59.6095 362.108Z" fill="#3A63DF"/>
<g opacity="0.5">
<path d="M20.809 365.577C20.809 365.577 19.693 357.014 28.159 351.145C36.625 345.275 64.326 329.993 64.326 329.993C64.326 329.993 67.77 328.101 66.339 326.888C66.339 326.888 65.514 325.384 60.809 328.271C56.37 330.988 28.524 346.633 28.524 346.633C28.524 346.633 15.884 352.576 20.809 365.577Z" fill="white"/>
</g>
</g>
<path d="M201.583 251.745C167.703 271.433 117.015 275.492 76.0322 263.964V359.401C116.923 370.748 167.325 366.637 201.06 347.033C222.284 334.699 232.939 318.595 233.094 302.428L233.587 207.101C233.431 223.268 222.807 239.41 201.583 251.745Z" fill="#DBE6FA"/>
<path d="M95.068 340.229C93.983 340.062 93.242 339.049 93.406 337.967C93.571 336.882 94.622 336.145 95.668 336.305C132.99 342.031 172.981 335.796 200.062 320.061C211.379 313.485 219.789 305.779 225.069 297.161C225.646 296.226 226.866 295.945 227.797 296.505C228.732 297.079 229.023 298.3 228.451 299.235C222.827 308.42 213.947 316.581 202.058 323.491C172.146 340.874 130.358 345.631 95.068 340.229Z" fill="#3D4449"/>
<path d="M95.068 319.133C93.983 318.966 93.242 317.953 93.406 316.871C93.571 315.786 94.622 315.052 95.668 315.209C132.99 320.935 172.981 314.703 200.062 298.965C211.379 292.389 219.789 284.683 225.069 276.065C225.646 275.132 226.866 274.844 227.797 275.409C228.732 275.983 229.023 277.204 228.451 278.139C222.827 287.324 213.947 295.485 202.058 302.395C172.146 319.779 130.358 324.535 95.068 319.133Z" fill="#3D4449"/>
<path d="M95.068 298.038C93.983 297.871 93.242 296.858 93.406 295.776C93.571 294.691 94.622 293.962 95.668 294.115C132.985 299.839 172.981 293.611 200.062 277.871C211.379 271.29 219.794 263.587 225.069 254.971C225.646 254.036 226.866 253.753 227.797 254.315C228.732 254.889 229.023 256.11 228.451 257.045C222.831 266.225 213.947 274.388 202.058 281.301C172.315 298.581 130.618 303.48 95.068 298.038Z" fill="#3D4449"/>
<path d="M339.358 230.936C337.96 230.374 336.202 230.743 334.398 232.165L176.578 356.587C173.008 359.398 170.653 365.316 171.316 369.792L186.274 470.984C186.612 473.214 187.615 474.668 188.997 475.218L185.824 473.937C184.442 473.387 183.425 471.935 183.103 469.717L168.132 368.527C167.467 364.037 169.824 358.132 173.405 355.306L331.225 230.884C333.029 229.462 334.789 229.107 336.171 229.657L339.358 230.936Z" fill="#E22525"/>
<path d="M357.133 337.366C357.354 341.704 355.08 346.959 351.758 349.588C336.179 361.871 409.279 304.237 193.943 474.012C190.389 476.823 186.934 475.473 186.282 470.976L171.313 369.794C170.661 365.297 172.991 359.404 176.582 356.587L334.397 232.163C337.988 229.346 341.406 230.702 342.089 235.158C342.162 235.653 358.215 344.294 357.133 337.366Z" fill="#FF6161"/>
<path d="M207.365 426.838C212.783 422.567 217.992 424.601 218.997 431.393C220 438.174 216.419 447.15 211.002 451.421C205.576 455.699 200.373 453.647 199.37 446.866C198.365 440.075 201.94 431.116 207.365 426.838Z" fill="white"/>
<path d="M239.15 401.78C244.576 397.502 249.777 399.544 250.782 406.335C251.785 413.116 248.212 422.086 242.787 426.364C237.369 430.635 232.167 428.584 231.164 421.803C230.158 415.01 233.732 406.051 239.15 401.78Z" fill="white"/>
<path d="M270.934 376.722C276.352 372.451 281.569 374.479 282.574 381.271C283.577 388.052 279.988 397.035 274.57 401.306C269.152 405.577 263.95 403.526 262.947 396.745C261.943 389.952 265.517 380.993 270.934 376.722Z" fill="white"/>
<path d="M302.727 351.657C308.145 347.386 313.354 349.421 314.359 356.212C315.362 362.993 311.781 371.969 306.364 376.24C300.946 380.511 295.743 378.46 294.74 371.679C293.735 364.888 297.309 355.929 302.727 351.657Z" fill="white"/>
<path d="M297.694 317.629C303.112 313.358 308.321 315.392 309.326 322.184C310.331 328.975 306.748 337.941 301.331 342.212C295.913 346.483 290.712 344.442 289.708 337.651C288.702 330.859 292.276 321.9 297.694 317.629Z" fill="white"/>
<path d="M212.333 408.351C215.481 400.54 214.365 392.73 209.84 390.906C205.316 389.083 199.096 393.937 195.948 401.748C192.8 409.559 193.916 417.37 198.44 419.193C202.965 421.017 209.185 416.163 212.333 408.351Z" fill="white"/>
<path d="M234.117 367.752C239.543 363.474 244.744 365.515 245.749 372.307C246.753 379.098 243.179 388.058 237.753 392.335C232.335 396.606 227.134 394.565 226.13 387.774C225.125 380.982 228.699 372.023 234.117 367.752Z" fill="white"/>
<path d="M292.66 283.601C298.078 279.33 303.289 281.375 304.292 288.156C305.297 294.948 301.714 303.913 296.297 308.185C290.879 312.456 285.678 310.415 284.674 303.624C283.67 296.841 287.243 287.872 292.66 283.601Z" fill="white"/>
<path d="M334.511 326.599C339.92 322.334 345.13 324.369 346.134 331.16C347.137 337.941 343.556 346.917 338.147 351.182C332.729 355.453 327.527 353.402 326.524 346.621C325.519 339.83 329.094 330.87 334.511 326.599Z" fill="white"/>
<path d="M329.478 292.571C334.888 288.306 340.097 290.341 341.102 297.132C342.107 303.924 338.524 312.889 333.115 317.154C327.697 321.425 322.496 319.384 321.492 312.593C320.486 305.801 324.06 296.842 329.478 292.571Z" fill="white"/>
<path d="M324.445 258.542C329.855 254.277 335.065 256.322 336.069 263.103C337.073 269.894 333.491 278.86 328.082 283.125C322.664 287.396 317.463 285.355 316.458 278.564C315.454 271.783 319.027 262.814 324.445 258.542Z" fill="white"/>
<path d="M265.901 342.693C271.319 338.422 276.536 340.45 277.541 347.241C278.546 354.032 274.955 363.005 269.538 367.276C264.12 371.547 258.919 369.506 257.914 362.715C256.909 355.924 260.483 346.965 265.901 342.693Z" fill="white"/>
<path d="M260.868 308.665C266.286 304.394 271.505 306.432 272.508 313.213C273.513 320.004 269.922 328.977 264.504 333.248C259.086 337.519 253.885 335.478 252.881 328.687C251.877 321.906 255.45 312.936 260.868 308.665Z" fill="white"/>
<path d="M197.299 358.781C202.717 354.51 207.928 356.555 208.931 363.336C209.936 370.127 206.353 379.093 200.936 383.364C195.51 387.642 190.309 385.6 189.304 378.809C188.3 372.029 191.873 363.059 197.299 358.781Z" fill="white"/>
<path d="M185.068 377.102C183.498 366.426 193.112 352.259 200.579 355.219L204.811 356.93C202.705 356.075 200.026 356.633 197.295 358.784C188.903 365.388 185.972 382.191 193.415 385.222L189.183 383.511C187.094 382.683 185.57 380.469 185.068 377.102Z" fill="#DEDFFB"/>
<path d="M190.102 411.137C189.101 404.332 192.672 395.378 198.097 391.109C200.828 388.958 203.494 388.401 205.613 389.255L209.842 390.952C202.409 387.979 192.744 402.048 194.331 412.835C194.835 416.216 196.371 418.413 198.445 419.245L194.215 417.548C192.127 416.704 190.605 414.504 190.102 411.137Z" fill="#DEDFFB"/>
<path d="M210.647 423.276L214.879 424.987C212.773 424.132 210.094 424.69 207.362 426.841C198.97 433.445 196.038 450.248 203.481 453.279L199.25 451.568C197.16 450.724 195.638 448.525 195.135 445.158C194.122 438.369 197.707 429.413 203.13 425.13C205.862 422.979 208.527 422.422 210.647 423.276Z" fill="#DEDFFB"/>
<path d="M221.898 386.072C220.297 375.339 230.031 361.2 237.395 364.191L241.64 365.9C239.52 365.047 236.841 365.605 234.11 367.756C228.699 372.023 225.128 380.977 226.127 387.768C226.631 391.149 228.167 393.346 230.243 394.192L226.011 392.481C223.922 391.639 222.387 389.441 221.898 386.072Z" fill="#DEDFFB"/>
<path d="M242.428 398.213L246.659 399.924C244.553 399.069 241.874 399.627 239.143 401.778C230.693 408.441 227.886 425.205 235.276 428.214L231.045 426.503C228.957 425.673 227.419 423.462 226.93 420.093C225.917 413.304 229.502 404.348 234.911 400.067C237.643 397.916 240.324 397.371 242.428 398.213Z" fill="#DEDFFB"/>
<path d="M216.863 352.037C215.274 341.386 224.917 327.179 232.36 330.156L236.592 331.867C234.488 331.026 231.807 331.57 229.089 333.719C220.575 340.418 217.856 357.209 225.209 360.157L220.977 358.446C218.89 357.618 217.354 355.42 216.863 352.037Z" fill="#DEDFFB"/>
<path d="M248.645 326.974C247.049 316.273 256.759 302.126 264.158 305.105L268.39 306.816C266.27 305.963 263.605 306.519 260.874 308.67C252.36 315.369 249.639 332.147 256.991 335.095L252.762 333.398C250.671 332.555 249.149 330.355 248.645 326.974Z" fill="#DEDFFB"/>
<path d="M306.007 348.098L310.239 349.809C308.133 348.954 305.454 349.512 302.723 351.663C294.302 358.303 291.42 375.104 298.854 378.086L294.625 376.389C292.535 375.545 290.999 373.348 290.508 369.965C288.902 359.201 298.625 345.126 306.007 348.098Z" fill="#DEDFFB"/>
<path d="M312.224 276.859C310.644 266.27 320.245 251.962 327.71 254.994L331.953 256.689C324.546 253.753 314.861 267.731 316.456 278.57C316.958 281.937 318.494 284.135 320.571 284.98L316.339 283.269C314.25 282.44 312.726 280.226 312.224 276.859Z" fill="#DEDFFB"/>
<path d="M317.257 310.881C316.244 304.092 319.829 295.136 325.24 290.869C327.971 288.718 330.637 288.161 332.743 289.017L336.988 290.726C334.868 289.873 332.203 290.429 329.483 292.565C320.956 299.299 318.257 316.058 325.602 319.004L321.373 317.307C319.283 316.461 317.747 314.263 317.257 310.881Z" fill="#DEDFFB"/>
<path d="M280.44 301.909C279.429 295.134 283.012 286.164 288.423 281.897C291.154 279.746 293.82 279.189 295.939 280.043L300.171 281.754C298.065 280.899 295.386 281.457 292.655 283.608C284.196 290.278 281.37 307.057 288.786 310.031L284.557 308.334C282.467 307.489 280.931 305.291 280.44 301.909Z" fill="#DEDFFB"/>
<path d="M253.68 361.009C252.667 354.22 256.252 345.264 261.661 340.983C264.392 338.832 267.074 338.287 269.191 339.126L273.423 340.837C271.317 339.982 268.638 340.54 265.906 342.691C257.514 349.295 254.582 366.098 262.025 369.129L257.794 367.418C255.706 366.59 254.182 364.376 253.68 361.009Z" fill="#DEDFFB"/>
<path d="M285.475 335.944C283.893 325.338 293.459 311.085 300.973 314.063L305.205 315.774C303.101 314.933 300.42 315.477 297.689 317.628C289.238 324.291 286.432 341.055 293.822 344.064L289.59 342.353C287.502 341.524 285.964 339.313 285.475 335.944Z" fill="#DEDFFB"/>
<path d="M342.02 324.746C339.903 323.907 337.235 324.449 334.517 326.598C326.125 333.202 323.194 350.005 330.637 353.036L326.405 351.325C319.051 348.357 321.71 331.64 330.272 324.889C333.004 322.738 335.671 322.195 337.777 323.05L342.02 324.746Z" fill="#DEDFFB"/>
<path d="M274.226 373.161L278.457 374.872C276.337 374.019 273.672 374.575 270.941 376.726C262.427 383.426 259.706 400.202 267.058 403.151L262.826 401.44C260.738 400.61 259.202 398.413 258.712 395.03C257.699 388.241 261.284 379.284 266.695 375.017C269.427 372.866 272.106 372.308 274.226 373.161Z" fill="#DEDFFB"/>
<path d="M229.083 333.723C234.509 329.445 239.712 331.497 240.715 338.278C241.72 345.07 238.145 354.029 232.72 358.306C227.302 362.577 222.101 360.536 221.096 353.745C220.093 346.964 223.666 337.994 229.083 333.723Z" fill="white"/>
<g opacity="0.4">
<path d="M192.646 386.721C192.136 386.515 188.048 384.861 188.558 385.068C179.788 381.581 182.481 363.288 192.027 355.752C193.808 354.348 195.622 353.504 197.42 353.243C198.755 353.049 200.03 353.187 201.204 353.652L205.726 355.483L205.722 355.495C208.272 356.657 210.039 359.404 210.588 363.086C211.697 370.523 207.91 380.008 201.968 384.683C199.244 386.842 195.812 388.072 192.646 386.721Z" fill="white"/>
</g>
<g opacity="0.4">
<path d="M197.811 420.794C197.301 420.589 193.082 418.897 193.593 419.101C190.852 417.995 189.023 415.253 188.444 411.382C186.982 401.441 194.224 388.464 202.459 387.27C203.797 387.076 205.071 387.217 206.247 387.691L210.761 389.504L210.752 389.525C213.306 390.686 215.075 393.435 215.623 397.121C217.402 409.058 206.656 424.389 197.811 420.794Z" fill="white"/>
</g>
<g opacity="0.4">
<path d="M203.116 454.935L202.23 455.097L201.955 455.137L201.844 454.42C200.221 453.348 194.67 453.412 193.477 445.403C192.001 435.503 199.251 422.487 207.492 421.292C210.58 420.844 211.949 422.192 215.793 423.539L215.788 423.551C218.373 424.715 220.096 427.398 220.655 431.144C222.375 442.67 212.071 458.118 203.116 454.935Z" fill="white"/>
</g>
<g opacity="0.4">
<path d="M260.163 337.072C258.817 337.267 257.536 337.124 256.358 336.646L256.217 336.596L252.139 334.952C249.396 333.843 247.565 331.095 246.988 327.216C245.899 319.916 249.759 310.236 255.595 305.636C257.381 304.228 259.199 303.381 260.999 303.12C264.099 302.67 265.473 304.023 269.306 305.366L269.301 305.378C271.886 306.542 273.609 309.225 274.167 312.97C275.257 320.274 271.391 329.962 265.549 334.567C263.77 335.969 261.958 336.812 260.163 337.072Z" fill="white"/>
</g>
<g opacity="0.4">
<path d="M265.197 371.107C263.851 371.302 262.57 371.159 261.392 370.682L261.144 370.574L257.172 368.974C248.296 365.447 251.17 347.138 260.622 339.66C262.406 338.255 264.224 337.411 266.026 337.15C267.366 336.956 268.641 337.093 269.816 337.558L274.236 339.346L274.233 339.356C276.874 340.496 278.633 343.195 279.199 346.992C280.677 356.904 273.423 369.914 265.197 371.107Z" fill="white"/>
</g>
<g opacity="0.4">
<path d="M224.575 361.709C224.065 361.503 219.843 359.796 220.353 360.002C217.597 358.907 215.767 356.162 215.203 352.274C214.117 344.986 217.975 335.302 223.805 330.688C226.478 328.584 229.858 327.337 232.991 328.592L237.52 330.425L237.515 330.438C240.067 331.6 241.835 334.35 242.385 338.036C244.147 350.02 233.437 365.301 224.575 361.709Z" fill="white"/>
</g>
<g opacity="0.4">
<path d="M266.423 404.701C265.913 404.495 261.693 402.789 262.203 402.995C253.461 399.523 256.063 381.26 265.66 373.693C267.446 372.285 269.265 371.439 271.065 371.178C274.163 370.729 275.52 372.074 279.371 373.424L279.366 373.436C281.951 374.597 283.674 377.28 284.233 381.029C285.322 388.331 281.458 398.019 275.616 402.625C272.93 404.738 269.55 405.972 266.423 404.701Z" fill="white"/>
</g>
<g opacity="0.4">
<path d="M247.416 372.056C249.145 383.855 238.778 399.015 229.883 395.851C229.373 395.645 224.878 393.83 225.388 394.036C222.63 392.916 220.795 390.178 220.234 386.308C218.423 374.084 229.34 359.103 238.029 362.627L242.56 364.448L242.55 364.461C245.14 365.63 246.862 368.314 247.416 372.056Z" fill="white"/>
</g>
<g opacity="0.4">
<path d="M234.642 429.766C234.132 429.56 229.912 427.852 230.422 428.058C221.702 424.595 224.266 406.345 233.872 398.744C236.545 396.64 239.925 395.393 243.058 396.647L247.588 398.477L247.583 398.491C250.136 399.655 251.904 402.405 252.452 406.089C254.217 418.093 243.471 433.345 234.642 429.766Z" fill="white"/>
</g>
<g opacity="0.4">
<path d="M288.152 311.581L283.933 309.887C281.173 308.774 279.343 306.024 278.781 302.145C277.693 294.849 281.553 285.17 287.387 280.571C289.175 279.163 290.99 278.316 292.784 278.056C295.851 277.611 297.238 278.947 300.8 280.186C303.551 281.296 305.384 284.037 305.961 287.904C307.055 295.341 303.27 304.827 297.343 309.5C294.677 311.603 291.296 312.856 288.152 311.581Z" fill="white"/>
</g>
<g opacity="0.4">
<path d="M302.022 380.063C300.675 380.258 299.396 380.115 298.218 379.637L298.087 379.59L294.001 377.943C285.263 374.419 287.835 356.196 297.458 348.628C300.112 346.535 303.481 345.262 306.641 346.535L311.154 348.36L311.149 348.372C313.734 349.534 315.457 352.218 316.016 355.964C317.107 363.276 313.241 372.964 307.397 377.561C305.619 378.962 303.811 379.803 302.022 380.063Z" fill="white"/>
</g>
<g opacity="0.4">
<path d="M293.186 345.615L292.938 345.507L288.966 343.909C286.21 342.814 284.38 340.069 283.816 336.181C282.343 326.304 289.574 313.281 297.813 312.086C300.925 311.635 302.352 313.003 305.833 314.21C308.577 315.326 310.406 318.073 310.983 321.944C312.091 329.363 308.306 338.848 302.368 343.539C299.685 345.648 296.319 346.888 293.186 345.615Z" fill="white"/>
</g>
<g opacity="0.4">
<path d="M328.776 320.978C327.425 321.174 326.145 321.031 324.967 320.553C324.457 320.348 320.24 318.654 320.75 318.859C317.99 317.747 316.161 314.997 315.598 311.117C314.119 301.213 321.368 288.224 329.598 287.03C330.936 286.836 332.209 286.979 333.379 287.453L337.902 289.274L337.897 289.287C340.482 290.449 342.205 293.133 342.764 296.879C343.839 304.189 339.98 313.876 334.162 318.472C332.383 319.874 330.571 320.717 328.776 320.978Z" fill="white"/>
</g>
<g opacity="0.4">
<path d="M320.211 286.635L315.718 284.818C312.974 283.73 311.143 280.989 310.565 277.097C308.867 265.683 319.237 249.726 328.341 253.437L332.962 255.281L332.942 255.306C335.486 256.492 337.18 259.159 337.732 262.864C338.807 270.184 334.947 279.864 329.127 284.443C326.547 286.476 323.31 287.719 320.211 286.635Z" fill="white"/>
</g>
<g opacity="0.4">
<path d="M329.87 354.534C329.36 354.328 325.272 352.675 325.782 352.881C323.023 351.767 321.194 349.022 320.633 345.153C319.544 337.851 323.403 328.165 329.237 323.565C331.016 322.164 332.825 321.321 334.615 321.061C335.958 320.866 337.237 321.01 338.415 321.487L342.845 323.257L342.836 323.279C345.439 324.414 347.241 327.177 347.8 330.914C349.51 342.548 338.909 358.397 329.87 354.534Z" fill="white"/>
</g>
</svg>
