<svg width="140" height="126" viewBox="0 0 140 126" fill="none" xmlns="http://www.w3.org/2000/svg">
<path d="M140 56.5832C140.055 37.3671 126.581 13.9136 109.906 4.19953C102.13 -0.330505 95.0322 -1.06992 89.6644 1.37642L89.663 1.37507L89.6509 1.38247C88.7776 1.78145 87.9547 2.27193 87.1774 2.83709L59.4559 19.1427L98.8455 104.818L130.29 86.4654L137.51 68.8983C137.841 68.2087 138.138 67.4773 138.407 66.715L138.468 66.5664L138.461 66.5623C139.445 63.7116 139.988 60.3752 140 56.5832Z" fill="url(#paint0_linear_3_734)"/>
<path d="M106.927 84.8614L106.92 84.8574C107.903 82.0074 108.447 78.6716 108.458 74.8789C108.513 55.6628 95.0403 32.2093 78.3647 22.4953C61.6891 12.7806 48.1261 20.4836 48.0711 39.7004C48.0603 43.4923 48.5832 47.4505 49.5471 51.4342L49.5397 51.4295L49.633 51.778C49.8082 52.4824 49.9962 53.1875 50.1982 53.8926L57.3482 80.6415L98.7502 104.76L105.969 87.1934C106.301 86.5037 106.598 85.7724 106.867 85.0094L106.927 84.8614Z" fill="url(#paint1_linear_3_734)"/>
<path d="M92.411 66.308C92.3842 75.7724 85.7094 79.5697 77.5028 74.7894C69.2963 70.0091 62.6658 58.461 62.6933 48.9959C62.7201 39.5315 69.3949 35.7341 77.6015 40.5144C85.8074 45.2954 92.4379 56.8436 92.411 66.308Z" fill="url(#paint2_linear_3_734)"/>
<path d="M86.4759 84.451C83.5426 84.451 80.3113 83.4714 76.9806 81.531C65.7038 74.9617 56.5602 59.0349 56.5978 46.0281C56.6166 39.5294 58.8746 34.6583 62.9557 32.3115C67.0651 29.9493 72.4518 30.4673 78.1244 33.7722C89.4005 40.3408 98.5448 56.2676 98.5072 69.2751C98.4884 75.7737 96.2304 80.6442 92.1486 82.9916C90.4523 83.9672 88.5373 84.451 86.4759 84.451ZM68.6344 32.8733C66.9181 32.8733 65.3407 33.2676 63.9572 34.0628C60.5259 36.0355 58.6276 40.2863 58.6108 46.0335C58.5752 58.3984 67.2691 73.5393 77.9915 79.7857C83.0157 82.7138 87.6882 83.2278 91.1464 81.2403C94.5778 79.2676 96.4767 75.0162 96.4928 69.2697C96.5284 56.9041 87.8339 41.7632 77.1115 35.5175C74.0976 33.7621 71.2093 32.8733 68.6344 32.8733Z" fill="url(#paint3_linear_3_734)"/>
<path d="M56.3179 70.7809L56.3172 68.5741L56.2541 66.0988C56.2279 65.0855 55.9668 64.4565 55.3855 64.1806C54.572 63.7958 53.8242 64.3206 53.3799 64.5446C52.5918 64.9739 26.8391 79.6566 24.7348 80.9968C22.519 82.4091 22.7003 83.7433 22.705 84.4914V86.7487C22.7036 86.7662 22.6996 89.2314 22.6996 89.2489C22.6996 89.5974 22.9842 89.8954 23.3312 89.8954C23.6789 89.8954 23.9629 89.6108 23.9629 89.2623V86.8086H23.9682V84.4302C23.9582 84.3851 23.8501 83.0058 25.4127 82.0653C27.562 80.7728 53.9242 65.6891 54.0236 65.6352L54.1088 65.5794C54.4035 65.4031 54.7109 65.2531 54.8626 65.3473C54.9929 65.428 54.9761 65.5114 54.9915 66.1311L55.0546 68.5902V70.7943L55.056 70.7809C55.056 70.7856 55.0546 70.8031 55.0546 70.8071C55.0546 71.1556 55.3392 71.4402 55.6863 71.4402C56.0333 71.4402 56.3179 71.1556 56.3179 70.8071C56.3179 70.8031 56.3186 70.7856 56.3179 70.7809Z" fill="#FDFFF8"/>
<path d="M100.158 101.623L56.1091 76.0086L57.3476 80.6422L98.8455 104.817L100.158 101.623Z" fill="url(#paint4_linear_3_734)"/>
<path d="M77.7485 40.5151C76.6484 39.8739 75.5764 39.3922 74.5434 39.0524C73.2405 40.6369 72.4786 42.9742 72.4699 45.9561C72.4457 54.2761 78.2748 64.4282 85.4886 68.6305C87.8788 70.0226 89.8375 71.0506 91.7687 70.8804C92.0942 69.6653 92.5533 67.8272 92.558 66.308C92.5856 56.8436 85.9551 45.2954 77.7485 40.5151Z" fill="url(#paint5_linear_3_734)"/>
<path d="M100.158 101.623L131.66 83.131L130.291 86.4648L98.8456 104.817L100.158 101.623Z" fill="url(#paint6_linear_3_734)"/>
<path d="M117.195 50.5972V32.1608C117.195 29.8672 115.981 27.7459 114.005 26.5893L93.3662 14.5002V17.5555C103.856 24.9261 112.727 37.5595 117.195 50.5972Z" fill="#8F9180"/>
<path d="M131.752 16.0652L112.354 4.70281C111.588 4.25404 110.64 4.25741 109.877 4.71021L93.3662 14.5171L114.005 26.6062C115.981 27.7634 117.195 29.8848 117.195 32.1777V50.614L133.519 40.9182C134.401 40.3941 134.943 39.442 134.943 38.414V21.6354C134.942 19.3432 133.728 17.2225 131.752 16.0652Z" fill="url(#paint7_linear_3_734)"/>
<path d="M69.1674 78.4562L58.7008 77.9691L29.6603 98.6547L16.6363 112.784L22.7741 124.205L78.1754 92.2206C78.3822 92.1742 78.5627 92.0672 78.7144 91.9077L78.748 91.8882L78.7446 91.8755C79.0252 91.5606 79.1991 91.0674 79.1984 90.4134L80.4355 76.6908L69.1674 78.4562Z" fill="url(#paint8_linear_3_734)"/>
<path d="M85.9987 77.1329V75.432L67.2557 85.0491L50.9782 75.4757C50.1546 74.9913 48.9041 74.9307 48.1852 75.3398L12.3632 95.7334L8.21024 96.75V98.5336L8.21829 98.5323C8.22232 98.8458 8.44383 99.1768 8.88819 99.4379L26.5243 109.81C27.3479 110.294 28.5984 110.355 29.3173 109.946L85.5215 77.9436C85.8927 77.733 86.0477 77.4363 85.9987 77.1329Z" fill="url(#paint9_linear_3_734)"/>
<path d="M85.51 75.8835L29.3166 108.032C28.5977 108.442 27.3472 108.381 26.5236 107.896L8.88751 97.5244C8.0639 97.04 7.97932 96.3154 8.69822 95.9063L64.8916 63.7574C65.6105 63.3476 66.861 63.4089 67.6846 63.8933L85.3207 74.2654C86.1444 74.7498 86.2289 75.4744 85.51 75.8835Z" fill="#27BDE0"/>
<path d="M76.0919 83.7069L76.0912 81.4994L76.0281 79.0242C76.002 78.0109 75.7409 77.3818 75.1596 77.106C74.346 76.7211 73.5983 77.2459 73.1539 77.47C72.3659 77.8992 46.6131 92.582 44.5088 93.9222C42.2931 95.3344 42.4736 96.6686 42.479 97.4168V99.6741C42.4776 99.6916 42.4736 102.157 42.4736 102.174C42.4736 102.523 42.7582 102.821 43.1052 102.821C43.4523 102.821 43.7369 102.536 43.7369 102.188V99.7333H43.7423V97.3549C43.7322 97.3098 43.6234 95.9305 45.1868 94.9906C47.3361 93.6981 73.699 78.6144 73.7976 78.5606L73.8829 78.5047C74.1775 78.3285 74.485 78.1784 74.6367 78.2726C74.7669 78.3534 74.7494 78.4368 74.7655 79.0565L74.8286 81.5156V83.7197L74.83 83.7063C74.83 83.711 74.8286 83.7285 74.8286 83.7325C74.8286 84.081 75.1132 84.3656 75.4603 84.3656C75.808 84.3656 76.0919 84.081 76.0919 83.7325C76.0919 83.7291 76.0926 83.7116 76.0919 83.7069Z" fill="#FDFFF8"/>
<path d="M92.3479 68.749L91.7693 70.8804L86.5411 74.3528C86.2101 74.5728 85.7819 74.5802 85.4436 74.373L83.9917 73.4835L84.7113 69.4433L92.3479 68.749Z" fill="url(#paint10_linear_3_734)"/>
<path d="M70.4897 65.5727L83.4916 73.2192C84.0897 73.5711 84.8301 73.5724 85.4295 73.2226L92.348 68.7497C92.5386 67.7721 92.5554 67.1942 92.5587 66.0443C92.5701 62.179 91.2162 57.7028 89.3522 53.7454L70.5139 64.3105C70.0165 64.5776 70.0038 65.2867 70.4897 65.5727Z" fill="#1DADCE"/>
<path d="M129.174 30.1095L120.588 35.0749C120.23 35.2814 119.94 35.0621 119.94 34.5837L119.941 33.3969C119.941 32.9185 120.231 32.3634 120.589 32.1562L129.175 27.1909C129.533 26.9843 129.823 27.2036 129.823 27.682L129.822 28.8688C129.822 29.3472 129.532 29.903 129.174 30.1095Z" fill="url(#paint11_linear_3_734)"/>
<path d="M132.174 28.3749L131.231 28.9199C130.874 29.1271 130.584 28.9071 130.584 28.4288L130.584 27.2419C130.584 26.7635 130.875 26.2085 131.233 26.0013L132.175 25.4563C132.533 25.2491 132.823 25.4691 132.823 25.9474L132.822 27.1343C132.822 27.6126 132.532 28.1677 132.174 28.3749Z" fill="url(#paint12_linear_3_734)"/>
<path d="M132.497 37.2668L120.584 44.1894C120.226 44.3966 119.937 44.1766 119.937 43.6982L119.939 37.863C119.939 37.3846 120.229 36.8295 120.587 36.6223L132.5 29.7004C132.858 29.4932 133.148 29.7132 133.148 30.1916L133.146 36.0269C133.146 36.5046 132.855 37.0603 132.497 37.2668Z" fill="url(#paint13_linear_3_734)"/>
<path d="M112.084 16.1083L107.015 19.0438C106.355 19.4259 105.202 19.3782 104.44 18.9375L101.429 17.1962C100.667 16.7556 100.314 14.8818 100.974 14.4996L106.312 12.7705C106.972 12.3884 108.125 12.4361 108.887 12.8768L112.174 13.3814C112.936 13.8221 112.744 15.7262 112.084 16.1083Z" fill="url(#paint14_linear_3_734)"/>
<path d="M112.084 14.6758L107.015 17.6113C106.355 17.9935 105.202 17.9457 104.44 17.505L101.429 15.7638C100.667 15.3231 100.584 14.6556 101.244 14.2735L106.312 11.338C106.972 10.9559 108.125 11.0036 108.887 11.4443L111.898 13.1855C112.66 13.6269 112.744 14.2943 112.084 14.6758Z" fill="url(#paint15_linear_3_734)"/>
<path d="M118.177 62.3808C117.937 59.9775 117.509 57.5326 116.911 55.0775C116.747 54.4053 115.978 54.0824 115.377 54.4242L110.751 57.0629C110.349 57.2924 110.144 57.7579 110.249 58.2101C110.427 58.971 110.703 60.2164 110.932 61.527C111.194 63.0314 111.347 64.2479 111.435 65.1232C111.51 65.868 112.316 66.2905 112.973 65.9339L117.629 63.4069C117.999 63.2064 118.219 62.802 118.177 62.3808Z" fill="url(#paint16_linear_3_734)"/>
<path d="M119.297 86.2669C118.707 86.2669 118.053 86.0577 117.342 85.6392C113.504 83.3806 114.762 63.7365 114.918 61.5041L115.588 61.5512C115.172 67.5022 114.737 83.3261 117.682 85.0579C118.663 85.6358 119.444 85.7455 120.071 85.3956C122.583 83.9881 122.758 75.4751 122.96 65.6177C122.982 64.5722 123.003 63.5064 123.029 62.4259C123.361 48.097 123.148 39.5389 123.145 39.4541L123.816 39.4346C123.818 39.4925 124.042 45.2975 126.284 46.6767C126.908 47.0596 127.626 47.0535 128.481 46.6545C133.004 44.546 131.391 35.3056 131.374 35.2121L132.035 35.0923C132.107 35.4933 133.753 44.9389 128.764 47.2641C127.705 47.7593 126.752 47.7546 125.932 47.25C124.932 46.6344 124.288 45.3385 123.876 43.9774C123.902 47.8959 123.89 54.2216 123.7 62.442C123.675 63.5219 123.653 64.5876 123.632 65.6318C123.416 76.1109 123.246 84.3878 120.399 85.983C120.061 86.1721 119.693 86.2669 119.297 86.2669Z" fill="#F3FFFF"/>
<path d="M123.951 40.5972L123.008 41.1422C122.65 41.3494 122.36 41.1294 122.36 40.651L122.361 39.4642C122.361 38.9858 122.652 38.4308 123.009 38.2235L123.952 37.6786C124.31 37.4713 124.6 37.6914 124.6 38.1697L124.599 39.3566C124.598 39.8349 124.308 40.3907 123.951 40.5972Z" fill="url(#paint17_linear_3_734)"/>
<path d="M117.013 61.7585C116.891 60.5393 116.674 59.2987 116.37 58.0533C116.287 57.7122 115.896 57.5487 115.592 57.7223L113.246 59.0612C113.042 59.1776 112.938 59.4137 112.991 59.6431C113.081 60.0293 113.221 60.6611 113.338 61.3258C113.471 62.0888 113.548 62.7065 113.593 63.1498C113.632 63.528 114.04 63.7419 114.373 63.5609L116.735 62.2792C116.922 62.1769 117.033 61.9717 117.013 61.7585Z" fill="url(#paint18_linear_3_734)"/>
<path d="M132.174 35.8317L131.231 36.3767C130.874 36.5833 130.584 36.3639 130.584 35.8855L130.584 34.6987C130.584 34.2203 130.875 33.6653 131.233 33.458L132.175 32.9131C132.533 32.7058 132.823 32.9259 132.823 33.4042L132.822 34.5911C132.822 35.0694 132.532 35.6245 132.174 35.8317Z" fill="url(#paint19_linear_3_734)"/>
<path d="M31.6975 32.2779L51.5796 29.2509C51.8072 29.2166 52.0166 29.2765 52.1898 29.4043C52.2602 29.4568 52.3227 29.5227 52.3791 29.5968L53.698 30.9356L52.6402 31.891L52.6549 43.9619C52.6556 44.6946 52.1837 45.3607 51.6004 45.4495L34.7832 48.0102L32.6876 49.9022L31.1102 48.3251C30.8397 48.126 30.6611 47.7593 30.6605 47.3112L30.6437 33.7662C30.6417 33.0321 31.1142 32.366 31.6975 32.2779Z" fill="url(#paint20_linear_3_734)"/>
<path d="M33.236 50.0152L53.1181 46.9882C53.7014 46.8994 54.1739 46.2333 54.1726 45.5006L54.1558 31.9556C54.1551 31.2229 53.6813 30.7008 53.0979 30.7903L33.2159 33.8173C32.6326 33.9061 32.16 34.5722 32.1613 35.3049L32.1781 48.8499C32.1788 49.5819 32.652 50.104 33.236 50.0152Z" fill="#F9F9EA"/>
<path d="M34.7275 48.1004L52.0669 45.4603C52.3918 45.4105 52.6543 45.0405 52.6543 44.6321L52.6402 33.528C52.6395 33.1203 52.3757 32.8297 52.0515 32.8795L34.7121 35.5196C34.3872 35.5693 34.1247 35.9394 34.1247 36.3471L34.1388 47.4512C34.1395 47.8596 34.4033 48.1502 34.7275 48.1004Z" fill="#2E3535"/>
<path d="M31.6975 51.4134L51.5796 48.3864C51.8072 48.3521 52.0166 48.4119 52.1898 48.5398C52.2602 48.5922 52.3227 48.6582 52.3791 48.7322L53.698 50.0711L52.6402 51.0265L52.6382 51.0763C52.6388 51.809 52.1669 52.475 51.5836 52.5639L34.7664 55.1246L32.6708 57.0165L31.0934 55.4394C30.8222 55.2403 30.6444 54.8736 30.6437 54.4255V52.9023C30.6417 52.1682 31.1142 51.5022 31.6975 51.4134Z" fill="url(#paint21_linear_3_734)"/>
<path d="M33.2186 57.1295L53.1007 54.1025C53.684 54.0137 54.1565 53.3476 54.1552 52.615V51.0917C54.1545 50.359 53.6806 49.8369 53.0973 49.9257L33.2152 52.9527C32.6319 53.0415 32.1594 53.7076 32.1607 54.4403V55.9635C32.1621 56.6962 32.6353 57.2183 33.2186 57.1295Z" fill="#F9F9EA"/>
<path d="M34.7208 55.6783L49.733 53.3645C50.0579 53.3147 50.3204 52.9446 50.3204 52.5369L50.3137 52.3586C50.313 51.9509 50.0492 51.6602 49.725 51.71L34.7127 54.0238C34.3879 54.0736 34.1254 54.4436 34.1254 54.852L34.1321 55.0303C34.1328 55.4374 34.3959 55.728 34.7208 55.6783Z" fill="#2773E2"/>
<path d="M51.583 53.0375L52.0676 52.9641C52.3925 52.9143 52.6549 52.5443 52.6549 52.1366L52.6482 51.9583C52.6476 51.5506 52.3838 51.2599 52.0595 51.3097L51.5749 51.383C51.25 51.4328 50.9876 51.8029 50.9876 52.2106L50.9943 52.3889C50.9943 52.7966 51.2581 53.0873 51.583 53.0375Z" fill="#FF3222"/>
<path d="M37.9884 49.2913V52.6957H36.8264V48.9623L37.9884 49.2913Z" fill="#F9F9EA"/>
<path d="M49.9767 47.4249V50.8287H48.8148V47.0953L49.9767 47.4249Z" fill="#F9F9EA"/>
<path d="M36.8265 49.4683L35.3477 49.6937V50.8576L36.8265 52.4031V49.4683Z" fill="url(#paint22_linear_3_734)"/>
<path d="M48.8148 47.6328L47.3367 47.8575V49.0215L48.8148 50.5676V47.6328Z" fill="url(#paint23_linear_3_734)"/>
<path d="M35.4222 106.527L35.4195 103.434C35.4182 102.095 34.6046 100.541 33.6025 99.9626L14.3379 88.8384C13.9902 88.6379 13.6687 88.5895 13.3928 88.6561L13.3875 88.6514L13.3747 88.6588C13.2264 88.6985 13.0955 88.7772 12.98 88.8862L7.40741 92.0968L18.211 101.83L19.1527 116.178L15.6301 115.586L18.2123 121.585L21.7907 126L28.0661 122.523L28.295 122.051C28.3903 121.92 28.4648 121.758 28.5246 121.577L28.5413 121.542L28.5367 121.532C28.6132 121.285 28.6628 121.005 28.6628 120.678L29.4985 111.242L34.8 107.991L34.7926 107.984C35.1759 107.763 35.4229 107.258 35.4222 106.527Z" fill="url(#paint24_linear_3_734)"/>
<path d="M27.8406 103.439L8.57605 92.3149C7.57389 91.7362 6.76236 92.3525 6.7637 93.6908L6.76639 96.783C6.76773 98.1219 7.58127 99.6761 8.58343 100.255L12.2564 102.375L13.4694 118.709C13.4707 120.258 14.4125 122.058 15.573 122.728L20.8033 125.748C21.9639 126.418 22.903 125.705 22.9016 124.155L24.0897 109.208L27.8486 111.378C28.8508 111.957 29.6623 111.341 29.661 110.002L29.6583 106.91C29.6563 105.572 28.8427 104.018 27.8406 103.439Z" fill="url(#paint25_linear_3_734)"/>
<path d="M96.9634 95.9466L94.3939 94.4193C93.867 94.1058 93.4387 93.2635 93.4367 92.5368L93.4287 88.9958C93.4273 88.2692 93.8529 87.9348 94.3798 88.2477L96.9486 89.7749C97.4755 90.0885 97.9038 90.9308 97.9058 91.6575L97.9139 95.1985C97.9165 95.9251 97.4903 96.2595 96.9634 95.9466Z" fill="url(#paint26_linear_3_734)"/>
<path d="M95.7336 90.0266C95.7578 90.0407 95.7786 90.0689 95.8021 90.0864C95.8216 90.0958 95.8384 90.0924 95.8585 90.1045L95.7336 90.0266Z" fill="url(#paint27_linear_3_734)"/>
<path d="M96.3707 93.6104L96.3653 91.2704C96.3646 90.8236 96.1163 90.3224 95.8015 90.0862C95.68 90.0297 95.5712 90.0284 95.4799 90.0714L95.4779 90.0587L95.4323 90.0876C95.4236 90.0936 95.4142 90.0977 95.4054 90.1044L93.6777 91.1997L94.3006 95.3241L96.08 94.183L96.076 94.1534C96.2499 94.1016 96.372 93.9172 96.3707 93.6104Z" fill="url(#paint28_linear_3_734)"/>
<path d="M93.9421 95.2456L94.067 95.323C93.7186 95.1158 93.4353 94.5594 93.4346 94.079L93.4293 91.7389C93.4286 91.2592 93.7099 91.0379 94.0582 91.2444L93.9334 91.1671C94.2818 91.3743 94.565 91.9307 94.5657 92.4111L94.5711 94.7511C94.5717 95.2315 94.2905 95.4529 93.9421 95.2456Z" fill="url(#paint29_linear_3_734)"/>
<path d="M24.8771 105.006H24.7871C24.6623 105.006 24.5468 105.04 24.4435 105.096L24.4361 105.084L20.7073 107.321L20.5953 107.404C20.5906 107.407 20.1281 107.757 18.554 108.019C16.9887 108.275 15.1824 107.58 14.8964 107.463L5.90587 102.131C3.89216 100.936 2.80341 100.17 2.2154 99.6942C2.7873 99.7951 3.44109 99.968 3.74113 100.104C6.30862 101.257 7.4316 100.799 7.76386 100.585L11.6376 98.288L11.6362 98.2853C11.8584 98.1581 12.0108 97.9213 12.0108 97.6481V97.6293C12.0108 97.2243 11.6805 96.8932 11.2765 96.8932H11.1865C11.0697 96.8932 10.9603 96.9235 10.8616 96.9726L10.8529 96.9578L6.9624 99.2649C6.88252 99.2939 6.17168 99.5018 4.37209 98.6937C4.33786 98.6789 0.844064 97.3111 0.129867 98.695C-0.344028 99.6121 0.298347 100.6 5.12119 103.462L14.1581 108.822L14.2433 108.865C14.3259 108.901 16.002 109.621 17.823 109.621C18.1486 109.621 18.4795 109.598 18.8057 109.543C20.5536 109.253 21.2833 108.828 21.5511 108.617L25.2281 106.411L25.2255 106.405C25.4543 106.28 25.6121 106.04 25.6121 105.762V105.743C25.6114 105.337 25.2812 105.006 24.8771 105.006Z" fill="#FDFFF8"/>
<path d="M8.12096 99.4823L8.11559 99.4911C8.01356 99.4373 7.89945 99.4036 7.77661 99.4036H7.68666C7.28258 99.4036 6.95233 99.7346 6.95233 100.14V100.159C6.95233 100.44 7.1141 100.684 7.34836 100.807L7.34299 100.816L20.7141 108.651L21.492 107.317L8.12096 99.4823Z" fill="#FDFFF8"/>
<path d="M86.4618 72.9426L81.3524 75.9016C80.6872 76.2871 79.5253 76.2387 78.7567 75.7946L75.7214 74.0392C74.9528 73.5952 74.8696 72.9224 75.5348 72.5375L80.6442 69.5785C81.3094 69.193 82.4713 69.2414 83.2399 69.6855L86.2752 71.4408C87.0431 71.8849 87.127 72.557 86.4618 72.9426Z" fill="url(#paint30_linear_3_734)"/>
<path d="M86.4619 71.4987L81.3524 74.4578C80.6872 74.8433 79.5253 74.7948 78.7567 74.3508L75.7214 72.5954C74.9528 72.1514 74.8696 71.4786 75.5348 71.0937L80.6442 68.1347C81.3094 67.7498 82.4714 67.7976 83.2399 68.2417L86.2753 69.997C87.0432 70.4411 87.1271 71.1132 86.4619 71.4987Z" fill="#F7EAE8"/>
<path d="M71.0294 122.704C71.0294 124.23 68.7204 125.467 65.8723 125.467C63.0242 125.467 60.7152 124.23 60.7152 122.704C60.7152 122.06 61.1904 119.907 61.8798 119.438C62.8242 118.795 64.2264 119.942 65.8723 119.942C67.5772 119.942 68.9969 118.844 69.9353 119.527C70.5656 119.984 71.0294 122.092 71.0294 122.704Z" fill="url(#paint31_linear_3_734)"/>
<path d="M65.8723 123.284C68.4765 123.284 70.5877 122.153 70.5877 120.759C70.5877 119.364 68.4765 118.233 65.8723 118.233C63.268 118.233 61.1568 119.364 61.1568 120.759C61.1568 122.153 63.268 123.284 65.8723 123.284Z" fill="url(#paint32_linear_3_734)"/>
<path d="M65.8723 121.087C65.2306 121.087 64.7104 120.565 64.7104 119.922V106.813C64.7104 106.17 65.2306 105.648 65.8723 105.648C66.514 105.648 67.0342 106.169 67.0342 106.813V119.922C67.0349 120.565 66.5147 121.087 65.8723 121.087Z" fill="#2D363F"/>
<path d="M74.6373 102.855C74.6373 105.362 70.8435 107.394 66.1629 107.394C61.4824 107.394 57.6885 105.362 57.6885 102.855C57.6885 101.797 58.4692 98.2591 59.6022 97.4874C61.1541 96.4304 63.4578 98.3163 66.1629 98.3163C68.9647 98.3163 71.2966 96.5104 72.8397 97.6327C73.8741 98.3849 74.6373 101.849 74.6373 102.855Z" fill="url(#paint33_linear_3_734)"/>
<path d="M73.911 99.6572C73.911 101.949 70.4421 103.807 66.1629 103.807C61.8838 103.807 58.4148 101.949 58.4148 99.6572C58.4148 97.365 61.8838 95.5073 66.1629 95.5073C70.4421 95.5073 73.911 97.365 73.911 99.6572Z" fill="url(#paint34_linear_3_734)"/>
<path d="M66.1629 102.102C69.185 102.102 71.6349 100.79 71.6349 99.1714C71.6349 97.5528 69.185 96.2406 66.1629 96.2406C63.1409 96.2406 60.691 97.5528 60.691 99.1714C60.691 100.79 63.1409 102.102 66.1629 102.102Z" fill="url(#paint35_linear_3_734)"/>
<defs>
<linearGradient id="paint0_linear_3_734" x1="96.0154" y1="25.2843" x2="142.854" y2="123.962" gradientUnits="userSpaceOnUse">
<stop stop-color="#FFFFE9"/>
<stop offset="0.9946" stop-color="#79826A"/>
</linearGradient>
<linearGradient id="paint1_linear_3_734" x1="39.8647" y1="-14.0076" x2="215.569" y2="237.391" gradientUnits="userSpaceOnUse">
<stop stop-color="#FFFFE9"/>
<stop offset="0.9946" stop-color="#79826A"/>
</linearGradient>
<linearGradient id="paint2_linear_3_734" x1="56.2757" y1="20.4372" x2="104.4" y2="70.7216" gradientUnits="userSpaceOnUse">
<stop stop-color="#0A5975"/>
<stop offset="1" stop-color="#1BAACC"/>
</linearGradient>
<linearGradient id="paint3_linear_3_734" x1="62.8671" y1="31.9664" x2="102.569" y2="73.4498" gradientUnits="userSpaceOnUse">
<stop stop-color="#0A5975"/>
<stop offset="1" stop-color="#1BAACC"/>
</linearGradient>
<linearGradient id="paint4_linear_3_734" x1="129.85" y1="116.018" x2="56.5142" y2="80.3312" gradientUnits="userSpaceOnUse">
<stop stop-color="#0A5975"/>
<stop offset="1" stop-color="#1BAACC"/>
</linearGradient>
<linearGradient id="paint5_linear_3_734" x1="76.4893" y1="45.9585" x2="97.5816" y2="79.7777" gradientUnits="userSpaceOnUse">
<stop stop-color="#0A5975"/>
<stop offset="1" stop-color="#1BAACC"/>
</linearGradient>
<linearGradient id="paint6_linear_3_734" x1="112.626" y1="91.2282" x2="135.321" y2="114.835" gradientUnits="userSpaceOnUse">
<stop stop-color="#0A5975"/>
<stop offset="1" stop-color="#1BAACC"/>
</linearGradient>
<linearGradient id="paint7_linear_3_734" x1="116.482" y1="20.7464" x2="124.721" y2="33.4947" gradientUnits="userSpaceOnUse">
<stop stop-color="#E2E1CF"/>
<stop offset="0.9946" stop-color="#AFAE94"/>
</linearGradient>
<linearGradient id="paint8_linear_3_734" x1="64.3035" y1="125.7" x2="47.7971" y2="93.4361" gradientUnits="userSpaceOnUse">
<stop stop-color="#FFFFE9"/>
<stop offset="0.9946" stop-color="#79826A"/>
</linearGradient>
<linearGradient id="paint9_linear_3_734" x1="58.1041" y1="98.7712" x2="20.8853" y2="59.5763" gradientUnits="userSpaceOnUse">
<stop stop-color="#175672"/>
<stop offset="1" stop-color="#1BAACC"/>
</linearGradient>
<linearGradient id="paint10_linear_3_734" x1="89.596" y1="72.3231" x2="80.965" y2="65.0541" gradientUnits="userSpaceOnUse">
<stop stop-color="#175672"/>
<stop offset="1" stop-color="#1BAACC"/>
</linearGradient>
<linearGradient id="paint11_linear_3_734" x1="111.885" y1="31.1331" x2="130.636" y2="31.1331" gradientUnits="userSpaceOnUse">
<stop stop-color="#0A5975"/>
<stop offset="1" stop-color="#1BAACC"/>
</linearGradient>
<linearGradient id="paint12_linear_3_734" x1="125.662" y1="27.1879" x2="135.248" y2="27.1879" gradientUnits="userSpaceOnUse">
<stop stop-color="#0A5975"/>
<stop offset="1" stop-color="#1BAACC"/>
</linearGradient>
<linearGradient id="paint13_linear_3_734" x1="106.894" y1="36.9449" x2="151.68" y2="36.9449" gradientUnits="userSpaceOnUse">
<stop stop-color="#0A5975"/>
<stop offset="1" stop-color="#1BAACC"/>
</linearGradient>
<linearGradient id="paint14_linear_3_734" x1="102.303" y1="4.77752" x2="108.753" y2="19.9314" gradientUnits="userSpaceOnUse">
<stop stop-color="#FFE966"/>
<stop offset="1" stop-color="#AF2F02"/>
</linearGradient>
<linearGradient id="paint15_linear_3_734" x1="92.1915" y1="14.475" x2="121.484" y2="14.475" gradientUnits="userSpaceOnUse">
<stop stop-color="#FFE966"/>
<stop offset="1" stop-color="#CE8900"/>
</linearGradient>
<linearGradient id="paint16_linear_3_734" x1="126.222" y1="81.2859" x2="112.664" y2="57.6152" gradientUnits="userSpaceOnUse">
<stop stop-color="#FFFFE9"/>
<stop offset="0.9946" stop-color="#79826A"/>
</linearGradient>
<linearGradient id="paint17_linear_3_734" x1="120.962" y1="39.4106" x2="130.549" y2="39.4106" gradientUnits="userSpaceOnUse">
<stop stop-color="#FFFFE9"/>
<stop offset="0.9946" stop-color="#79826A"/>
</linearGradient>
<linearGradient id="paint18_linear_3_734" x1="116.396" y1="63.1089" x2="109.518" y2="51.101" gradientUnits="userSpaceOnUse">
<stop stop-color="#FFFFE9"/>
<stop offset="0.9946" stop-color="#79826A"/>
</linearGradient>
<linearGradient id="paint19_linear_3_734" x1="129.186" y1="34.6449" x2="138.772" y2="34.6449" gradientUnits="userSpaceOnUse">
<stop stop-color="#FFFFE9"/>
<stop offset="0.9946" stop-color="#79826A"/>
</linearGradient>
<linearGradient id="paint20_linear_3_734" x1="96.4378" y1="31.8749" x2="28.431" y2="69.0504" gradientUnits="userSpaceOnUse">
<stop stop-color="#FFFFE9"/>
<stop offset="0.9946" stop-color="#79826A"/>
</linearGradient>
<linearGradient id="paint21_linear_3_734" x1="85.4103" y1="46.5625" x2="31.2477" y2="76.1701" gradientUnits="userSpaceOnUse">
<stop stop-color="#FFFFE9"/>
<stop offset="0.9946" stop-color="#79826A"/>
</linearGradient>
<linearGradient id="paint22_linear_3_734" x1="33.0514" y1="45.6999" x2="36.5949" y2="50.8848" gradientUnits="userSpaceOnUse">
<stop stop-color="#FFFFE9"/>
<stop offset="0.9946" stop-color="#79826A"/>
</linearGradient>
<linearGradient id="paint23_linear_3_734" x1="45.04" y1="43.8642" x2="48.5833" y2="49.049" gradientUnits="userSpaceOnUse">
<stop stop-color="#FFFFE9"/>
<stop offset="0.9946" stop-color="#79826A"/>
</linearGradient>
<linearGradient id="paint24_linear_3_734" x1="20.4314" y1="100.193" x2="40.5935" y2="137.28" gradientUnits="userSpaceOnUse">
<stop stop-color="#FFFFE9"/>
<stop offset="0.9946" stop-color="#79826A"/>
</linearGradient>
<linearGradient id="paint25_linear_3_734" x1="-27.5869" y1="53.6582" x2="52.8382" y2="150.194" gradientUnits="userSpaceOnUse">
<stop stop-color="#FFFFE9"/>
<stop offset="0.9946" stop-color="#79826A"/>
</linearGradient>
<linearGradient id="paint26_linear_3_734" x1="97.812" y1="96.8855" x2="87.6096" y2="59.4976" gradientUnits="userSpaceOnUse">
<stop stop-color="#FFFFE9"/>
<stop offset="0.9946" stop-color="#79826A"/>
</linearGradient>
<linearGradient id="paint27_linear_3_734" x1="95.7611" y1="90.0158" x2="95.8033" y2="90.1252" gradientUnits="userSpaceOnUse">
<stop stop-color="#EFE1DA"/>
<stop offset="1" stop-color="#B28A7F"/>
</linearGradient>
<linearGradient id="paint28_linear_3_734" x1="93.7076" y1="90.7426" x2="95.3254" y2="94.9268" gradientUnits="userSpaceOnUse">
<stop stop-color="#FFFFE9"/>
<stop offset="0.9946" stop-color="#79826A"/>
</linearGradient>
<linearGradient id="paint29_linear_3_734" x1="94.9911" y1="95.3133" x2="84.7158" y2="73.9703" gradientUnits="userSpaceOnUse">
<stop stop-color="#FFFFE9"/>
<stop offset="0.9946" stop-color="#79826A"/>
</linearGradient>
<linearGradient id="paint30_linear_3_734" x1="79.4416" y1="65.6796" x2="81.6919" y2="75.8383" gradientUnits="userSpaceOnUse">
<stop stop-color="#EFE1DA"/>
<stop offset="1" stop-color="#B28A7F"/>
</linearGradient>
<linearGradient id="paint31_linear_3_734" x1="67.5554" y1="122.91" x2="58.9614" y2="118.143" gradientUnits="userSpaceOnUse">
<stop stop-color="#0A5975"/>
<stop offset="1" stop-color="#1BAACC"/>
</linearGradient>
<linearGradient id="paint32_linear_3_734" x1="62.7936" y1="117.541" x2="76.6783" y2="131.983" gradientUnits="userSpaceOnUse">
<stop stop-color="#FFFFE9"/>
<stop offset="0.9946" stop-color="#79826A"/>
</linearGradient>
<linearGradient id="paint33_linear_3_734" x1="75.5019" y1="106.855" x2="59.5609" y2="98.0131" gradientUnits="userSpaceOnUse">
<stop stop-color="#0A5975"/>
<stop offset="1" stop-color="#1BAACC"/>
</linearGradient>
<linearGradient id="paint34_linear_3_734" x1="61.1038" y1="94.3703" x2="83.919" y2="118.101" gradientUnits="userSpaceOnUse">
<stop stop-color="#FFFFE9"/>
<stop offset="0.9946" stop-color="#79826A"/>
</linearGradient>
<linearGradient id="paint35_linear_3_734" x1="78.2132" y1="109.109" x2="62.882" y2="96.5247" gradientUnits="userSpaceOnUse">
<stop stop-color="#0A5975"/>
<stop offset="1" stop-color="#1BAACC"/>
</linearGradient>
</defs>
</svg>
