<svg width="49" height="29" viewBox="0 0 49 29" fill="none" xmlns="http://www.w3.org/2000/svg">
<path d="M0.00619234 16.1161C0.598613 15.6693 1.75857 15.0416 2.42855 14.6548L6.59657 12.2433L22.0502 3.32121C23.3208 2.58565 26.6984 0.77497 27.7137 0C28.8054 0.698681 30.0778 1.41198 31.2158 2.02774C31.4919 2.00195 31.8987 1.9678 32.1658 1.953C33.0967 1.90141 35.1556 2.74404 35.6796 3.45508C36.3916 3.26354 36.4915 3.50085 36.9184 4.05367L42.1124 7.05847C42.7981 7.45408 44.6463 8.46718 45.1267 8.91983L45.1331 10.1056C45.7443 10.4346 48.1728 11.7171 48.4371 12.2061C48.4244 12.3926 48.4498 12.4753 48.2718 12.5921C44.9887 14.7465 41.3568 16.5691 38.0418 18.6624C38.871 19.7246 40.0272 20.82 40.7174 21.8816C40.4803 22.3704 40.3904 22.5892 40.0272 23.0092C39.7429 23.2292 39.5794 23.3806 39.237 23.4949C38.8628 23.6459 38.703 23.6672 38.3406 23.5364C37.7194 23.2399 36.477 21.2758 35.7186 20.8044C35.7068 20.8054 34.2555 21.4661 34.083 21.5467C31.2812 22.9708 28.3222 24.9327 25.5068 26.4129C25.0509 26.6529 23.4924 27.6273 23.0973 27.7385C23.1755 27.5851 23.2027 27.4915 23.3462 27.396C22.6723 27.4332 21.6324 28.4708 20.7978 28.5521L20.6081 28.5108C20.0895 28.1521 19.2641 27.7605 18.7057 27.4072C16.7114 26.1454 13.8679 24.8008 11.9905 23.4956C8.6472 21.6621 3.50023 18.5579 0.10464 16.5682C-0.0342241 16.4868 0.00455758 16.2844 0.00619234 16.1161Z" fill="#21C2DA"/>
<path d="M4.71875 15.0766C8.76661 12.8376 12.8169 10.3185 16.8667 8.06323C17.465 7.7301 20.6562 5.82041 21.0423 5.74585C20.5409 7.04122 20.37 7.65281 20.4709 9.04436C20.7111 9.66003 20.8196 9.8987 21.1579 10.4654C23.3561 12.965 25.7428 14.1564 29.1286 14.5351C29.8488 14.6158 30.8306 14.5147 31.5735 14.5364C31.8432 14.8188 32.053 15.0231 32.2692 15.3557C32.3264 15.679 32.2855 15.742 32.1611 16.0421L32.053 16.2065C32.4581 16.3525 33.7178 18.0069 34.1038 18.4595C32.9186 19.1547 29.1531 21.454 28.0588 21.8676C24.4505 23.3921 18.6109 22.394 15.2144 20.696C11.759 19.5015 8.00935 16.5655 4.71875 15.0766Z" fill="#EFEBF7"/>
<path d="M15.2144 20.6959C18.0388 20.9144 20.2582 21.1577 23.0445 20.1888C23.5586 20.0098 25.2723 19.1693 25.5884 19.1409C25.7001 19.637 25.642 20.1609 25.9344 20.5276L25.9717 20.5746C26.4348 21.1564 27.3476 21.6831 28.0587 21.8676C24.4504 23.392 18.6109 22.394 15.2144 20.6959Z" fill="#9EA4C6"/>
<path d="M20.4708 9.04443C20.711 9.6601 20.8194 9.89878 21.1577 10.4655C20.5981 10.6025 19.3303 10.3399 19.3419 9.59708C19.5364 9.31526 20.1376 9.12472 20.4708 9.04443Z" fill="#E7E3EF"/>
<path d="M32.053 16.2067C31.6498 16.1977 30.5863 15.5853 30.3701 15.2578C30.797 15.1263 31.5962 15.9068 32.1611 16.0423L32.053 16.2067Z" fill="#E7E3EF"/>
<path d="M16.7077 11.2629L16.8486 11.1272C17.3107 11.2287 17.7346 11.3938 18.1736 11.4937C18.3108 11.4711 18.3579 11.5108 18.4831 11.572L18.4712 11.6827C17.7787 12.326 16.3745 12.5385 16.1821 11.5192C16.3486 11.2753 16.3312 11.3463 16.7077 11.2629Z" fill="#E7E3EF"/>
<path d="M16.708 11.2629L16.8489 11.1272C17.311 11.2287 17.7349 11.3938 18.1739 11.4937C17.7618 11.6544 17.0574 11.522 16.708 11.2629Z" fill="#A8C7D2"/>
<path d="M22.9463 14.7051C23.7546 14.7246 25.8453 16.2621 26.6463 16.6626C27.1776 16.9287 28.9286 17.8027 29.1856 18.2437C28.5753 18.1879 23.7128 15.2169 22.9463 14.7051Z" fill="#BEB6D2"/>
<path d="M19.1626 12.4373C19.5642 12.4981 22.6079 14.2874 23.0084 14.6301C22.4844 14.5554 19.4044 12.8666 19.1626 12.4373Z" fill="#BEB6D2"/>
<path d="M25.2517 3.23926C25.9192 3.30165 26.4841 3.36913 27.1453 3.47276C28.1543 3.29584 30.0643 4.41783 30.4984 4.32556C31.0142 4.71118 33.1267 5.79385 33.3329 6.03716C33.3692 6.77335 35.9049 7.89934 35.113 10.6335L35.122 10.753C34.9749 11.1546 34.4854 12.5629 34.281 12.8291C34.0313 13.225 33.7579 13.5653 33.3347 13.7881C33.282 13.8544 33.1812 13.9587 33.1703 14.0271L33.5073 14.3245C33.1176 14.6231 32.5872 14.9983 32.2694 15.3557C32.0532 15.0231 31.8434 14.8188 31.5737 14.5363C30.8308 14.5147 29.849 14.6158 29.1288 14.535C25.743 14.1563 23.3563 12.9649 21.158 10.4654C20.8197 9.89866 20.7113 9.65998 20.4711 9.04431C20.3702 7.65276 20.5411 7.04118 21.0425 5.74581C21.4882 3.90969 23.7304 3.54977 25.2517 3.23926Z" fill="#F7F4FB"/>
<path d="M25.2517 3.23926C25.9192 3.30165 26.4841 3.36913 27.1453 3.47276L27.059 3.6267L26.8374 3.67801C27.0227 3.80897 27.1008 3.83922 27.3106 3.92795L27.2207 3.97182L27.5095 4.21422C27.376 4.84951 27.3024 5.06493 26.9891 5.65708C26.1935 5.51485 25.2372 5.45809 24.4234 5.41568C23.4171 5.65654 22.6515 5.80639 21.8141 6.45648C21.2566 7.52307 23.6006 9.53147 24.398 10.1193C24.5705 10.4044 26.0772 11.6848 26.4142 11.8912C27.6975 12.6755 29.7073 13.0026 31.1977 12.91C32.0914 12.6591 33.3374 12.1456 34.0712 12.8018C34.1593 12.7981 34.1993 12.7898 34.281 12.8291C34.0313 13.225 33.7579 13.5653 33.3347 13.7881C33.282 13.8544 33.1812 13.9587 33.1703 14.0271L33.5073 14.3245C33.1176 14.6231 32.5872 14.9983 32.2694 15.3557C32.0532 15.0231 31.8434 14.8188 31.5737 14.5363C30.8308 14.5147 29.849 14.6158 29.1288 14.535C25.743 14.1563 23.3563 12.9649 21.158 10.4654C20.8197 9.89866 20.7113 9.65998 20.4711 9.04431C20.3702 7.65276 20.5411 7.04118 21.0425 5.74581C21.4882 3.90969 23.7304 3.54977 25.2517 3.23926Z" fill="#604A8C"/>
<path d="M24.8742 3.98902C25.7307 3.91681 26.3582 3.87813 27.2201 3.97185L27.5089 4.21425C27.3754 4.84954 27.3019 5.06496 26.9885 5.65711C26.1929 5.51489 25.2366 5.45813 24.4229 5.41572C24.5164 5.22654 24.8125 4.2167 24.8742 3.98902Z" fill="#BEB6D2"/>
<path d="M21.8141 6.45666C21.7942 4.9811 23.5252 3.85983 24.8748 3.98916C24.813 4.21685 24.517 5.22668 24.4234 5.41586C23.4171 5.65672 22.6515 5.80657 21.8141 6.45666Z" fill="#9979D2"/>
<path d="M33.17 14.0273C32.7667 14.0657 31.7722 13.747 31.6396 13.3413C31.7877 13.1166 31.9766 13.0899 32.2318 13.0103C32.5578 13.2219 33.1128 13.727 33.3344 13.7883C33.2817 13.8546 33.1809 13.9589 33.17 14.0273Z" fill="#696185"/>
<path d="M27.1453 3.47281C28.1543 3.2959 30.0642 4.41789 30.4984 4.32561C31.0142 4.71124 33.1267 5.79391 33.3329 6.03721C33.3692 6.7734 35.9049 7.89939 35.1129 10.6335L35.122 10.7531C34.9749 11.1547 34.4854 12.5629 34.281 12.8291C34.1993 12.7899 34.1593 12.7982 34.0712 12.8019C33.3374 12.1457 32.0913 12.6592 31.1977 12.91C29.7073 13.0027 27.6974 12.6755 26.4142 11.8912C26.0772 11.6849 24.5705 10.4045 24.3979 10.1193C27.0681 11.6871 30.5256 12.8187 33.5726 11.402C34.2547 11.0849 34.0431 10.3387 33.7161 9.82324C32.5445 7.97759 30.2786 6.48069 28.1733 5.96955L27.8582 5.89935L26.9891 5.65713C27.3024 5.06498 27.3759 4.84956 27.5095 4.21427L27.2206 3.97187L27.3106 3.928C27.1008 3.83927 27.0227 3.80903 26.8374 3.67806L27.059 3.62676L27.1453 3.47281Z" fill="#816AAB"/>
<path d="M27.5092 4.21436C27.7099 4.22625 28.2139 4.30999 28.3556 4.30472C28.0468 4.82748 27.8988 5.29103 27.8579 5.89943L26.9888 5.65721C27.3021 5.06507 27.3757 4.84964 27.5092 4.21436Z" fill="#9979D2"/>
<path d="M28.3556 4.30469C28.6635 4.43801 28.629 4.36317 28.7216 4.59186C28.5064 5.13587 28.3329 5.40188 28.1731 5.9696L27.8579 5.8994C27.8988 5.29099 28.0468 4.82745 28.3556 4.30469Z" fill="#BEB6D2"/>
<path d="M28.8916 6.87378C29.1886 6.89694 30.3011 7.62849 30.431 7.942C29.8625 7.91103 29.0587 7.45285 28.8916 6.87378Z" fill="#E7E3EF"/>
<path d="M25.6465 8.70581C25.9698 8.74132 27.1314 9.44509 27.4438 9.66052C26.8371 9.83335 25.9153 9.2234 25.6465 8.70581Z" fill="#E7E3EF"/>
<path d="M33.3325 6.03735C35.0826 6.98161 36.7737 8.01461 38.4974 9.00091C39.3085 9.4651 40.5019 10.2162 41.3392 10.5547C41.7043 10.3861 42.0858 10.2215 42.4254 10.01C43.4054 10.7582 44.329 11.3106 45.4761 11.7772C45.2209 11.9874 44.6051 12.4633 44.4371 12.7018C44.4598 12.9875 44.4553 13.0206 44.3018 13.2617C44.0402 13.4479 43.8095 13.4653 43.4962 13.4138C43.3799 13.3938 43.2637 13.3701 43.1483 13.3428C42.3074 13.6792 40.7462 14.6164 39.9133 15.1179C38.848 15.7586 37.6937 16.3717 36.6465 17.0019C36.0898 16.6309 35.3433 15.2802 34.7793 14.7983C34.2007 14.3042 34.2616 14.3148 33.5069 14.3247L33.1699 14.0273C33.1808 13.9589 33.2816 13.8546 33.3343 13.7883C33.7575 13.5655 34.0309 13.2251 34.2807 12.8293C34.485 12.5631 34.9745 11.1548 35.1216 10.7532L35.1126 10.6337C35.9045 7.89953 33.3688 6.77354 33.3325 6.03735Z" fill="#F9FAFA"/>
<path d="M43.1483 13.3426C42.8704 12.8336 42.4971 12.0521 42.9448 11.5332C43.8231 11.2055 44.16 12.1365 44.437 12.7017C44.4597 12.9874 44.4552 13.0205 44.3017 13.2615C44.0401 13.4478 43.8095 13.4652 43.4961 13.4137C43.3799 13.3937 43.2636 13.37 43.1483 13.3426Z" fill="#649CEB"/>
<path d="M35.1128 10.6335C35.6859 10.6601 38.3033 12.168 38.5821 12.6939C37.4251 12.0093 36.2753 11.4169 35.1219 10.7531L35.1128 10.6335Z" fill="#E7E3EF"/>
<path d="M33.5068 14.3246C34.2615 14.3147 34.2006 14.3041 34.7792 14.7982C35.3432 15.2801 36.0897 16.6308 36.6464 17.0018C36.9152 17.4345 37.6636 18.2694 38.0414 18.6623C38.8706 19.7245 40.0267 20.8199 40.717 21.8815C40.4799 22.3703 40.39 22.5891 40.0268 23.0091C39.7425 23.2291 39.579 23.3805 39.2366 23.4948C38.8624 23.6458 38.7026 23.6671 38.3402 23.5363C37.719 23.2398 36.4766 21.2757 35.7182 20.8043C35.7064 20.8053 34.2551 21.466 34.0826 21.5465C33.7792 21.5069 33.5703 21.4429 33.2779 21.36C33.9291 20.9442 34.7655 20.5079 35.4521 20.1272C35.0961 19.5706 34.5839 18.911 34.1035 18.4595C33.7175 18.0069 32.4578 16.3525 32.0527 16.2066L32.1608 16.0422C32.2852 15.742 32.3261 15.679 32.2689 15.3558C32.5868 14.9984 33.1171 14.6232 33.5068 14.3246Z" fill="#8183A0"/>
<path d="M35.4521 20.1272C36.1069 20.5698 37.1068 22.1826 37.8061 22.7532L38.0495 23.0118L38.3402 23.5363C37.7189 23.2398 36.4765 21.2757 35.7182 20.8043C35.7064 20.8053 34.2551 21.466 34.0825 21.5465C33.7792 21.5069 33.5703 21.4429 33.2778 21.36C33.929 20.9442 34.7655 20.5079 35.4521 20.1272Z" fill="#D0CDD2"/>
<path d="M37.8066 22.7531L38.0918 22.8123C38.5341 22.5154 39.6775 22.5239 40.0272 23.009C39.7429 23.229 39.5795 23.3804 39.2371 23.4947C38.8629 23.6457 38.703 23.667 38.3407 23.5362L38.05 23.0118L37.8066 22.7531Z" fill="#696185"/>
<path d="M38.0498 23.012C38.6492 23.0253 38.7964 23.0847 39.2368 23.4949C38.8627 23.6459 38.7028 23.6672 38.3404 23.5365L38.0498 23.012Z" fill="#604A8C"/>
<path d="M31.0748 3.49986C31.755 3.36953 31.8758 2.95121 32.734 3.59213C34.9237 5.22698 40.9951 7.79129 42.7061 9.53504L42.7379 9.70706C42.6362 9.83666 42.5744 9.94764 42.4255 10.0099C42.0858 10.2215 41.7044 10.386 41.3393 10.5546C40.5019 10.2161 39.3085 9.46503 38.4975 9.00084C36.7737 8.01453 35.0827 6.98154 33.3325 6.03728C33.1264 5.79397 31.0139 4.7113 30.498 4.32568C30.6461 3.8585 30.7024 3.7843 31.0748 3.49986Z" fill="#017BAA"/>
<path d="M26.5136 25.2185C27.0004 25.0013 28.2773 24.2207 28.7896 23.9266L33.2779 21.3601C33.5703 21.443 33.7792 21.5071 34.0826 21.5467C31.2808 22.9708 28.3218 24.9327 25.5064 26.4129C25.0505 26.6529 23.492 27.6273 23.0969 27.7385C23.175 27.5851 23.2023 27.4915 23.3458 27.396C22.6719 27.4332 21.632 28.4708 20.7974 28.5521C21.1814 28.2221 22.146 27.7348 22.6011 27.4658C23.8308 26.7384 25.3338 26.0039 26.5136 25.2185Z" fill="#D0CDD2"/>
<path d="M27.907 1.71826C29.0677 2.45954 30.0586 2.88213 31.0749 3.4998C30.7025 3.78424 30.6462 3.85844 30.4982 4.32562C30.064 4.41789 28.1541 3.2959 27.1451 3.47282C26.4839 3.3692 25.919 3.30171 25.2515 3.23932L27.907 1.71826Z" fill="#F9FAFA"/>
<path d="M0.00619234 16.116C1.51408 17.2915 11.5213 22.6412 11.97 23.2647L11.9905 23.4955C8.6472 21.662 3.50023 18.5578 0.10464 16.5681C-0.0342241 16.4867 0.00455758 16.2843 0.00619234 16.116Z" fill="#3BA6D0"/>
<path d="M20.6079 28.5106C20.9632 27.8023 25.3858 25.4185 26.3639 25.134L26.5138 25.2183C25.334 26.0037 23.8309 26.7382 22.6012 27.4656C22.1462 27.7346 21.1816 28.2219 20.7975 28.5519L20.6079 28.5106Z" fill="#3BA6D0"/>
<path d="M35.6797 3.45489C36.3917 3.26335 36.4916 3.50066 36.9185 4.05348C36.7795 4.31468 36.7614 4.357 36.5216 4.53483C35.904 4.57979 35.8023 3.9524 35.6797 3.45489Z" fill="#FE745D"/>
<path d="M7.67114 17.4923C8.68279 17.4516 8.87279 18.1054 8.65473 18.9395C7.74789 18.9476 7.34864 18.3161 7.67114 17.4923Z" fill="#F84CFD"/>
</svg>
