<svg width="98" height="121" viewBox="0 0 98 121" fill="none" xmlns="http://www.w3.org/2000/svg">
<path d="M79.8399 0C80.888 0.590133 83.701 2.12611 84.4722 2.83676C84.3822 3.53068 84.4365 5.57644 84.4401 6.36299L84.4513 12.8534L84.4525 23.1001C84.4539 25.199 84.3978 27.8861 84.6 29.9442C82.1224 31.7071 78.7115 33.1908 76.3629 34.84C78.291 35.8926 92.182 43.7655 92.7895 44.5371C93.3897 45.6929 94.4136 48.735 94.8843 50.1332C95.7098 52.5847 96.958 55.5034 97.6707 57.9036C95.8967 59.2179 91.0108 61.8808 88.8439 63.1401L71.3372 73.3096C70.4339 73.8323 66.0648 76.2097 65.665 76.7254C64.6558 77.0872 62.8122 78.4998 62.1777 78.4716L61.9729 78.338C61.223 77.8658 59.4259 76.6971 58.6168 76.5039C58.1773 76.0001 56.4979 75.1325 55.8601 74.7605C47.9613 70.1538 39.9675 65.6872 32.1004 61.0279C32.0874 59.9524 32.1043 59.091 31.9077 58.0316C31.9947 57.9449 32.0425 57.6934 32.0825 57.5536C32.2679 57.094 32.1831 53.5969 32.0282 52.9186C31.9826 52.7187 31.4524 52.6819 31.1836 52.6289C31.6104 52.5855 31.7811 52.6471 32.0546 52.4096L31.9923 52.126C32.4223 51.5299 31.9167 50.8349 32.442 50.0619C32.6811 49.7667 32.7267 49.5604 32.6725 49.2108C33.2624 48.9639 34.0301 49.3415 34.7109 48.5867C35.4696 48.5808 39.1681 46.0178 40.4341 45.5663L40.3934 29.2385C40.3897 28.1918 40.2523 23.324 40.4343 22.7318C40.873 22.6574 51.0797 16.5618 52.4451 15.7696L79.8399 0Z" fill="#D9E4F8"/>
<path d="M79.8395 0C80.8876 0.590133 83.7006 2.12611 84.4718 2.83676C84.3819 3.53068 84.4362 5.57644 84.4397 6.36299L84.4509 12.8534L84.4522 23.1001C84.4535 25.199 84.3975 27.8861 84.5997 29.9442C82.1221 31.7071 78.7112 33.1908 76.3625 34.84C75.5202 35.2044 74.0651 36.1056 73.2288 36.5918L67.776 39.7531C67.5264 39.8976 66.3413 40.6406 66.1703 40.724C65.3613 41.1627 62.3659 42.6595 62.0248 43.293L61.8835 43.5303C60.9084 43.3718 59.4894 44.6069 58.5709 45.0988C54.9997 47.0113 51.5479 49.173 48.0143 51.1567C47.5195 51.4351 45.4437 52.6897 45.0644 52.728C44.2131 52.5462 41.2888 50.648 40.4349 50.1044C40.3747 48.6739 40.4245 47.0133 40.4338 45.5663L40.393 29.2385C40.3893 28.1918 40.2519 23.324 40.4339 22.7318C40.8726 22.6574 51.0794 16.5618 52.4448 15.7696L79.8395 0Z" fill="#EDF1FD"/>
<path d="M79.8397 0C80.8878 0.590133 83.7008 2.12611 84.472 2.83676C75.2002 7.83668 65.5671 13.6208 56.4098 18.9246L48.9608 23.2233C47.7911 23.8977 46.2281 24.8721 45.0757 25.4484C45.0754 26.2072 45.1121 27.5335 45.0481 28.2446C44.9444 27.5332 44.9632 26.2336 44.9552 25.4656C43.7756 24.7735 41.4247 23.5018 40.4341 22.7318C40.8728 22.6574 51.0795 16.5618 52.445 15.7696L79.8397 0Z" fill="#D9E4F8"/>
<path d="M40.4339 22.7317C41.4246 23.5017 43.7755 24.7734 44.9551 25.4655C44.963 26.2335 44.9443 27.5331 45.0479 28.2445L45.0644 52.7279C44.2131 52.5461 41.2888 50.6479 40.4349 50.1043C40.3747 48.6738 40.4245 47.0132 40.4338 45.5662L40.393 29.2384C40.3893 28.1917 40.2519 23.324 40.4339 22.7317Z" fill="#CBD9EE"/>
<path d="M72.6443 11.6671C73.049 12.2655 72.8435 31.9657 72.8528 34.7379C64.164 39.5629 55.591 44.8385 46.8991 49.6567C46.9755 42.0447 46.8649 34.1222 46.834 26.4936C49.4817 25.1198 52.3971 23.3042 55.0167 21.8164C60.9037 18.4727 66.7374 14.9773 72.6443 11.6671Z" fill="#44484C"/>
<path d="M60.4868 36.214C60.5916 36.5722 60.6998 36.9139 60.77 37.2809C60.5971 37.8716 60.4237 38.6999 60.2765 39.3178C59.9459 39.6112 59.8905 39.6604 59.4879 39.8548C59.076 39.8184 58.9135 39.7361 58.54 39.5868C57.754 39.8621 57.9955 40.6306 57.2342 41.0687C55.1006 42.2967 52.7755 43.6546 50.6315 44.8297C50.3919 43.8266 49.9125 42.5046 49.5784 41.4991C49.5601 43.0693 50.0455 45.5677 48.2421 46.1797L48.063 46.0508C48.2616 45.5338 48.3571 45.5958 48.8847 45.2071C48.9726 43.1277 49.2917 41.3545 49.592 39.3137C50.1052 40.5008 50.2755 42.9567 51.2596 43.7699C52.2372 43.9085 52.2376 42.8634 53.0242 42.3549C53.01 42.364 53.7268 42.434 53.7468 42.4259C54.9208 41.9474 56.4586 40.961 57.4736 40.3027C57.5093 40.1516 57.5466 40.001 57.5857 39.8507C57.7416 39.2557 57.7755 39.1403 58.2455 38.8688C58.7373 38.8476 59.2723 39.1871 59.7261 39.42C59.9519 38.346 60.2454 37.2872 60.4868 36.214Z" fill="#69AC57"/>
<path d="M53.3858 37.5276L53.4499 37.4819C54.1605 36.9688 54.4958 36.3332 55.3051 36.4401C55.6242 36.7317 55.6295 36.8038 55.7177 37.2324C55.6455 37.6114 55.6421 37.7131 55.4269 38.0288C55.056 38.9306 54.1414 40.4312 53.6304 41.3256C53.1285 41.056 52.2413 40.6234 51.8518 40.2513C50.8568 39.3007 52.2004 37.4758 53.3858 37.5276Z" fill="#FD5B5C"/>
<path d="M53.8254 37.856C54.3905 37.7737 54.945 37.6368 55.4272 38.0288C53.8048 38.4096 54.2115 38.7527 53.8736 39.8533C53.5177 39.9085 52.641 39.6593 52.3774 39.4292C52.6044 38.7643 53.4469 38.6282 53.8254 37.856Z" fill="#FF9B9F"/>
<path d="M52.1717 27.6076C52.3467 27.4213 55.1007 25.78 55.391 25.7723C56.2738 26.7071 54.2067 29.8013 53.679 30.7887L52.0678 29.9488C51.1848 29.1806 51.4384 28.3428 52.1717 27.6076Z" fill="#FD5B5C"/>
<path d="M53.8128 27.4461C54.1956 27.3614 54.4795 27.2544 54.8465 27.364C54.7554 27.7071 54.451 27.841 54.2292 28.164C53.8788 28.6744 54.0668 29.3379 53.6103 29.6141C53.2522 29.4626 53.1911 29.3767 52.9181 29.0947C52.5056 28.9953 52.5709 29.081 52.3931 28.8143C52.6301 28.305 53.3949 28.072 53.8128 27.4461Z" fill="#FF9B9F"/>
<path d="M56.6891 30.7491C58.6891 30.3794 58.3151 26.69 59.1633 24.7723C59.361 26.9016 59.1752 28.5261 58.2283 30.5015C57.6668 30.8685 57.2934 31.1611 56.6303 31.3028C56.4649 31.3064 56.0332 31.3041 55.8932 31.3257C54.6905 33.2641 52.422 33.7075 50.5552 34.3707C49.8805 34.6103 49.3629 36.2354 48.0002 36.1457L47.9004 35.9532C48.4279 35.5403 50.7927 33.4005 50.9461 33.4261C52.2649 33.645 54.4785 32.5615 55.5391 31.1784C55.5126 30.7869 55.7939 30.425 56.1075 30.2266C56.5409 30.3495 56.4006 30.2827 56.6891 30.7491Z" fill="#BDA465"/>
<path d="M61.5742 36.9909C61.6614 37.4777 61.6138 37.321 62.0408 37.7053C63.1263 37.7056 62.8905 36.1596 63.646 35.8655C64.7979 36.1402 65.6411 36.068 66.5521 35.2812C68.9433 33.216 68.4467 33.0412 71.6683 32.4198L71.8733 32.5329C71.6651 33.3645 69.1353 33.4091 68.9223 33.6469C67.4051 35.3392 66.1102 36.6136 63.7334 36.7988C63.2942 36.8329 62.6635 38.4822 61.674 38.3939C61.292 37.964 61.3949 37.9956 61.2562 37.3589L60.7697 37.281C60.6994 36.9139 60.5913 36.5722 60.4864 36.214C60.3448 35.5224 60.4972 34.6971 60.6073 33.9922C61.0977 35.0639 61.4414 35.7896 61.5742 36.9909Z" fill="#69AC57"/>
<path d="M69.9081 18.0511L70.0567 18.2048C70.5715 19.6335 69.3372 22.631 68.8853 24.3662C68.0606 24.9166 67.4919 25.0067 66.6772 25.4274C65.2271 26.1761 62.3941 29.3515 60.8979 27.5411C61.0859 27.1941 61.1655 26.9578 61.5336 26.8033C61.8795 26.9403 61.8994 27.1546 62.1257 27.5519L62.3383 27.5955C63.4151 27.0479 64.883 26.2513 65.8197 25.4655C65.9058 25.3932 66.3478 24.6132 66.5935 24.3145L66.7114 24.3528C68.9005 25.0531 68.7481 22.748 69.1651 21.2121C69.4425 20.1909 69.649 19.0905 69.9081 18.0511Z" fill="#BDA465"/>
<path d="M67.339 18.3403C67.7316 18.3502 67.5758 18.312 67.9409 18.5346C68.5995 19.7111 67.8162 21.2202 66.9575 22.0762C66.0702 21.7124 66.0245 20.5344 66.2772 19.7395C66.555 18.8659 66.5292 18.7771 67.339 18.3403Z" fill="#B4B4BD"/>
<path d="M67.1156 18.8463C67.2498 18.9314 67.3206 19.021 67.4327 19.1352C67.578 19.9243 67.4249 20.6506 67.2559 21.4292C66.5195 20.9039 66.9561 19.6222 67.1156 18.8463Z" fill="#1A1D1E"/>
<path d="M66.4448 30.5695C66.8571 30.2645 67.1888 29.9359 67.688 29.95C68.5579 30.4171 68.2288 32.1228 67.8827 32.8444C67.6672 32.9193 67.749 32.9212 67.5381 32.8967L67.2291 32.8435L67.3434 33.1457C67.0718 33.453 67.2179 33.3792 66.7918 33.4117C66.3569 32.9518 66.3673 32.537 66.3845 31.898C66.3986 31.4549 66.4188 31.0121 66.4448 30.5695Z" fill="#B4B4BD"/>
<path d="M67.2295 32.8436C66.9051 32.3524 66.9862 31.3261 67.0694 30.7515L67.2371 30.514L67.4011 30.5147C67.7139 31.2645 67.4771 32.1142 67.5385 32.8968L67.2295 32.8436Z" fill="#1A1D1E"/>
<path d="M65.0776 31.1715C66.5107 31.2579 65.8087 32.946 65.5861 33.8832C65.2379 34.2372 64.6775 34.9645 64.1821 34.7799L64.1157 34.434C64.5675 34.1252 64.873 34.1144 65.2487 33.6314C65.1245 33.053 64.4156 33.4633 63.7993 32.846C63.8342 32.2356 64.6206 31.5294 65.0776 31.1715Z" fill="#CBD9EE"/>
<path d="M65.6239 19.354C66.4204 19.5796 64.7721 22.7055 64.4225 23.1391L64.228 23.103C64.2359 22.8539 64.3336 22.6689 64.4271 22.4362C64.6221 21.791 64.9933 21.0642 65.1066 20.5779L64.9986 20.5619L65.1371 20.6765L65.122 20.547C64.7606 20.5678 64.2033 20.6717 63.9678 20.5019C64.2758 20.0623 65.1374 19.6212 65.6239 19.354Z" fill="#B4B4BD"/>
<path d="M82.3681 6.03503L82.6477 6.09423C82.7478 6.53871 82.7128 7.45117 82.7041 7.93365C82.5772 14.9317 82.9389 21.9706 82.7501 28.9604C80.8508 30.2978 78.1047 31.6214 76.0338 32.8814C75.794 32.9926 75.7842 32.9722 75.5292 32.9418C75.3292 32.5626 75.4163 12.3304 75.4167 10.1479C76.8988 9.03355 80.5845 7.10035 82.3681 6.03503Z" fill="white"/>
<path d="M79.1411 26.1182C79.7818 26.0505 79.9193 26.1196 80.3288 26.5587C80.6817 27.6737 79.6899 28.8489 78.8491 29.4633C78.2246 29.3971 78.4224 29.493 77.9175 29.1394C77.3017 28.1138 78.4075 26.771 79.1411 26.1182Z" fill="#3CCC8D"/>
<path d="M79.479 21.0463C81.6154 21.4955 79.7302 23.8856 78.6568 24.5778C76.5642 23.9119 78.3347 21.749 79.479 21.0463Z" fill="#FD5B5C"/>
<path d="M81.4462 8.64001C81.5083 8.65628 81.5958 8.73626 81.6558 8.78179C81.4515 9.29654 77.4916 11.3863 76.614 11.9163L76.4487 11.7515C76.7285 11.1793 80.5919 9.13193 81.4462 8.64001Z" fill="#D9E4F8"/>
<path d="M81.3592 14.8008L81.6153 14.8686L81.5684 15.0696C80.4578 15.8806 77.9552 17.2418 76.6916 17.9193C76.5496 17.9318 76.5676 17.9043 76.4014 17.8279C76.6453 17.3535 80.5718 15.2697 81.3592 14.8008Z" fill="#D9E4F8"/>
<path d="M81.524 16.7146L81.6623 16.9245C81.3669 17.4828 77.4701 19.5186 76.5803 20.0464L76.457 19.8759C76.673 19.3791 80.6726 17.2336 81.524 16.7146Z" fill="#D9E4F8"/>
<path d="M81.3964 12.7384L81.628 12.8448C81.3335 13.4091 77.5552 15.4281 76.7076 15.9106L76.4707 15.838C76.6622 15.2912 80.5631 13.2322 81.3964 12.7384Z" fill="#D9E4F8"/>
<path d="M81.3899 10.7042C81.533 10.7314 81.4976 10.7361 81.6286 10.8374C81.377 11.3516 77.5064 13.4046 76.7063 13.8541L76.4932 13.7945L76.5384 13.5745C77.5831 12.805 80.1298 11.4491 81.3899 10.7042Z" fill="#D9E4F8"/>
<path d="M92.7892 44.537C93.3894 45.6928 94.4133 48.7349 94.884 50.1332C95.7095 52.5847 96.9577 55.5033 97.6705 57.9036C95.8964 59.2178 91.0105 61.8807 88.8436 63.14L71.3369 73.3096C70.4336 73.8323 66.0645 76.2097 65.6647 76.7254C64.6555 77.0871 62.812 78.4997 62.1774 78.4715L61.9726 78.338C61.9726 78.3173 61.9715 78.2967 61.9726 78.2762C62.047 76.9196 58.1995 66.8711 57.4189 64.9751C57.7766 64.5914 62.0169 62.2191 62.715 61.815L77.5349 53.2428C79.7541 51.9544 91.3108 44.8696 92.7892 44.537Z" fill="#EDF1FD"/>
<path d="M91.6492 47.0585C91.6716 47.0674 91.6954 47.0732 91.7166 47.085C92.2228 47.3684 95.0665 55.9641 95.5069 57.2027C91.9741 59.0387 87.6257 61.7406 84.1339 63.7734L63.4592 75.7972C63.0791 75.5012 60.1705 66.982 59.5825 65.669C63.197 63.7818 67.7006 60.9933 71.342 58.879L91.6492 47.0585Z" fill="#44484C"/>
<path d="M71.6712 59.9263L71.781 59.9394C72.2052 60.2164 74.1595 66.6367 74.5877 67.6972C71.2747 69.7062 67.5301 71.828 64.1575 73.7412L63.9448 73.7483C63.5688 73.3876 61.6153 66.8847 61.3223 65.9042C64.7795 64.0504 68.2264 61.8544 71.6712 59.9263Z" fill="#56B3FE"/>
<path d="M90.3718 48.9818L90.6158 49.0633C91.2166 50.4195 91.5947 52.1046 92.1907 53.5622L76.0465 62.9338L75.8919 62.8976C75.6309 62.5472 74.5192 58.9131 74.2964 58.2415C79.3021 55.7054 85.3215 51.825 90.3718 48.9818Z" fill="#FEBC24"/>
<path d="M81.9739 61.2039C82.1899 61.2413 82.3838 61.3151 82.5916 61.3847C83.2456 62.1394 83.0053 62.5326 82.4758 63.271C81.2152 62.8248 81.2111 62.1643 81.9739 61.2039Z" fill="#FEBC24"/>
<path d="M91.6784 55.6564C91.8238 55.7135 92.0697 55.8419 92.2196 55.9146C92.8206 56.7723 92.5593 57.1775 91.8503 57.8079C90.8823 57.1396 90.7662 56.4652 91.6784 55.6564Z" fill="white"/>
<path d="M86.6302 58.4824L87.2379 58.5944C87.9939 59.2378 87.8385 59.6477 87.3474 60.4214C86.6957 60.3743 86.5665 60.2077 86.3066 59.6693C86.2811 59.089 86.3522 58.9965 86.6302 58.4824Z" fill="#FD5B5C"/>
<path d="M77.2145 63.9467L77.7112 64.0931C78.4406 64.7294 78.2188 65.3015 77.7432 66.0017C76.4792 65.612 76.5131 64.9055 77.2145 63.9467Z" fill="#7DE957"/>
<path d="M31.9923 52.1261C32.4223 51.53 31.9167 50.8349 32.442 50.0619C33.2006 51.1973 38.2422 53.7985 39.6891 54.6295L52.4146 61.9616C53.4094 62.5313 56.7497 64.3401 57.4192 64.9752C58.1998 66.8712 62.0473 76.9197 61.9729 78.2763C61.9718 78.2968 61.9729 78.3174 61.9729 78.3381C61.223 77.8658 59.4259 76.6972 58.6168 76.504C58.1773 76.0002 56.4979 75.1326 55.8601 74.7605C47.9613 70.1538 39.9675 65.6872 32.1004 61.028C32.0874 59.9524 32.1043 59.0911 31.9077 58.0316C31.9947 57.945 32.0425 57.6934 32.0825 57.5537C32.2679 57.094 32.1831 53.5969 32.0282 52.9186C31.9826 52.7187 31.4524 52.682 31.1836 52.6289C31.6104 52.5856 31.7811 52.6471 32.0546 52.4096L31.9923 52.1261Z" fill="#CBD9EE"/>
<path d="M66.1703 40.7239C66.12 42.0967 66.476 48.8361 65.7859 49.5324C65.3443 49.978 64.5231 50.0452 63.9344 50.0045C63.4246 49.9691 62.7737 49.8675 62.4126 49.4665C61.5986 48.5626 62.3674 44.7057 62.0249 43.293C62.366 42.6594 65.3614 41.1626 66.1703 40.7239Z" fill="#1A1D1E"/>
<path d="M58.6167 76.5039C59.4258 76.6971 61.223 77.8658 61.9729 78.338L62.1777 78.4716C62.8122 78.4997 64.6557 77.0871 65.665 76.7254C65.5736 78.5901 65.3963 93.0718 65.751 93.575C66.6496 93.9346 66.953 94.0961 67.7723 94.6107C68.199 95.0338 68.5888 95.3838 68.9021 95.9025C69.2221 97.0802 69.1577 98.4856 69.1873 99.7312L69.1003 100.321C68.12 100.647 67.4944 100.179 66.5424 101.309C66.6132 102.839 66.3174 104.527 67.0332 105.858C64.1991 107.32 61.3524 107.155 58.3277 106.536C58.8206 105.105 58.5192 103.672 58.7176 102.119C58.4696 101.531 57.4499 101.085 56.8745 100.777C56.4464 101.099 55.6529 101.521 55.1646 101.8C55.2791 100.767 55.2246 99.5353 55.2053 98.4799C55.1933 96.9265 55.1326 96.3551 56.0379 95.0856C56.4121 94.7674 56.9751 94.3718 57.3799 94.0682L58.6162 93.597C58.3984 88.4831 58.5959 81.6898 58.6167 76.5039Z" fill="#44484C"/>
<path d="M65.751 93.5751C66.6496 93.9346 66.953 94.0961 67.7723 94.6107C68.199 95.0339 68.5888 95.3839 68.9021 95.9026C69.2221 97.0803 69.1577 98.4856 69.1873 99.7312L69.1003 100.321C68.12 100.647 67.4944 100.179 66.5424 101.309C66.6132 102.839 66.3174 104.527 67.0332 105.858C64.1991 107.32 61.3524 107.155 58.3277 106.536C58.8206 105.105 58.5192 103.672 58.7176 102.119C58.4696 101.531 57.4499 101.085 56.8745 100.777C56.4464 101.099 55.6529 101.521 55.1646 101.8C55.2791 100.767 55.2246 99.5353 55.2053 98.48C55.1933 96.9266 55.1326 96.3551 56.0379 95.0857C56.4121 94.7674 56.9751 94.3719 57.3799 94.0682L58.6162 93.5971C58.4786 94.6076 58.3377 97.047 58.9965 97.8381C60.2993 99.4024 65.461 99.354 65.5961 96.6737C65.6335 95.9298 65.3541 94.0339 65.751 93.5751Z" fill="#383B3F"/>
<path d="M69.1872 99.7312L69.2521 99.6974C69.2603 99.9418 69.2636 100.74 69.4274 100.859C70.4216 101.583 71.8486 102.229 72.8987 102.833C75.8 104.502 78.7561 106.176 81.6312 107.862C82.8675 108.587 86.1861 110.372 87.0811 111.234C87.3853 111.726 87.0663 114.15 87.4106 115.305C87.9666 116.322 88.3855 117.252 88.0422 118.42C87.8663 119.029 87.4502 119.539 86.8898 119.833C86.3805 120.101 85.5401 120.403 84.9636 120.324C83.0097 119.465 81.3748 116.702 82.9451 114.824C82.7162 114.404 78.4238 112.043 77.7316 111.643L71.1229 107.832C70.2483 107.328 67.903 105.751 67.0332 105.858C66.3173 104.527 66.6132 102.839 66.5424 101.308C67.4943 100.179 68.12 100.647 69.1002 100.321L69.1872 99.7312Z" fill="#CBD9EE"/>
<path d="M69.1873 99.7312L69.2522 99.6974C69.2605 99.9418 69.2637 100.74 69.4275 100.859C70.4217 101.583 71.8487 102.229 72.8988 102.833C75.8001 104.502 78.7563 106.176 81.6313 107.862C82.8677 108.587 86.1862 110.372 87.0812 111.234C86.456 111.583 86.1173 111.754 85.5705 112.237C84.1461 111.145 80.5496 109.193 78.8421 108.205C74.7948 105.863 70.6956 103.439 66.5425 101.308C67.4945 100.179 68.1201 100.647 69.1004 100.321L69.1873 99.7312Z" fill="#EDF1FD"/>
<path d="M82.9449 114.824L84.353 115.509C84.944 115.862 85.3224 116.196 86.0291 116.017C86.3973 115.601 86.9018 115.457 87.4104 115.305C87.9665 116.322 88.3854 117.252 88.0421 118.421C87.8661 119.029 87.4501 119.539 86.8897 119.833C86.3804 120.101 85.54 120.403 84.9634 120.324C83.0096 119.465 81.3747 116.702 82.9449 114.824Z" fill="#44484C"/>
<path d="M82.9449 114.824L84.353 115.509C83.8843 115.897 84.0158 115.782 83.3244 115.854C84.3065 115.993 84.5833 116.119 85.1681 116.928C85.7259 117.7 86.001 118.375 85.3405 119.165C85.1555 119.251 84.9983 119.336 84.8029 119.394C85.1007 119.698 85.1451 119.876 84.9634 120.324C83.0096 119.465 81.3747 116.702 82.9449 114.824Z" fill="white"/>
<path d="M82.9449 114.824L84.353 115.509C83.8843 115.897 84.0158 115.782 83.3244 115.854C82.783 117.457 83.2598 118.634 84.8029 119.394C85.1007 119.698 85.1451 119.876 84.9634 120.324C83.0096 119.465 81.3747 116.702 82.9449 114.824Z" fill="#1A1D1E"/>
<path d="M87.0811 111.234C87.3853 111.726 87.0663 114.15 87.4105 115.305C86.902 115.457 86.3975 115.601 86.0293 116.017C85.4898 115.056 85.6331 113.442 85.5703 112.237C86.1172 111.754 86.4558 111.584 87.0811 111.234Z" fill="#D9E4F8"/>
<path d="M56.8742 100.777C57.4497 101.085 58.4693 101.531 58.7173 102.119C58.519 103.672 58.8203 105.105 58.3274 106.536C56.2526 106.527 47.2217 112.782 44.6763 113.869C44.4049 113.985 43.5502 114.526 43.3451 114.75C44.2053 115.798 44.0853 116.378 43.7372 117.644C43.679 117.807 43.6129 117.967 43.5394 118.124C42.8046 119.673 41.4276 120.791 39.681 119.884C37.511 118.757 37.957 117.044 38.8796 115.219C39.1732 113.869 38.8725 112.044 39.1604 111.098C39.7518 110.871 55.308 101.601 55.1643 101.8C55.6526 101.521 56.4462 101.099 56.8742 100.777Z" fill="#CBD9EE"/>
<path d="M56.874 100.777C57.4494 101.085 58.4691 101.531 58.7171 102.119C56.963 102.492 53.9876 104.508 52.2696 105.431C48.4892 107.462 44.4197 110.186 40.6471 112.126L39.1602 111.098C39.7516 110.871 55.3077 101.601 55.164 101.8C55.6524 101.521 56.4459 101.099 56.874 100.777Z" fill="#EDF1FD"/>
<path d="M43.3451 114.75C44.2053 115.799 44.0853 116.378 43.7372 117.644C43.679 117.807 43.6129 117.967 43.5394 118.124C42.8046 119.673 41.4276 120.791 39.681 119.884C37.511 118.757 37.957 117.044 38.8796 115.219C39.6427 115.554 40.0529 115.767 40.7683 116.182L41.9239 115.53C42.3928 115.289 42.8812 115.007 43.3451 114.75Z" fill="#3C3F42"/>
<path d="M42.2052 115.817C43.0261 115.881 43.0093 115.843 43.3035 116.657C43.129 117.788 42.2394 119.98 40.8439 118.693C40.3149 117.445 41.2227 116.485 42.2052 115.817Z" fill="white"/>
<path d="M43.3455 114.75C44.2057 115.799 44.0857 116.378 43.7376 117.644C43.251 117.479 43.3481 117.106 43.3037 116.657C43.0095 115.843 43.0263 115.881 42.2054 115.817L41.9243 115.53C42.3933 115.289 42.8816 115.007 43.3455 114.75Z" fill="#1A1D1E"/>
<path d="M86.3029 83.9332C86.9898 84.2702 87.2113 84.4834 87.7759 84.9727C88.0964 85.6121 87.6828 88.2118 88.1062 89.0432C88.8984 89.8563 88.8725 90.4581 88.6247 91.5383C87.6598 95.2746 83.8503 95.3693 82.6533 92.0724C82.543 92.0762 69.479 99.4637 69.2523 99.6974L69.1874 99.7312C69.1578 98.4856 69.2222 97.0802 68.9022 95.9025C68.5889 95.3838 68.1992 95.0338 67.7725 94.6107C68.3405 94.1401 73.7484 91.0306 74.7689 90.4805C78.4297 88.5073 82.6532 85.7227 86.3029 83.9332Z" fill="#CBD9EE"/>
<path d="M86.3029 83.9332C86.9898 84.2702 87.2113 84.4834 87.7759 84.9727C84.3903 86.6716 80.2619 89.3681 76.8178 91.2626C75.3232 92.0847 70.0253 95.0625 68.9022 95.9025C68.5889 95.3838 68.1992 95.0338 67.7725 94.6107C68.3405 94.1401 73.7484 91.0306 74.7689 90.4805C78.4297 88.5073 82.6532 85.7227 86.3029 83.9332Z" fill="#EDF1FD"/>
<path d="M88.1057 89.0432C88.8979 89.8563 88.872 90.4581 88.6242 91.5383C87.6593 95.2746 83.8498 95.3693 82.6528 92.0724C83.5343 91.3808 85.7044 90.2361 86.7454 89.6565L88.1057 89.0432Z" fill="#373A3C"/>
<path d="M88.106 89.0432C88.8981 89.8563 88.8723 90.4581 88.6244 91.5383C88.4237 90.9642 88.6173 90.462 88.2095 89.8415C87.6816 90.1139 87.1946 90.0372 86.7456 89.6565L88.106 89.0432Z" fill="#1A1D1E"/>
<path d="M86.9026 90.1191C89.2314 90.0186 87.6437 92.7009 86.455 93.5273C84.2061 93.2256 85.8783 90.9025 86.9026 90.1191Z" fill="white"/>
<path d="M38.4834 84.8794C38.9898 84.5624 39.3954 84.1876 39.8755 83.9016C42.1285 84.8443 46.6745 87.7423 49.0481 89.0498C50.6068 89.9082 56.2161 93.1093 57.3801 94.0682C56.9753 94.3718 56.4123 94.7673 56.0381 95.0856C55.1327 96.3551 55.1934 96.9265 55.2055 98.4799C54.1251 98.1878 45.7129 93.1428 44.1731 92.227L43.9561 92.3701C43.6153 93.2815 42.5617 94.3966 41.6207 94.5394C38.8062 94.9665 36.9494 91.4452 38.4904 89.1575C38.2778 88.4679 38.3091 85.57 38.4834 84.8794Z" fill="#CBD9EE"/>
<path d="M38.4829 84.8794C38.9893 84.5624 39.395 84.1876 39.875 83.9016C42.128 84.8443 46.674 87.7423 49.0476 89.0498C50.6063 89.9082 56.2156 93.1093 57.3796 94.0682C56.9748 94.3718 56.4118 94.7673 56.0376 95.0856C50.3863 91.9317 44.0601 88.1835 38.4829 84.8794Z" fill="#EDF1FD"/>
<path d="M38.4904 89.1575C39.4652 89.5671 43.3751 91.6426 43.9561 92.3701C43.6153 93.2815 42.5617 94.3965 41.6207 94.5394C38.8062 94.9665 36.9494 91.4452 38.4904 89.1575Z" fill="#37383B"/>
<path d="M39.0148 90.2006C40.7313 90.413 41.8385 92.1383 40.8638 93.6827C40.5197 93.6725 40.3019 93.6627 39.9928 93.4985C39.4157 93.1937 38.9838 92.6715 38.7928 92.0474C38.5529 91.2527 38.649 90.9053 39.0148 90.2006Z" fill="white"/>
<path d="M31.9922 52.126L32.0545 52.4095C31.781 52.647 31.6103 52.5855 31.1835 52.6288C26.222 53.0125 23.4445 56.7806 23.8466 61.5441C24.1693 65.3649 27.3358 67.9733 29.3329 71.0819C36.6676 82.4989 30.2626 94.6745 18.4419 99.341C13.1532 101.521 7.10978 101.636 1.92801 104.038C1.15295 104.397 0.426973 105.682 0.606485 106.481C1.73606 111.509 12.4838 113.783 16.5983 114.276C17.1099 114.223 17.0278 114.225 17.426 113.979C18.9982 113.008 21.085 112.652 22.9147 112.8C23.6399 112.846 25.7774 114.01 26.1394 114.516C27.1004 115.857 26.925 117.83 25.4163 118.769C23.1299 120.192 18.3474 120.278 16.6466 117.903C16.1424 117.199 16.3092 115.609 16.4943 114.779C12.3577 114.156 7.50066 112.916 3.84535 110.888C1.83613 109.772 0.614277 108.515 0 106.282C0.284648 105.328 0.540175 104.577 1.35406 103.936C3.91002 101.925 13.8113 100.576 17.6662 99.157C21.3787 97.8237 24.7121 95.6091 27.38 92.7034C32.7797 86.7466 33.3983 78.8356 29.3327 71.9302C27.2669 68.1788 23.4177 65.7265 23.3323 61.0871C23.2317 55.6202 26.6637 52.3194 31.9922 52.126Z" fill="#CBD9EE"/>
<path d="M31.9922 52.126L32.0545 52.4095C31.781 52.647 31.6103 52.5855 31.1835 52.6288C26.222 53.0125 23.4445 56.7806 23.8466 61.5441C24.1693 65.3649 27.3358 67.9733 29.3329 71.0819C36.6676 82.4989 30.2626 94.6745 18.4419 99.341C13.1532 101.521 7.10978 101.636 1.92801 104.038C1.15295 104.397 0.426973 105.682 0.606485 106.481C1.73606 111.509 12.4838 113.783 16.5983 114.276C17.7685 114.45 18.9525 114.512 20.1346 114.463C20.6798 114.471 21.2818 114.437 21.7778 114.644L21.7465 114.776C21.3678 114.947 21.2743 114.983 20.8674 115.064C19.9814 114.927 17.6474 114.879 16.4943 114.779C12.3577 114.156 7.50066 112.916 3.84535 110.888C1.83613 109.772 0.614277 108.515 0 106.282C0.284648 105.328 0.540175 104.577 1.35406 103.936C3.91002 101.925 13.8113 100.576 17.6662 99.157C21.3787 97.8237 24.7121 95.6091 27.38 92.7034C32.7797 86.7466 33.3983 78.8356 29.3327 71.9302C27.2669 68.1788 23.4177 65.7265 23.3323 61.0871C23.2317 55.6202 26.6637 52.3194 31.9922 52.126Z" fill="#1A1D1E"/>
<path d="M20.1342 114.463C19.7672 114.385 19.4022 114.298 19.0391 114.204L19.1644 114.229C19.4141 114.047 21.17 114.358 22.0677 113.883C21.6302 113.599 20.5389 113.781 20.0286 113.892C19.9266 113.913 19.8253 113.938 19.7247 113.965L19.6688 113.811C20.1623 113.456 21.5459 113.51 22.1851 113.526C24.9147 115.236 21.6839 116.226 20.7902 115.88C22.1027 115.84 21.4777 115.648 22.1705 115.514L22.0834 115.322C21.6276 115.276 21.3257 115.258 20.8678 115.257L20.867 115.064C21.2739 114.983 21.3674 114.947 21.7461 114.776L21.7774 114.644C21.2814 114.437 20.6794 114.471 20.1342 114.463Z" fill="white"/>
<path d="M24.7271 115.858C24.8318 115.951 24.7846 115.901 24.8158 116.09C23.4671 117.75 20.8716 117.676 19.0727 116.866L18.9106 116.533L18.999 116.401C21.3837 116.885 22.3934 117.593 24.7271 115.858Z" fill="#B4B4BD"/>
<path d="M13.0403 89.2003C10.5776 88.785 4.82324 87.6438 5.02777 84.3675C5.41346 78.1871 14.4108 81.6304 16.8266 75.1591C19.5726 67.803 14.9016 59.5481 20.22 53.2259C23.4658 49.5734 30.0623 48.7948 34.7109 48.5867C34.0301 49.3415 33.2624 48.9639 32.6724 49.2108C28.5519 49.6211 22.9675 50.3797 20.2267 53.9104C15.5416 59.9455 20.1859 68.6853 17.1241 75.6335C14.3115 82.0163 5.43547 78.9477 5.48633 84.3821C5.49412 85.2144 6.16582 86.1232 6.84436 86.6608C8.29481 87.8099 11.1993 88.5565 13.01 88.6562C13.8001 88.6789 13.7061 88.5759 14.3819 88.2765C17.0715 87.0848 19.3229 86.7622 21.8399 88.4026C22.5416 88.9622 23.193 89.6929 23.2576 90.6248C23.5462 94.7904 16.36 95.2724 13.9472 93.3159C12.6083 92.2302 12.7863 90.697 13.0403 89.2003Z" fill="#CBD9EE"/>
<path d="M13.0403 89.2003C10.5776 88.785 4.82324 87.6438 5.02777 84.3675C5.41346 78.1871 14.4108 81.6304 16.8266 75.1591C19.5726 67.803 14.9016 59.5481 20.22 53.2259C23.4658 49.5734 30.0623 48.7948 34.7109 48.5867C34.0301 49.3415 33.2624 48.9639 32.6724 49.2108C28.5519 49.6211 22.9675 50.3797 20.2267 53.9104C15.5416 59.9455 20.1859 68.6853 17.1241 75.6335C14.3115 82.0163 5.43547 78.9477 5.48633 84.3821C5.49412 85.2144 6.16582 86.1232 6.84436 86.6608C8.29481 87.8099 11.1993 88.5565 13.01 88.6562C14.1821 88.8775 17.9347 88.9886 18.3301 89.2333L18.3263 89.3954C17.8722 89.6927 15.612 89.4444 14.9071 89.3982C14.2864 89.319 13.6639 89.2531 13.0403 89.2003Z" fill="#1A1D1E"/>
<path d="M13.0098 88.6562C13.7999 88.6789 13.7059 88.576 14.3817 88.2765C17.0713 87.0848 19.3228 86.7622 21.8397 88.4026C21.6323 89.0433 21.5212 89.6168 21.252 90.4435C19.7339 91.6609 16.8927 91.9722 15.3225 90.7647C14.9625 90.2905 14.7354 90.023 14.9069 89.3982C15.6118 89.4444 17.872 89.6927 18.3261 89.3954L18.3299 89.2333C17.9345 88.9886 14.1819 88.8776 13.0098 88.6562Z" fill="#EDF1FD"/>
<path d="M15.3225 90.7646C16.8927 91.9721 19.7339 91.6608 21.252 90.4435C20.88 92.6004 15.9395 92.0751 15.2942 91.1338L15.2485 90.8435L15.3225 90.7646Z" fill="#B4B4BD"/>
<path d="M32.082 57.5536C32.042 57.6933 31.9943 57.9449 31.9072 58.0316C29.5056 59.4872 28.791 62.3234 30.0531 64.868C30.846 66.664 34.5502 67.1052 33.9042 69.429C33.4607 71.0248 32.3916 72.6178 33.3157 74.2792C33.9122 75.3515 36.0746 76.2486 37.2246 76.45C37.2828 76.1739 37.3279 76.0824 37.4398 75.821C39.7572 74.2483 42.6988 74.341 45.0727 75.7287C45.5685 76.1013 45.7706 76.2622 46.194 76.7099C47.9722 81.9311 41.3268 82.5959 37.9917 81.0918C36.0939 80.2358 35.9528 78.6064 36.4807 76.7839C36.1461 76.6581 35.8162 76.5203 35.4915 76.3709C33.4116 75.391 31.5236 73.621 32.7394 71.3608C35.2921 66.6154 30.4358 67.9877 29.2181 64.1782C28.4632 61.8168 29.4237 58.4551 32.082 57.5536Z" fill="#EDF1FD"/>
<path d="M45.073 75.7288C45.5689 76.1013 45.7709 76.2622 46.1944 76.71C47.9725 81.9311 41.3272 82.596 37.9921 81.0918C36.0943 80.2358 35.9532 78.6064 36.481 76.784C37.8198 77.0326 38.3931 77.0853 39.7072 77.2041C39.2687 77.4453 38.8971 77.3263 38.6364 77.6457C38.669 78.0353 38.6709 78.1029 38.8325 78.4568C40.8849 79.0085 42.9458 79.3124 44.6466 77.786C44.8693 76.7827 45.1165 76.9356 45.073 75.7288Z" fill="#CBD9EE"/>
<path d="M44.6466 77.7859C44.9474 79.5821 39.541 79.8157 38.8325 78.4568C40.8849 79.0084 42.9458 79.3124 44.6466 77.7859Z" fill="#B4B4BD"/>
<path d="M32.082 57.5536C32.042 57.6933 31.9943 57.9449 31.9072 58.0316C29.5056 59.4872 28.791 62.3234 30.0531 64.868C30.846 66.664 34.5502 67.1052 33.9042 69.429C33.4607 71.0248 32.3916 72.6178 33.3157 74.2792C33.9122 75.3515 36.0746 76.2486 37.2246 76.45C38.1945 76.6125 39.6448 76.8952 40.5791 76.5204C41.1886 76.4171 41.1744 76.326 41.6854 76.5075C41.4198 76.9742 40.9034 77.0065 40.4015 77.1078L39.7069 77.204C38.3927 77.0852 37.8194 77.0326 36.4807 76.7839C36.1461 76.6581 35.8162 76.5203 35.4915 76.3709C33.4116 75.391 31.5236 73.621 32.7394 71.3608C35.2921 66.6154 30.4358 67.9877 29.2181 64.1782C28.4632 61.8168 29.4237 58.4551 32.082 57.5536Z" fill="#1A1D1E"/>
<path d="M40.5795 76.5204L40.5423 76.3138C41.28 75.8674 42.6652 75.5144 43.2127 76.4187C43.173 77.785 41.5369 78.0166 40.5961 77.532L40.4019 77.1077C40.9038 77.0064 41.4201 76.9742 41.6858 76.5074C41.1747 76.326 41.1889 76.417 40.5795 76.5204Z" fill="white"/>
</svg>
