<svg width="61" height="60" viewBox="0 0 61 60" fill="none" xmlns="http://www.w3.org/2000/svg">
<path d="M29.3261 0C30.4122 0.412976 30.6266 0.363677 31.3374 1.38813C33.7305 1.44414 33.7176 4.34901 34.5299 6.14657C34.8078 6.76144 35.3873 8.49844 35.5165 9.11501C34.5714 8.76715 34.0041 8.07459 32.7495 8.29739C34.1665 10.0105 36.0718 10.8901 37.1477 12.7124C37.1604 13.2286 37.2169 13.5944 36.9727 14.0579C37.2063 14.1854 37.5243 14.3464 37.7427 14.4845L37.6965 14.6169C38.1533 14.99 38.8856 15.2124 39.2424 15.5619L39.6792 15.8081L39.843 15.5898C41.236 16.2272 42.3543 16.4657 43.8358 16.8557C44.1001 17.3511 44.9672 17.7226 45.5252 18.0661L45.8142 18.0672C46.1084 18.5155 46.487 19.1776 46.9233 19.4723C47.2729 19.4743 48.1614 20.0481 48.4277 19.577C48.3838 19.358 48.3073 19.296 48.1654 19.1239C48.4564 18.9662 48.4777 18.921 48.5869 18.6604L48.6353 18.676C48.8172 19.366 49.2622 20.784 49.3632 21.4046C49.597 22.4435 49.9061 22.902 49.1049 23.7378C49.824 24.092 50.4776 24.4054 51.2153 24.7257L51.7406 25.0051L51.7829 25.2964C51.7849 26.0216 51.8012 26.7941 51.7855 27.5152C52.1891 27.4969 52.593 27.4847 52.997 27.4784C55.0958 31.0761 56.9495 34.9702 58.9335 38.6416C59.4236 39.5487 59.6716 40.413 59.7972 41.434C59.5096 41.5966 59.3061 41.6848 59.1062 41.9453C59.488 41.999 59.8073 41.9769 60.0382 42.2218C60.0025 42.9795 58.3834 43.7259 57.7598 43.9551C57.566 43.9812 57.2031 43.9866 57.0322 44.068C56.9401 44.112 56.5093 45.6188 56.0038 46.0292C55.5903 46.3649 54.987 46.5987 54.5211 46.8691C53.24 47.6124 51.9842 48.3964 50.6866 49.1117C48.5617 50.2831 46.468 50.9249 44.0337 50.9643C40.0411 51.0287 37.7164 49.7128 34.3972 47.7752C32.7308 46.8024 31.0707 45.8231 29.3843 44.8857C28.4145 44.3467 27.1438 43.339 26.0955 43.0561C26.0725 43.0499 26.0494 43.0443 26.0264 43.0384C26.0102 42.5448 26.0264 42.1321 26.0481 41.6392L26.0265 41.5395C25.8923 41.2763 26.0504 39.9865 25.9779 39.3888C26.101 39.1872 26.0548 39.1582 26.0464 38.8873C26.0156 38.6153 26.0039 38.7268 26.1185 38.4553C25.3992 38.3156 25.9966 37.4773 25.6655 37.0138C25.6358 35.0839 25.6775 33.1194 25.6546 31.1759C26.1763 30.7102 27.5666 30.4198 27.239 29.5245L27.1079 29.4748C26.9011 29.5771 26.6958 29.6824 26.4921 29.7908L26.4263 29.5842C25.8094 29.2351 24.7107 28.5803 24.0972 28.3407C23.6116 28.0533 23.2615 26.7543 23.0781 26.1858L23.0513 26.0884L23.1948 25.9085C23.1204 25.7291 22.8404 25.5671 22.6601 25.4329L22.9049 25.0324C23.04 24.5997 22.9893 24.5217 22.894 24.0762C22.7749 23.9236 22.3948 23.6792 22.2192 23.5567C21.6777 23.6097 21.3007 23.8048 20.9205 23.8443C20.7221 23.7366 20.6186 23.6979 20.4866 23.5083L20.5596 23.0649L20.3875 22.4827C20.3968 20.9504 21.2936 21.0059 22.4366 20.2456C22.4252 20.2263 22.3893 20.1674 22.3793 20.1374C21.6222 17.8368 20.6087 15.5122 20.1051 13.1476C19.893 12.152 20.7878 11.2639 21.6253 10.9008C21.1687 9.63893 21.069 8.46974 21.8125 7.28381C22.1544 6.4476 23.7204 5.50176 24.5108 5.12983C23.9015 3.00185 24.4356 0.571747 27.0032 0.350177C28.1415 0.25189 28.2274 0.484492 29.3261 0Z" fill="#004645"/>
<path d="M22.8941 24.0762C23.7306 24.3356 24.4559 25.0301 25.3783 25.3491C25.8579 25.5149 27.3201 25.73 27.5629 25.8862C27.7014 26.3986 27.9437 26.7723 28.2072 27.2305L28.3161 27.3582L28.6702 27.3074C29.0352 27.3798 29.756 27.4757 30.0112 27.6918L30.3774 27.54L30.7325 27.7866L30.8151 27.9149L31.2713 27.9886L31.6189 27.5886C31.7601 27.5635 32.0453 27.4533 32.1923 27.4014C32.3316 27.6421 32.6793 27.8675 32.9117 28.0423C33.4508 28.237 33.8904 28.4911 34.3934 28.7636C34.4672 29.0965 34.6357 30.0896 34.8664 30.2604L34.934 30.2056C35.18 29.8437 35.6982 29.5236 36.093 29.3478C36.2869 29.4348 36.8727 29.6833 37.021 29.7839C37.6331 30.7869 37.3127 30.6961 37.501 31.3618L37.4662 31.6405C37.4638 32.2012 37.4801 32.9098 37.4471 33.4582C37.8495 33.6708 39.2157 34.3396 39.4035 34.6325C39.5463 34.4575 39.8616 34.1747 40.0917 34.1628C40.4048 33.7343 40.9773 33.5281 41.4839 33.4638C42.1795 35.7865 41.9801 35.6366 43.4441 37.5295C43.9823 38.2253 48.0175 42.6444 48.0508 42.7598C49.1333 42.9132 50.2782 43.2015 51.0202 42.0512C51.7683 42.6489 53.538 44.2502 54.2342 44.6065C54.76 44.3268 55.4256 43.9308 55.8967 43.5748C56.7008 43.8841 56.8908 43.9439 57.7599 43.9551C57.566 43.9812 57.2032 43.9866 57.0323 44.068C56.9401 44.112 56.5093 45.6188 56.0039 46.0292C55.5903 46.3649 54.9871 46.5987 54.5211 46.8691C53.2401 47.6124 51.9843 48.3964 50.6866 49.1117C48.5617 50.2831 46.4681 50.9249 44.0338 50.9643C40.0412 51.0287 37.7165 49.7128 34.3973 47.7752C32.7309 46.8024 31.0708 45.8231 29.3843 44.8857C28.4146 44.3467 27.1439 43.339 26.0956 43.0561C26.0726 43.0499 26.0495 43.0443 26.0265 43.0384C26.0102 42.5448 26.0265 42.1321 26.0482 41.6393L26.0266 41.5395C25.8924 41.2763 26.0504 39.9865 25.978 39.3888C26.1011 39.1872 26.0548 39.1582 26.0464 38.8873C26.0156 38.6153 26.004 38.7268 26.1186 38.4553C25.3993 38.3156 25.9967 37.4773 25.6656 37.0138C25.6358 35.084 25.6776 33.1195 25.6547 31.1759C26.1764 30.7102 27.5666 30.4198 27.2391 29.5245L27.108 29.4748C26.9012 29.5771 26.6959 29.6824 26.4922 29.7908L26.4264 29.5842C25.8095 29.2351 24.7108 28.5803 24.0973 28.3407C23.6117 28.0533 23.2616 26.7543 23.0782 26.1858L23.0514 26.0884L23.1949 25.9085C23.1205 25.7291 22.8405 25.5671 22.6602 25.4329L22.905 25.0324C23.04 24.5997 22.9893 24.5217 22.8941 24.0762Z" fill="#BEE1E6"/>
<path d="M40.0917 34.1628C40.4048 33.7343 40.9773 33.5281 41.484 33.4638C42.1795 35.7865 41.9802 35.6366 43.4442 37.5295C43.9823 38.2253 48.0175 42.6443 48.0508 42.7598C49.1334 42.9132 50.2783 43.2015 51.0203 42.0512C51.7683 42.6489 53.5381 44.2502 54.2342 44.6065C54.7601 44.3268 55.4256 43.9308 55.8968 43.5747C56.7009 43.884 56.8908 43.9439 57.76 43.9551C57.5661 43.9812 57.2033 43.9866 57.0323 44.068C56.9402 44.112 56.5094 45.6188 56.0039 46.0292C55.5904 46.3649 54.9872 46.5987 54.5212 46.8691C53.2402 47.6124 51.9843 48.3964 50.6867 49.1117C48.5618 50.2831 46.4681 50.9249 44.0339 50.9643C40.0412 51.0287 37.7166 49.7128 34.3973 47.7752C32.7309 46.8024 31.0709 45.8231 29.3844 44.8857C28.4146 44.3467 27.1439 43.339 26.0956 43.0561C26.0726 43.0499 26.0496 43.0443 26.0266 43.0384C26.0103 42.5448 26.0266 42.1321 26.0483 41.6392L26.0267 41.5395C25.8924 41.2763 26.0505 39.9865 25.9781 39.3887C26.1012 39.1872 26.0549 39.1582 26.0465 38.8873C26.0157 38.6153 26.0041 38.7268 26.1186 38.4553C26.6409 38.7265 28.4216 39.6585 28.8066 40.043C29.4523 40.2779 30.9186 41.1787 31.5853 41.5645L36.7321 44.5454C37.0288 44.7165 38.4604 45.5697 38.677 45.6512C38.8777 45.7707 39.6697 46.2316 39.7471 46.3852C40.215 46.5136 40.3986 46.5612 40.8531 46.401C41.1447 46.2246 41.4402 46.0548 41.7394 45.8916C42.4414 45.4471 43.1584 45.1144 43.8482 44.6241C43.751 43.8009 41.2265 39.9654 40.8434 38.8786C40.4757 37.8357 39.1534 36.1673 38.9158 35.0276C39.0077 34.8125 39.047 34.8473 39.293 34.7177L39.4035 34.6325C39.5463 34.4575 39.8617 34.1747 40.0917 34.1628Z" fill="#3EBCC3"/>
<path d="M40.0917 34.1628C40.4048 33.7343 40.9773 33.5281 41.484 33.4638C42.1795 35.7865 41.9802 35.6366 43.4442 37.5295C43.9823 38.2253 48.0175 42.6443 48.0508 42.7598C48.253 43.5625 48.3307 43.9187 49.0135 44.4606C49.748 45.0434 50.435 45.6388 51.1075 46.2931C50.7542 46.6666 48.979 47.7277 48.4967 47.9104C48.2361 48.0787 48.0508 48.2278 47.7275 48.1665L47.5654 48.2712C45.8677 48.6191 44.4238 44.982 43.8482 44.6241C43.751 43.8009 41.2265 39.9654 40.8434 38.8786C40.4757 37.8357 39.1534 36.1673 38.9158 35.0276C39.0077 34.8125 39.047 34.8473 39.2929 34.7177L39.4035 34.6325C39.5463 34.4575 39.8617 34.1747 40.0917 34.1628Z" fill="#28A5A6"/>
<path d="M39.4035 34.6325C39.5463 34.4575 39.8617 34.1747 40.0917 34.1628C40.3902 35.3122 43.1116 40.1065 43.7641 41.405C44.4938 42.8572 45.7328 45.1463 46.5974 46.5918C46.8334 46.9863 47.2105 47.2373 47.5805 47.4756C47.892 47.6763 48.2519 47.7665 48.4967 47.9104C48.2361 48.0788 48.0508 48.2278 47.7275 48.1665L47.5654 48.2712C45.8677 48.6191 44.4238 44.982 43.8482 44.6241C43.751 43.8009 41.2265 39.9654 40.8434 38.8786C40.4757 37.8357 39.1534 36.1673 38.9158 35.0276C39.0077 34.8125 39.047 34.8473 39.2929 34.7177L39.4035 34.6325Z" fill="#2A7579"/>
<path d="M43.8482 44.6241C43.751 43.8009 41.2265 39.9654 40.8434 38.8786C40.4757 37.8357 39.1534 36.1673 38.9158 35.0276C39.0077 34.8125 39.047 34.8473 39.2929 34.7177C40.5391 37.2687 41.931 39.842 43.2845 42.3375C44.5669 44.7023 45.223 46.9274 47.7275 48.1665L47.5654 48.2712C45.8677 48.6191 44.4238 44.982 43.8482 44.6241Z" fill="#91BFC5"/>
<path d="M51.0202 42.0512C51.7683 42.6489 53.538 44.2502 54.2342 44.6065C54.7349 44.9157 55.0796 45.1463 55.4587 45.6217C54.5243 46.2878 53.0874 46.9414 51.8973 46.7878C51.6042 46.75 51.3312 46.4856 51.1074 46.2931C50.435 45.6388 49.7479 45.0434 49.0134 44.4606C48.3306 43.9188 48.2529 43.5625 48.0508 42.7598C49.1333 42.9132 50.2782 43.2015 51.0202 42.0512Z" fill="#051E22"/>
<path d="M41.7394 45.8916C42.6568 47.7169 42.4259 48.5069 40.4793 49.322C39.9882 49.3026 39.9895 49.3361 39.6627 49.0285C40.3015 48.7653 40.2887 48.4401 40.27 47.818C39.9815 47.2794 39.8016 47.0603 39.4187 46.6036C39.2964 46.465 39.23 46.391 39.1316 46.235C39.2566 46.1687 39.5264 46.3573 39.7472 46.3852C40.2151 46.5136 40.3987 46.5612 40.8532 46.401C41.1448 46.2246 41.4403 46.0548 41.7394 45.8916Z" fill="#051E22"/>
<path d="M26.0465 38.8873C26.0157 38.6153 26.0041 38.7268 26.1186 38.4553C26.6409 38.7265 28.4216 39.6585 28.8066 40.043C28.4758 40.7531 26.7808 41.9765 26.0483 41.6393L26.0267 41.5395C25.8924 41.2763 26.0505 39.9865 25.9781 39.3888C26.1012 39.1872 26.0549 39.1582 26.0465 38.8873Z" fill="#082026"/>
<path d="M26.0465 38.8873C27.5835 41.1845 26.1138 40.6872 26.0267 41.5395C25.8924 41.2763 26.0505 39.9865 25.9781 39.3887C26.1012 39.1872 26.0549 39.1582 26.0465 38.8873Z" fill="#91BFC5"/>
<path d="M38.3378 47.5934C38.3426 47.1059 38.2638 46.7417 38.7099 46.4707C39.0395 46.4394 39.1078 46.4757 39.4187 46.6036C39.8016 47.0603 39.9815 47.2794 40.2699 47.818C40.2887 48.4401 40.3014 48.7653 39.6626 49.0285C38.9088 48.6801 38.6909 48.3052 38.3378 47.5934Z" fill="#91BFC5"/>
<path d="M40.4791 49.322C39.005 50.0315 37.8498 48.0047 37.9683 46.7524C38.027 46.1327 38.2302 46.0106 38.6769 45.6512C38.8776 45.7707 39.6696 46.2316 39.747 46.3852C39.5263 46.3573 39.2565 46.1687 39.1314 46.235C39.2299 46.3911 39.2962 46.465 39.4186 46.6036C39.1077 46.4757 39.0394 46.4394 38.7098 46.4707C38.2636 46.7417 38.3425 47.1059 38.3376 47.5934C38.6908 48.3052 38.9087 48.6801 39.6625 49.0285C39.9893 49.3361 39.9881 49.3026 40.4791 49.322Z" fill="#040B0D"/>
<path d="M40.853 46.401C40.7976 45.2236 41.2885 42.8537 40.7531 42.005C40.2089 41.1425 37.0527 39.4987 36.1344 38.9671L29.253 34.9874C28.5539 34.5842 26.54 33.5487 26.1384 33.0081C26.1022 32.7581 26.0749 32.831 26.1814 32.6521C26.8521 32.5711 34.3154 37.4149 35.5538 37.9061C38.5381 39.09 36.9517 34.2222 37.4471 33.4582C37.8495 33.6708 39.2157 34.3395 39.4034 34.6325L39.2929 34.7177C39.0469 34.8473 39.0076 34.8125 38.9157 35.0276C39.1533 36.1673 40.4756 37.8357 40.8433 38.8786C41.2264 39.9654 43.7509 43.8009 43.8481 44.6241C43.1583 45.1144 42.4413 45.4471 41.7393 45.8916C41.4401 46.0548 41.1447 46.2246 40.853 46.401Z" fill="#E4FAFC"/>
<path d="M32.1924 27.4014C32.3316 27.6421 32.6793 27.8675 32.9118 28.0423C33.4508 28.237 33.8905 28.4911 34.3934 28.7636C34.4672 29.0965 34.6357 30.0896 34.8665 30.2604L34.9341 30.2055C35.0436 30.5983 35.1002 31.7781 34.9381 32.1994C34.9202 32.246 34.7078 32.4463 34.6617 32.4887C34.4439 32.6636 34.2237 32.8352 34.001 33.0037L33.4406 33.2939C32.1648 31.4553 31.6342 29.9773 30.8152 27.9149L31.2714 27.9886L31.6189 27.5886C31.7602 27.5635 32.0453 27.4533 32.1924 27.4014Z" fill="#3EBCC3"/>
<path d="M32.1922 27.4014C32.3315 27.6421 32.6792 27.8675 32.9116 28.0423C32.4749 28.1414 31.6922 28.1775 31.2712 27.9886L31.6188 27.5886C31.76 27.5635 32.0452 27.4533 32.1922 27.4014Z" fill="#008989"/>
<path d="M23.0781 26.1858C23.7622 26.3794 25.4139 27.5572 26.101 27.9146C26.3336 28.0356 26.7061 27.9016 26.9069 27.9865C26.9979 28.3178 26.7914 29.4096 26.4263 29.5842C25.8094 29.2351 24.7107 28.5803 24.0972 28.3407C23.6116 28.0533 23.2615 26.7543 23.0781 26.1858Z" fill="#91BFC5"/>
<path d="M22.894 24.0762C23.7306 24.3356 24.4558 25.0301 25.3783 25.3491C25.8579 25.5149 27.32 25.73 27.5629 25.8862C27.7014 26.3986 27.9437 26.7723 28.2072 27.2305C27.2998 26.7812 26.0115 26.5927 25.0723 26.2282C24.3734 25.957 23.6283 25.413 22.905 25.0324C23.04 24.5997 22.9893 24.5217 22.894 24.0762Z" fill="#008989"/>
<path d="M30.3774 27.54L30.7325 27.7866L30.8151 27.9149C31.6341 29.9773 32.1648 31.4554 33.4406 33.294C33.2345 33.3999 33.131 33.4812 32.9031 33.4615C31.9761 32.887 30.8208 29.6333 30.2591 28.5037L30.0112 27.6917L30.3774 27.54Z" fill="#0B9696"/>
<path d="M28.6703 27.3074C29.0353 27.3798 29.7561 27.4757 30.0113 27.6917L30.2591 28.5037C29.7571 28.3795 28.6636 27.7592 28.3162 27.3582L28.6703 27.3074Z" fill="#91BFC5"/>
<path d="M34.001 33.0037C34.2237 32.8352 34.444 32.6636 34.6618 32.4888C34.7958 32.6595 34.9288 32.7874 34.9197 33.0044C34.7009 33.2906 34.2872 33.13 34.001 33.0037Z" fill="#28A5A6"/>
<path d="M29.3261 0C30.4122 0.412976 30.6266 0.363677 31.3374 1.38813C33.7305 1.44414 33.7176 4.34901 34.5299 6.14657C34.8078 6.76144 35.3873 8.49844 35.5165 9.11501C34.5714 8.76715 34.0041 8.07459 32.7495 8.29739C34.1665 10.0105 36.0718 10.8901 37.1477 12.7124C37.1604 13.2286 37.2169 13.5944 36.9727 14.0579C37.2063 14.1854 37.5243 14.3464 37.7428 14.4845L37.6965 14.6169C38.1533 14.99 38.8856 15.2124 39.2424 15.5619C39.0418 15.9187 39.1766 17.6821 39.1032 18.1767C39.048 18.5483 39.027 18.6945 38.9175 19.0865C38.9441 19.4831 39.0001 19.6543 38.7485 19.9559C38.5355 20.6662 35.7497 22.8417 34.9738 23.2169C34.1077 23.6357 33.706 23.8307 32.733 23.5401C32.0544 23.3374 30.8559 22.6698 30.355 22.2219L30.3975 23.1877C30.1601 23.0683 29.8026 22.981 29.5403 22.9285L29.4088 22.8523L29.1557 22.8927C29.0939 23.1753 28.9778 23.2725 28.7847 23.4883C28.9251 23.7227 28.9579 23.795 29.1668 23.9763L29.4022 23.8238C29.6314 24.1099 29.6101 24.2779 29.7486 24.5783C29.5937 25.4238 29.5364 25.6144 28.7311 25.9912L28.3356 25.8382C28.1001 25.7237 27.8407 25.634 27.5948 25.5421L27.5629 25.8862C27.32 25.73 25.8578 25.5149 25.3782 25.349C24.4558 25.03 23.7305 24.3355 22.894 24.0762C22.7749 23.9236 22.3948 23.6792 22.2192 23.5567C21.6777 23.6097 21.3007 23.8048 20.9205 23.8443C20.7221 23.7366 20.6186 23.6979 20.4866 23.5083L20.5596 23.0649L20.3875 22.4827C20.3968 20.9504 21.2936 21.0059 22.4366 20.2456C22.4252 20.2263 22.3893 20.1674 22.3793 20.1374C21.6222 17.8368 20.6087 15.5122 20.1051 13.1476C19.893 12.152 20.7878 11.2639 21.6253 10.9008C21.1687 9.63893 21.069 8.46974 21.8125 7.28381C22.1544 6.4476 23.7204 5.50176 24.5108 5.12983C23.9015 3.00185 24.4356 0.571747 27.0032 0.350177C28.1415 0.25189 28.2274 0.484492 29.3261 0Z" fill="#87161B"/>
<path d="M29.3261 0C30.4122 0.412976 30.6266 0.363677 31.3375 1.38813C33.7305 1.44414 33.7176 4.34901 34.5299 6.14657C34.8078 6.76144 35.3873 8.49844 35.5165 9.11501C34.5714 8.76715 34.0041 8.07459 32.7495 8.29739C32.2668 8.04866 31.8749 8.03948 31.3418 7.98371C31.2225 7.94498 31.1464 7.86197 31.0464 7.77826C30.588 7.72078 29.4388 7.7474 28.9298 7.7457C28.763 7.91173 28.1743 8.47769 28.0707 8.63368C27.4262 8.98957 27.2129 9.01302 26.5016 9.13437C27.179 7.66663 26.1211 7.74647 25.2503 6.66678C24.8353 6.15228 24.7295 5.74355 24.5108 5.12983C23.9016 3.00185 24.4356 0.571747 27.0033 0.350177C28.1415 0.25189 28.2274 0.484492 29.3261 0Z" fill="#650E17"/>
<path d="M29.6319 1.31831C30.557 2.35758 31.5142 4.05446 31.6489 5.45378C31.733 6.14673 31.7552 6.52907 31.7512 7.22704C31.4736 7.4905 31.3761 7.59272 31.0465 7.77826C30.5881 7.72078 29.4389 7.7474 28.9299 7.7457C28.1929 7.52452 28.1901 7.20937 27.7687 7.09172C27.5687 7.16385 27.5323 7.18144 27.3212 7.17488C26.8677 6.88519 26.1741 6.32795 26.359 5.72287L26.5392 5.63114C26.9963 5.63176 27.2684 5.90348 27.6133 6.18584C29.1431 4.15884 29.5928 3.8396 29.6319 1.31831Z" fill="#D7A685"/>
<path d="M31.3375 1.38814C33.7305 1.44415 33.7177 4.34902 34.5299 6.14658C34.8078 6.76145 35.3873 8.49845 35.5165 9.11502C34.5715 8.76715 34.0041 8.07459 32.7495 8.2974C32.2668 8.04867 31.875 8.03949 31.3418 7.98371C31.2225 7.94498 31.1464 7.86197 31.0464 7.77827C31.376 7.59272 31.4735 7.4905 31.7511 7.22704C31.7552 6.52908 31.7329 6.14673 31.6488 5.45378C32.0366 5.53024 32.6895 5.56681 32.9717 5.238C33.0323 4.86537 32.4322 4.60446 32.2852 4.30944C31.8984 3.5331 31.6217 2.25513 31.3375 1.38814Z" fill="#0B9696"/>
<path d="M24.5108 5.12984C24.7295 5.74355 24.8353 6.15229 25.2503 6.66679C26.1211 7.74648 27.179 7.66663 26.5015 9.13438C27.2128 9.01303 27.4262 8.98957 28.0706 8.63369L27.9902 9.09357C27.5999 9.45316 26.5591 10.4754 26.2264 10.8995C24.607 12.2246 25.5892 14.9694 25.5887 16.6956L25.4676 16.9019L25.2557 17.2535L25.2091 17.2546C24.9858 18.0149 24.928 18.3478 25.5267 18.9524C25.5025 19.4389 25.4573 19.963 25.4982 20.4449C25.2022 20.2864 24.9065 20.1604 24.7138 19.8864C24.1585 20.0652 23.6699 19.8068 22.4366 20.2456C22.4252 20.2263 22.3893 20.1675 22.3793 20.1374C21.6222 17.8368 20.6087 15.5122 20.1051 13.1476C19.893 12.152 20.7878 11.2639 21.6253 10.9008C21.1687 9.63893 21.069 8.46975 21.8125 7.28382C22.1544 6.44761 23.7204 5.50177 24.5108 5.12984Z" fill="#0B9696"/>
<path d="M21.6253 10.9008C22.6227 13.7635 23.6514 17.1005 24.7138 19.8864C24.1585 20.0652 23.6699 19.8068 22.4366 20.2456C22.4252 20.2263 22.3893 20.1675 22.3793 20.1374C21.6222 17.8368 20.6087 15.5122 20.1051 13.1476C19.893 12.152 20.7878 11.2639 21.6253 10.9008Z" fill="#28A5A6"/>
<path d="M21.6253 10.9009C21.1688 9.63894 21.069 8.46975 21.8126 7.28383C21.9456 7.82109 22.4346 9.52198 22.6887 9.98726L22.8479 9.97106C23.781 11.88 24.3087 14.5494 25.1508 16.5339C25.1884 16.6224 25.3899 16.827 25.4676 16.9019L25.2558 17.2535L25.2091 17.2546C24.9858 18.0149 24.9281 18.3478 25.5267 18.9525C25.5025 19.4389 25.4574 19.963 25.4983 20.4449C25.2022 20.2864 24.9065 20.1604 24.7138 19.8864C23.6514 17.1005 22.6228 13.7635 21.6253 10.9009Z" fill="#004645"/>
<path d="M22.6887 9.98725L22.848 9.97105C23.7811 11.88 24.3088 14.5494 25.1508 16.5338C25.1884 16.6224 25.3899 16.827 25.4677 16.9019L25.2558 17.2535L25.2092 17.2546C24.9756 17.005 22.9706 10.8208 22.6887 9.98725Z" fill="#3EBCC3"/>
<path d="M25.5889 16.6956C26.1257 16.444 26.4151 16.2897 27.0086 16.2897C27.8167 16.5329 28.3056 16.6169 28.4043 17.566L28.4141 16.9748C29.5382 18.129 30.4276 19.1733 30.3267 20.8147C30.3164 20.9826 30.3273 22.0885 30.3552 22.2219L30.3977 23.1877C30.1603 23.0683 29.8027 22.981 29.5404 22.9285L29.409 22.8523L29.1558 22.8927C29.0941 23.1753 28.978 23.2725 28.7848 23.4883C28.9253 23.7227 28.9581 23.7951 29.167 23.9764L29.4023 23.8238C29.6315 24.1099 29.6103 24.2779 29.7487 24.5783C29.5939 25.4238 29.5366 25.6144 28.7313 25.9912L28.3358 25.8383C28.1003 25.7237 27.8409 25.634 27.595 25.5421L27.563 25.8862C27.3202 25.73 25.858 25.5149 25.3784 25.3491C24.456 25.0301 23.7307 24.3356 22.8942 24.0762C22.7751 23.9236 22.395 23.6792 22.2194 23.5567C21.6778 23.6097 21.3009 23.8048 20.9207 23.8444C20.7223 23.7367 20.6188 23.6979 20.4868 23.5083L20.5597 23.0649L20.3877 22.4827C20.397 20.9504 21.2938 21.0059 22.4368 20.2456C23.6701 19.8068 24.1586 20.0652 24.7139 19.8864C24.9067 20.1604 25.2024 20.2864 25.4984 20.4449C25.4575 19.963 25.5026 19.4389 25.5269 18.9524C24.9282 18.3478 24.986 18.0149 25.2092 17.2546L25.2559 17.2535L25.4678 16.9019L25.5889 16.6956Z" fill="#D7A685"/>
<path d="M24.7139 19.8864C24.9067 20.1604 25.2024 20.2864 25.4984 20.4449C25.6707 22.0665 27.1317 23.2265 27.6957 24.7059C27.7559 24.8639 27.6505 24.9773 27.5668 25.1013C28.5275 25.9682 29.6825 25.516 29.167 23.9763L29.4023 23.8238C29.6315 24.1099 29.6103 24.2779 29.7487 24.5783C29.5939 25.4238 29.5366 25.6144 28.7313 25.9912L28.3358 25.8382C28.1003 25.7237 27.8409 25.634 27.595 25.5421L27.563 25.8862C27.3202 25.73 25.858 25.5149 25.3784 25.349C24.456 25.03 23.7307 24.3355 22.8942 24.0762C22.7751 23.9236 22.395 23.6792 22.2194 23.5567C21.6778 23.6097 21.3009 23.8048 20.9207 23.8443C20.7223 23.7366 20.6188 23.6979 20.4868 23.5083L20.5597 23.0649L20.3877 22.4827C20.397 20.9504 21.2938 21.0059 22.4368 20.2456C23.6701 19.8068 24.1586 20.0652 24.7139 19.8864Z" fill="#3EBCC3"/>
<path d="M22.2787 22.8746L22.9865 22.8819C24.789 23.5173 26.0259 24.4834 27.5949 25.5421L27.563 25.8862C27.3201 25.73 25.8579 25.5149 25.3784 25.349C24.4559 25.03 23.7306 24.3355 22.8941 24.0762C22.7751 23.9236 22.395 23.6792 22.2193 23.5567C22.2709 23.2339 22.214 23.2093 21.968 23.0545L22.2787 22.8746Z" fill="#3EBCC3"/>
<path d="M23.1932 22.572C25.3556 23.4507 25.8273 24.1262 27.5666 25.1013C28.5273 25.9683 29.6824 25.516 29.1668 23.9764L29.4021 23.8238C29.6314 24.1099 29.6101 24.2779 29.7485 24.5783C29.5937 25.4238 29.5364 25.6144 28.7311 25.9912L28.3356 25.8383C28.1001 25.7237 27.8407 25.634 27.5948 25.5421C26.0257 24.4835 24.7889 23.5173 22.9863 22.8819L23.1932 22.572Z" fill="#650E17"/>
<path d="M20.5596 23.0649C21.1731 22.8441 21.3975 22.904 22.1026 22.5797L22.2786 22.8746L21.9679 23.0545C22.2139 23.2093 22.2708 23.2339 22.2192 23.5567C21.6777 23.6097 21.3007 23.8048 20.9205 23.8443C20.7221 23.7366 20.6186 23.6979 20.4866 23.5083L20.5596 23.0649Z" fill="#650E17"/>
<path d="M20.4866 23.5083C20.7692 23.5299 21.6189 23.1715 21.9679 23.0545C22.2139 23.2093 22.2708 23.2339 22.2192 23.5567C21.6777 23.6097 21.3007 23.8048 20.9205 23.8443C20.7221 23.7366 20.6186 23.6979 20.4866 23.5083Z" fill="#28A5A6"/>
<path d="M22.1025 22.5797C22.5714 22.5037 22.7224 22.5004 23.1932 22.572L22.9863 22.8819L22.2785 22.8746L22.1025 22.5797Z" fill="#634D4F"/>
<path d="M28.4138 16.9748C29.538 18.129 30.4274 19.1733 30.3265 20.8147C30.3162 20.9826 30.3271 22.0885 30.355 22.2219L30.3975 23.1877C30.1601 23.0683 29.8025 22.981 29.5402 22.9285L29.4088 22.8523L29.1556 22.8927C28.8442 22.512 28.8822 22.0376 28.2939 21.6256C28.1812 21.4509 28.0506 21.0368 28.1014 20.8012C28.3403 20.7101 28.327 20.762 28.6306 20.8502C28.583 20.5813 28.2811 19.9385 28.1598 19.659C28.227 19.2735 28.1438 18.8966 28.264 18.4199C28.3436 18.1321 28.4401 17.8623 28.404 17.566L28.4138 16.9748Z" fill="#0B9696"/>
<path d="M28.2939 21.6256C28.1812 21.4509 28.0506 21.0368 28.1014 20.8011C28.3403 20.7101 28.327 20.762 28.6306 20.8502C28.8257 21.5742 29.2044 22.1606 29.4088 22.8523L29.1556 22.8927C28.8442 22.512 28.8822 22.0376 28.2939 21.6256Z" fill="#D7A685"/>
<path d="M25.5888 16.6956C26.1256 16.444 26.415 16.2897 27.0085 16.2897C27.8166 16.5329 28.3055 16.6169 28.4042 17.566C28.4402 17.8623 28.3437 18.1321 28.2642 18.4199C28.144 18.8966 28.2272 19.2735 28.16 19.6591C27.9198 19.5881 26.9273 19.2823 26.8206 19.1652C26.6779 18.8708 26.7628 18.9332 26.5007 18.839C26.4972 18.3717 26.4829 17.9931 26.4472 17.5269C26.479 17.2964 26.5185 17.2945 26.4238 17.1132C26.2225 17.1863 26.1387 17.235 25.955 17.3383L25.8182 17.2077C25.6445 17.4539 25.7147 17.4279 25.4667 17.5323C25.2775 17.4076 25.3356 17.4793 25.2559 17.2535L25.4677 16.9019L25.5888 16.6956Z" fill="#D7A685"/>
<path d="M25.5888 16.6956C26.1256 16.444 26.415 16.2897 27.0085 16.2897C27.8166 16.5329 28.3055 16.6169 28.4042 17.566C28.4402 17.8623 28.3437 18.1321 28.2642 18.4199C28.0128 18.0652 27.4534 17.3085 27.0038 17.3286L26.8974 17.1621L26.9722 16.9931C26.8986 16.7604 26.9274 16.8326 26.6544 16.684C26.2741 16.8398 26.0687 16.866 25.8182 17.2077C25.6445 17.4539 25.7147 17.4279 25.4667 17.5323C25.2775 17.4076 25.3356 17.4793 25.2559 17.2535L25.4677 16.9019L25.5888 16.6956Z" fill="#E72928"/>
<path d="M26.6543 16.684C26.9273 16.8326 26.8985 16.7604 26.9721 16.9931L26.8973 17.1621C26.723 17.4842 26.7659 18.7737 26.8205 19.1652C26.6779 18.8708 26.7627 18.9332 26.5006 18.839C26.4971 18.3717 26.4828 17.9931 26.4471 17.5269C26.479 17.2964 26.5184 17.2945 26.4237 17.1132C26.2224 17.1863 26.1386 17.235 25.9549 17.3383L25.8181 17.2077C26.0686 16.866 26.274 16.8398 26.6543 16.684Z" fill="#F7E3ED"/>
<path d="M26.5008 18.839C26.7629 18.9332 26.678 18.8708 26.8206 19.1652C26.9273 19.2823 27.9198 19.5881 28.16 19.659C28.2813 19.9385 28.5832 20.5813 28.6308 20.8502C28.3272 20.762 28.3405 20.7101 28.1016 20.8012C28.0508 21.0368 28.1814 21.4509 28.2941 21.6256L28.114 21.7434C28.1017 21.5148 28.0015 21.3923 27.9323 21.2005C27.5823 20.2305 26.8641 20.9852 26.2621 20.4062C25.9924 19.6789 26.3886 19.5915 26.4908 18.9099L26.5008 18.839Z" fill="#F9FCFD"/>
<path d="M25.8181 17.2077L25.9549 17.3383C26.1386 17.235 26.2224 17.1863 26.4238 17.1131C26.5184 17.2945 26.479 17.2964 26.4471 17.5269C25.4658 17.9244 25.7297 18.0132 25.5268 18.9524C24.9281 18.3478 24.9859 18.0149 25.2091 17.2546L25.2558 17.2535C25.3355 17.4793 25.2774 17.4076 25.4667 17.5323C25.7146 17.4279 25.6445 17.4539 25.8181 17.2077Z" fill="#E72928"/>
<path d="M28.2941 21.6256C28.8824 22.0376 28.8444 22.512 29.1558 22.8927C29.0941 23.1753 28.978 23.2725 28.7848 23.4883C28.565 23.0695 28.0595 22.1982 28.1139 21.7434L28.2941 21.6256Z" fill="#3EBCC3"/>
<path d="M26.2266 10.8995C28.0942 11.2759 28.7079 13.8053 28.6069 15.4643C28.5771 15.9531 28.4852 16.4878 28.414 16.9748L28.4042 17.566C28.3056 16.6169 27.8167 16.5329 27.0085 16.2897C26.415 16.2897 26.1257 16.444 25.5889 16.6956C25.5893 14.9694 24.6071 12.2246 26.2266 10.8995Z" fill="#D7A685"/>
<path d="M28.9298 7.7457C29.4388 7.74739 30.588 7.72078 31.0464 7.77825C31.1465 7.86196 31.2225 7.94497 31.3418 7.9837C31.6559 8.27972 32.2424 8.77871 32.4615 9.09178C32.3649 9.28211 32.2089 9.60922 32.0606 9.75356C31.0742 10.7138 28.1637 10.9022 27.9902 9.09356L28.0707 8.63368C28.1743 8.47768 28.763 7.91172 28.9298 7.7457Z" fill="#C58C76"/>
<path d="M36.9728 14.0579C37.2064 14.1854 37.5244 14.3464 37.7429 14.4845L37.6966 14.6169C38.1534 14.99 38.8857 15.2124 39.2425 15.5619C39.0419 15.9186 39.1767 17.6821 39.1033 18.1767C39.0481 18.5483 39.0271 18.6945 38.9176 19.0865C38.9442 19.4831 39.0002 19.6543 38.7486 19.9559C38.0034 18.9554 36.5582 15.2571 36.9728 14.0579Z" fill="#0B9696"/>
<path d="M37.6965 14.6169C38.1533 14.99 38.8856 15.2124 39.2424 15.5619C39.0418 15.9187 39.1766 17.6821 39.1032 18.1767C39.048 18.5483 39.027 18.6945 38.9175 19.0865C38.7289 18.3136 37.4806 15.1029 37.5078 14.6734L37.6965 14.6169Z" fill="#64DAE6"/>
<path d="M39.843 15.5898C41.236 16.2272 42.3543 16.4657 43.8358 16.8557C44.1001 17.3511 44.9672 17.7226 45.5252 18.0661L45.8143 18.0672C46.1084 18.5155 46.487 19.1776 46.9233 19.4723C47.2729 19.4743 48.1614 20.0481 48.4277 19.577C48.3838 19.358 48.3073 19.296 48.1654 19.1239C48.4564 18.9663 48.4777 18.921 48.5869 18.6604L48.6353 18.676C48.8172 19.366 49.2622 20.784 49.3632 21.4046C49.597 22.4435 49.9061 22.902 49.1049 23.7378C49.824 24.092 50.4776 24.4054 51.2153 24.7257L51.7406 25.0051L51.7829 25.2964L51.6966 25.7849C50.6163 26.0702 50.1506 26.5635 49.2082 26.8797C48.9495 26.6123 48.7359 26.1019 48.273 25.7629C47.5912 25.2636 46.8792 24.8118 46.165 24.3665L42.423 22.0709C41.8295 21.7088 39.3996 20.1692 38.8751 19.9469L38.7485 19.9559C39.0001 19.6543 38.9441 19.4831 38.9175 19.0865C39.027 18.6945 39.048 18.5483 39.1032 18.1767C39.1766 17.6821 39.0418 15.9187 39.2424 15.5619L39.6792 15.8081L39.843 15.5898Z" fill="#008989"/>
<path d="M39.2424 15.5619L39.6792 15.8081C40.0692 16.0299 41.1833 16.6239 41.4437 16.9426C42.2639 17.2721 43.9643 18.2465 44.6023 18.8059C44.6887 19.0685 44.7734 19.3315 44.8567 19.5951C45.2908 20.4983 45.6819 21.4614 46.0734 22.3864C45.1393 21.9536 44.1397 21.4642 43.2029 21.0574C42.1992 20.6215 39.8952 19.2515 38.8751 19.9469L38.7485 19.9559C39.0001 19.6543 38.9441 19.4831 38.9175 19.0865C39.027 18.6945 39.048 18.5483 39.1032 18.1767C39.1766 17.6821 39.0418 15.9187 39.2424 15.5619Z" fill="#BEE1E6"/>
<path d="M41.4439 16.9426C42.264 17.2721 43.9645 18.2465 44.6025 18.8059C44.6888 19.0685 44.7736 19.3315 44.8568 19.5951C44.3522 19.548 42.2137 18.3095 41.7752 17.8196C41.4626 17.4703 41.443 17.3985 41.4439 16.9426Z" fill="#91BFC5"/>
<path d="M48.587 18.6604L48.6354 18.676C48.8172 19.366 49.2622 20.784 49.3632 21.4046C49.5971 22.4435 49.9062 22.902 49.105 23.7378C48.3546 23.4127 47.6457 23.1104 46.9168 22.7353C46.4248 21.619 45.9497 20.4299 45.478 19.3C45.989 19.396 46.4015 19.4946 46.9233 19.4723C47.273 19.4743 48.1615 20.0481 48.4277 19.577C48.3838 19.358 48.3074 19.296 48.1655 19.1239C48.4564 18.9662 48.4778 18.921 48.587 18.6604Z" fill="#3EBCC3"/>
<path d="M51.6966 25.7849L51.7829 25.2964C51.7849 26.0216 51.8012 26.7941 51.7855 27.5152C52.1891 27.4969 52.593 27.4847 52.997 27.4784C55.0958 31.0761 56.9496 34.9702 58.9335 38.6416C59.4236 39.5487 59.6717 40.413 59.7973 41.434C59.5096 41.5966 59.3061 41.6848 59.1062 41.9453C57.7558 41.5791 55.8705 40.377 54.6145 39.6507C54.3241 39.4342 54.1595 39.1752 54.0284 38.8405C52.6522 35.3276 51.5057 31.7987 49.9319 28.3558L49.2083 26.8797C50.1506 26.5635 50.6163 26.0702 51.6966 25.7849Z" fill="#28A5A6"/>
<path d="M49.2083 26.8797C50.1506 26.5635 50.6163 26.0702 51.6966 25.7849C51.7109 26.3666 51.7157 26.9486 51.7109 27.5304C51.0415 27.7096 50.7109 28.1343 49.9319 28.3558L49.2083 26.8797Z" fill="#0B9696"/>
<path d="M44.5867 29.2526C45.2685 29.569 45.8518 29.8352 46.5038 30.2177C46.8889 31.9911 47.0574 33.2231 47.8363 34.9204C48.3279 35.9916 52.2044 40.6406 52.2896 41.073C52.6018 40.4782 53.5905 41.1653 54.6145 39.6507C55.8705 40.377 57.7558 41.5791 59.1062 41.9453C59.488 41.999 59.8073 41.9769 60.0382 42.2218C60.0025 42.9796 58.3834 43.7259 57.7598 43.9551C56.8907 43.9439 56.7007 43.884 55.8966 43.5748C55.4255 43.9308 54.7599 44.3268 54.2341 44.6065C53.538 44.2502 51.7682 42.6489 51.0202 42.0512C50.1865 41.3581 49.7476 40.7235 49.2692 39.7504C47.5823 36.3186 45.8695 32.8569 44.5867 29.2526Z" fill="#28A5A6"/>
<path d="M54.6145 39.6507C55.8705 40.377 57.7558 41.5791 59.1062 41.9453C59.488 41.999 59.8073 41.9769 60.0382 42.2218C60.0026 42.9795 58.3835 43.7259 57.7599 43.9551C56.8907 43.9439 56.7008 43.884 55.8967 43.5747C54.5902 42.5163 52.0657 44.6611 52.2896 41.073C52.6018 40.4782 53.5905 41.1652 54.6145 39.6507Z" fill="#051E22"/>
<path d="M29.7487 24.5783C30.0597 24.7793 30.6324 25.1703 30.9401 25.3285C31.4511 25.9288 31.8192 26.5104 32.5779 26.6291L32.6536 26.7302L32.5927 26.8893C32.4998 26.895 32.4128 26.9022 32.3196 26.899C32.1997 27.1641 32.3023 27.144 32.1924 27.4014C32.0453 27.4533 31.7602 27.5635 31.6189 27.5886L31.2714 27.9886L30.8152 27.9149L30.7326 27.7866L30.3774 27.54L30.0113 27.6917C29.7561 27.4756 29.0353 27.3798 28.6703 27.3074L28.3162 27.3582L28.2073 27.2305C27.9438 26.7723 27.7015 26.3986 27.563 25.8862L27.5949 25.5421C27.8409 25.634 28.1002 25.7237 28.3357 25.8382L28.7312 25.9912C29.5365 25.6144 29.5938 25.4238 29.7487 24.5783Z" fill="#D7A685"/>
<path d="M27.5949 25.5421C27.8409 25.634 28.1002 25.7237 28.3357 25.8382L28.7312 25.9912C28.8615 26.3791 28.9117 26.4155 29.1917 26.7136C28.9645 26.8583 28.8435 26.9228 28.6634 27.1255L28.6703 27.3074L28.3162 27.3581L28.2073 27.2305C27.9438 26.7723 27.7015 26.3986 27.563 25.8862L27.5949 25.5421Z" fill="#D7A685"/>
<path d="M28.3356 25.8382L28.7311 25.9912C28.8614 26.3791 28.9116 26.4155 29.1915 26.7136C28.9644 26.8583 28.8434 26.9228 28.6632 27.1255C28.4141 26.6367 28.2005 26.3614 28.3356 25.8382Z" fill="#0B9696"/>
<path d="M29.1916 26.7137C29.4763 26.9052 30.1507 27.3381 30.3774 27.54L30.0113 27.6917C29.7561 27.4756 29.0353 27.3798 28.6703 27.3074L28.6633 27.1255C28.8435 26.9228 28.9645 26.8583 29.1916 26.7137Z" fill="#008989"/>
<path d="M30.2031 26.8059C30.6733 27.0554 31.1703 27.3077 31.6189 27.5886L31.2714 27.9886L30.8152 27.9149L30.7326 27.7866L30.8754 27.6461C30.8279 27.3797 30.4147 27.0234 30.2031 26.8059Z" fill="#719486"/>
<path d="M37.501 31.3618C39.0762 32.0594 39.4412 32.6261 41.0921 31.6325L41.1499 31.9622C41.2127 32.2255 41.4755 33.2539 41.4838 33.4638C40.9772 33.5281 40.4047 33.7343 40.0916 34.1628C39.8615 34.1747 39.5462 34.4575 39.4034 34.6325C39.2157 34.3395 37.8494 33.6708 37.447 33.4582C37.48 32.9098 37.4637 32.2011 37.4662 31.6405L37.501 31.3618Z" fill="#0B9696"/>
<path d="M37.5011 31.3618C39.0764 32.0594 39.4413 32.6261 41.0923 31.6325L41.1501 31.9622C39.53 32.73 39.0144 32.5155 37.4663 31.6405L37.5011 31.3618Z" fill="#3EBCC3"/>
<path d="M37.021 29.7839C37.4651 29.822 40.3705 30.7599 40.8829 31.108C40.933 31.1421 41.0465 31.5448 41.0922 31.6325C39.4412 32.6261 39.0763 32.0594 37.501 31.3618C37.3127 30.6961 37.6331 30.7869 37.021 29.7839Z" fill="#008989"/>
<path d="M29.4088 22.8523L29.5403 22.9285C29.8026 22.981 30.1601 23.0683 30.3975 23.1877C30.5573 23.9064 30.7382 24.6203 30.94 25.3284C30.6323 25.1703 30.0595 24.7793 29.7486 24.5783C29.6102 24.2779 29.6314 24.1099 29.4022 23.8238L29.1668 23.9763C28.9579 23.795 28.9252 23.7227 28.7847 23.4883C28.9778 23.2725 29.094 23.1753 29.1557 22.8927L29.4088 22.8523Z" fill="#3EBCC3"/>
<path d="M29.4088 22.8523L29.5403 22.9285C29.5382 23.3391 29.5207 23.43 29.4022 23.8238L29.1668 23.9763C28.9579 23.795 28.9252 23.7227 28.7847 23.4883C28.9778 23.2725 29.094 23.1753 29.1557 22.8927L29.4088 22.8523Z" fill="#64DAE6"/>
<path d="M34.3933 28.7636C34.9149 28.8798 35.8391 29.3358 36.093 29.3478C35.6982 29.5236 35.18 29.8437 34.934 30.2055L34.8664 30.2604C34.6356 30.0896 34.4671 29.0965 34.3933 28.7636Z" fill="#008989"/>
<path d="M0.293473 22.6219C0.494984 22.3349 1.59852 21.7541 1.94221 21.5557L5.33435 19.6022L12.3239 15.5747C13.3967 14.9552 14.4724 14.3309 15.5412 13.7041C15.7294 13.5937 16.0602 13.4465 16.2836 13.464C16.475 13.4789 16.4751 13.541 16.6057 13.6959C16.6159 14.4042 16.67 15.2719 16.4929 15.9413C17.052 16.386 18.3755 16.8892 18.5915 17.3758C18.4194 17.9523 18.3116 18.6149 18.0799 19.1503C17.7462 19.3638 16.741 19.9567 16.582 20.2333C17.0507 20.5438 20.2593 22.3373 20.3561 22.485L20.3875 22.4827L20.5595 23.0649L20.4865 23.5083C20.6185 23.6979 20.7221 23.7367 20.9205 23.8444C21.3007 23.8048 21.6776 23.6097 22.2191 23.5567C22.3948 23.6792 22.7749 23.9236 22.894 24.0762C22.9892 24.5217 23.0399 24.5997 22.9049 25.0324L22.66 25.4329C22.8404 25.5671 23.1204 25.7291 23.1948 25.9085L23.0513 26.0884L23.0781 26.1858C23.2615 26.7543 23.6116 28.0533 24.0972 28.3407C24.7106 28.5803 25.8094 29.2351 26.4263 29.5842L26.4921 29.7908C26.6958 29.6824 26.901 29.5771 27.1079 29.4748L27.239 29.5245C27.5665 30.4198 26.1763 30.7102 25.6546 31.1759C25.6775 33.1195 25.6357 35.084 25.6655 37.0138C25.9966 37.4773 25.3992 38.3156 26.1184 38.4553C26.0039 38.7268 26.0155 38.6153 26.0463 38.8873C26.0547 39.1582 26.101 39.1872 25.9779 39.3888C26.0503 39.9865 25.8923 41.2763 26.0265 41.5395L26.0481 41.6393C26.0264 42.1321 26.0101 42.5448 26.0264 43.0384C26.0043 44.0401 25.9018 50.3237 26.0709 50.9166L26.2056 50.9539C26.116 51.1542 26.0146 51.1883 25.8258 51.2989C22.9284 52.9961 19.997 54.6652 17.0917 56.3462L13.4849 58.4393C12.8424 58.814 11.9648 59.36 11.3163 59.6636C10.9017 59.5996 8.39877 58.0551 7.86243 57.7434L2.17813 54.4613C1.9024 54.3 0.53325 53.5888 0.478706 53.4154C0.626291 51.647 0.523298 48.994 0.549914 47.1778C0.615027 42.7286 0.483103 38.1984 0.545439 33.7525L0 33.3104L0.0337142 32.5192L0.0578613 32.373C0.101064 32.3425 0.0966672 32.3492 0.136707 32.3002C0.409118 31.9675 0.351565 23.6631 0.293473 22.6219Z" fill="#91BFC5"/>
<path d="M25.2912 31.6445C25.3118 31.4432 25.3192 31.419 25.4176 31.2423L25.6547 31.1759C25.6776 33.1194 25.6359 35.0839 25.6656 37.0138C25.9967 37.4773 25.3993 38.3156 26.1186 38.4553C26.004 38.7268 26.0157 38.6153 26.0464 38.8873C26.0548 39.1582 26.1011 39.1872 25.978 39.3888C26.0504 39.9865 25.8924 41.2763 26.0266 41.5395L26.0482 41.6393C26.0265 42.1321 26.0103 42.5448 26.0265 43.0384C26.0044 44.0401 25.9019 50.3237 26.071 50.9166L26.2057 50.9539C26.1161 51.1542 26.0147 51.1883 25.8259 51.2989C22.9286 52.9961 19.9972 54.6652 17.0918 56.3462L13.4851 58.4393C12.8426 58.814 11.9649 59.36 11.3164 59.6636L11.3363 59.5523C11.7085 59.1351 11.6476 58.6016 11.5275 58.0912L11.5106 58.1828L11.45 58.1715C11.3309 57.4129 11.3227 49.8084 11.4266 49.2736L11.4181 48.7013L11.6787 48.4675C11.5931 48.3809 11.5582 48.3347 11.5584 48.1996C11.5616 46.534 11.6742 44.826 11.5304 43.1632C13.6102 42.1955 16.2274 40.2832 18.3224 39.3202C18.3765 39.2802 18.654 39.1462 18.7312 39.107C19.4864 38.5593 20.6042 37.9511 21.4271 37.477C22.717 36.7229 24.017 35.986 25.3265 35.2663C25.2545 34.2305 25.2486 32.6826 25.2912 31.6445Z" fill="#BEE1E6"/>
<path d="M25.2912 31.6445C25.3118 31.4432 25.3191 31.419 25.4176 31.2423L25.6547 31.1759C25.6776 33.1194 25.6358 35.0839 25.6656 37.0138C25.9967 37.4773 25.3993 38.3156 26.1185 38.4553C26.004 38.7268 26.0156 38.6153 26.0464 38.8873C26.0548 39.1582 26.1011 39.1872 25.978 39.3888C26.0504 39.9865 25.8923 41.2763 26.0266 41.5395L26.0482 41.6393C26.0265 42.1321 26.0102 42.5448 26.0265 43.0384C26.0044 44.0401 25.9019 50.3237 26.071 50.9166C25.7843 51.044 25.8132 51.0895 25.5719 51.0257L25.5546 51.0075C25.2237 50.8481 25.0439 50.7874 24.811 50.5092C24.8946 50.5025 24.918 50.4735 24.9996 50.4258C25.1112 49.7692 25.0619 42.216 24.9479 41.6922C24.6688 41.4814 24.5288 41.3804 24.2232 41.2145C22.8168 42.0587 20.2805 43.5943 18.8651 44.3021C18.661 43.8762 18.806 39.9432 18.7312 39.107C19.4863 38.5593 20.6042 37.9511 21.4271 37.477C22.717 36.7229 24.0169 35.986 25.3265 35.2663C25.2545 34.2305 25.2486 32.6826 25.2912 31.6445Z" fill="#91BFC5"/>
<path d="M25.6657 37.0138C25.9967 37.4773 25.3994 38.3156 26.1186 38.4553C26.004 38.7268 26.0157 38.6153 26.0465 38.8873C26.0549 39.1582 26.1012 39.1872 25.978 39.3887C26.0505 39.9865 25.8924 41.2763 26.0267 41.5395L26.0483 41.6392C26.0266 42.1321 26.0103 42.5448 26.0266 43.0384C26.0044 44.0401 25.902 50.3237 26.0711 50.9166C25.7843 51.0439 25.8133 51.0895 25.5719 51.0257L25.5547 51.0075C25.4622 49.9026 25.5074 48.2216 25.5071 47.0836C25.4837 44.7608 25.5127 42.4378 25.5941 40.1164C25.5736 39.4006 25.6185 37.7209 25.6657 37.0138Z" fill="#CEEBEF"/>
<path d="M18.3223 39.3202C18.3763 39.2802 18.6539 39.1462 18.7311 39.107C18.8058 39.9432 18.6609 43.8762 18.8649 44.3021L18.5439 44.5143C16.3231 45.7376 13.8863 47.321 11.6786 48.4675C11.5929 48.3809 11.558 48.3347 11.5583 48.1996C11.5614 46.534 11.6741 44.826 11.5303 43.1632C13.61 42.1955 16.2272 40.2832 18.3223 39.3202Z" fill="#91BFC5"/>
<path d="M18.3223 39.3202C18.3763 39.2802 18.6539 39.1462 18.7311 39.107C18.8058 39.9432 18.6609 43.8762 18.8649 44.3021L18.5439 44.5143C18.1398 43.7175 18.5593 39.9997 18.3223 39.3202Z" fill="#CEEBEF"/>
<path d="M24.8111 50.5092C25.0439 50.7874 25.2237 50.8481 25.5546 51.0075L25.5719 51.0257C25.8132 51.0895 25.7843 51.0439 26.071 50.9166L26.2057 50.9539C26.1161 51.1542 26.0147 51.1883 25.8259 51.2988C22.9286 52.9961 19.9972 54.6652 17.0918 56.3462L13.4851 58.4393C12.8426 58.814 11.9649 59.36 11.3164 59.6636L11.3363 59.5523C11.7085 59.1351 11.6476 58.6016 11.5275 58.0911C12.0764 57.8468 13.8355 56.7738 14.4122 56.4409L20.8604 52.7224C21.9397 52.0966 23.7501 50.9866 24.8111 50.5092Z" fill="#3EBCC3"/>
<path d="M24.2231 41.2145C24.5287 41.3804 24.6687 41.4814 24.9478 41.6922C24.9424 41.6982 22.8334 42.7902 22.5551 42.9511L15.0885 47.2554C14.3721 47.6663 12.1024 49.0136 11.4265 49.2736L11.418 48.7013L11.6786 48.4675C13.8863 47.321 16.3231 45.7376 18.5439 44.5143L18.865 44.3021C20.2804 43.5943 22.8167 42.0587 24.2231 41.2145Z" fill="#CEEBEF"/>
<path d="M24.1684 44.541C24.2572 44.5588 24.2478 44.569 24.3302 44.6252C24.1956 44.9574 20.5579 46.9276 20.0503 47.2172C19.9184 47.1632 19.9698 47.2067 19.8984 47.0745C20.0731 46.8411 23.583 44.877 24.1684 44.541Z" fill="#F9FCFD"/>
<path d="M16.582 20.2333C17.0506 20.5438 20.2593 22.3373 20.3561 22.485L20.3875 22.4827L20.5595 23.0649L20.4865 23.5083C20.6185 23.6979 20.7221 23.7366 20.9205 23.8443C21.3007 23.8048 21.6776 23.6097 22.2191 23.5567C22.3948 23.6792 22.7749 23.9236 22.8939 24.0762C22.9892 24.5217 23.0399 24.5997 22.9049 25.0324L22.66 25.4329C22.8404 25.5671 23.1204 25.7291 23.1948 25.9085L23.0513 26.0884L23.0781 26.1858C23.2615 26.7543 23.6116 28.0533 24.0972 28.3407C24.7106 28.5803 25.8094 29.2351 26.4263 29.5842L26.4921 29.7908C25.3938 30.3176 23.5897 31.4316 22.474 32.078L15.0609 36.3682C14.1833 36.8751 12.2016 38.0964 11.3891 38.44C11.3917 38.428 11.4067 38.3489 11.4196 38.3373C11.729 38.0605 11.678 37.2072 11.6307 36.7384L11.5385 36.6793C11.3888 36.7941 11.3772 36.8127 11.1986 36.8576C10.775 36.7041 8.16261 35.1769 7.79716 34.9316C6.76213 34.2367 1.4365 31.479 1.12451 30.8956L1.23113 30.8326C1.96412 30.8916 2.17358 31.0829 2.80156 31.4675C4.56842 30.5918 6.51503 29.2897 8.27208 28.3312C8.95269 27.9599 9.76791 27.3986 10.4591 27.1117C10.4578 26.6581 10.4099 25.95 10.5887 25.5734L10.4553 25.0689C10.5472 24.8929 10.6769 24.7496 10.8028 24.595C11.2386 24.7606 12.15 25.3072 12.5116 24.9835L12.6059 25.0047C12.7556 24.7657 12.9228 24.4415 13.0628 24.189L12.7089 23.9237L12.9843 23.5017L13.3812 23.2798C13.6044 23.0599 14.5193 22.5017 14.6971 22.2887C15.6303 21.1705 15.3832 21.0785 16.582 20.2333Z" fill="#CEEBEF"/>
<path d="M20.9205 23.8443C21.3007 23.8048 21.6777 23.6097 22.2192 23.5567C22.3948 23.6792 22.775 23.9236 22.894 24.0762C22.9893 24.5217 23.04 24.5997 22.905 25.0324L22.6601 25.4329C22.8405 25.5671 23.1204 25.7291 23.1948 25.9084L23.0513 26.0884L23.0781 26.1858C23.2615 26.7543 23.6116 28.0533 24.0972 28.3407L24.2572 29.0551C23.8481 29.1886 18.2145 32.4038 17.9654 32.6648C17.7591 32.5802 17.7312 32.5279 17.59 32.3513C17.7264 31.3804 16.3437 28.0938 15.5981 27.3581C16.3215 27.0365 17.1575 26.4963 17.8658 26.087L17.9424 25.6781L18.2719 25.3923C18.6516 24.9573 18.6812 25.1211 19.2366 24.9386C19.3798 24.7303 20.5253 24.1328 20.8834 23.9004L20.9205 23.8443Z" fill="#F9FCFD"/>
<path d="M19.2367 24.9386C19.3738 25.1343 19.3612 25.0549 19.3385 25.2532C19.4015 25.3958 19.5065 25.6554 19.5805 25.7806C19.7083 25.9574 19.7343 25.9842 19.7269 26.1993C19.3055 26.8572 18.3484 26.6095 17.866 26.087L17.9425 25.6781L18.272 25.3923C18.6517 24.9573 18.6813 25.1211 19.2367 24.9386Z" fill="#B41D23"/>
<path d="M19.2367 24.9386C19.3737 25.1343 19.3612 25.0549 19.3385 25.2532C19.4014 25.3958 19.5065 25.6554 19.5805 25.7806C19.0735 25.7177 18.6353 25.6981 18.272 25.3923C18.6517 24.9573 18.6813 25.1211 19.2367 24.9386Z" fill="#E72928"/>
<path d="M20.9205 23.8443C21.3007 23.8048 21.6776 23.6097 22.2191 23.5567C22.3948 23.6792 22.7749 23.9236 22.8939 24.0762C22.9892 24.5217 23.0399 24.5997 22.9049 25.0324L22.66 25.4329C22.5096 24.5605 22.3467 24.0652 21.3502 24.0438L20.8833 23.9004L20.9205 23.8443Z" fill="#634D4F"/>
<path d="M20.8835 23.9003L21.3505 24.0438C20.8776 24.2096 19.5447 24.8254 19.3386 25.2532C19.3613 25.0549 19.3738 25.1343 19.2368 24.9386C19.38 24.7303 20.5255 24.1328 20.8835 23.9003Z" fill="#A02127"/>
<path d="M20.7406 26.1863C20.9226 25.9172 20.8533 25.9277 21.1074 25.8492C21.7154 26.0093 22.1812 27.8446 22.1404 28.4287C21.929 28.8158 19.6373 30.0411 19.0936 30.255C18.9527 30.3104 18.8109 30.2627 18.6735 30.2073C18.3005 29.7875 17.497 28.1447 17.9304 27.6816C18.0625 27.6607 18.1847 27.637 18.3188 27.634L18.7096 27.2911C19.1696 27.1161 19.8639 26.6876 20.3031 26.4324C20.4789 26.2672 20.5087 26.2569 20.7406 26.1863Z" fill="#E72928"/>
<path d="M20.3031 26.4324C20.4393 26.6991 20.879 27.7091 20.8473 27.9647C20.6625 28.312 19.6474 28.8636 19.2442 28.6648C18.9817 28.1118 19.3584 27.6347 18.7095 27.2911C19.1695 27.1161 19.8638 26.6877 20.3031 26.4324Z" fill="#3EBCC3"/>
<path d="M20.3032 26.4324C20.4789 26.2672 20.5088 26.2569 20.7406 26.1863C20.9238 26.6956 21.2676 27.5747 21.373 28.0723C20.81 28.4727 19.7537 29.1049 19.1246 29.4125C18.7635 28.8072 18.6081 28.1185 18.3188 27.634L18.7096 27.2911C19.3586 27.6347 18.9819 28.1118 19.2443 28.6648C19.6475 28.8636 20.6626 28.312 20.8475 27.9647C20.8792 27.7091 20.4394 26.6991 20.3032 26.4324Z" fill="#F9FCFD"/>
<path d="M16.582 20.2333C17.0507 20.5438 20.2593 22.3373 20.3561 22.485L20.3875 22.4827L20.5596 23.0649L20.4866 23.5083C20.6186 23.6979 20.7221 23.7366 20.9206 23.8443L20.8834 23.9004C20.5253 24.1328 19.3798 24.7303 19.2366 24.9386C18.6812 25.1212 18.6516 24.9573 18.2719 25.3923L17.9424 25.6781C17.3632 26.0246 15.9006 26.9908 15.3714 27.1638C14.8116 26.804 14.4569 26.6328 14.1476 26.0324L14.2174 25.8859C14.2966 25.5732 14.3545 25.5655 14.2614 25.3153C13.9628 25.288 13.9884 25.3326 13.6761 25.474C13.5547 25.2084 13.6015 25.2485 13.6514 24.9104C13.0891 24.8081 12.9939 25.1862 12.606 25.0047C12.7557 24.7657 12.9229 24.4415 13.0628 24.189L12.709 23.9237L12.9844 23.5017L13.3812 23.2798C13.6045 23.0599 14.5194 22.5017 14.6971 22.2887C15.6303 21.1705 15.3832 21.0785 16.582 20.2333Z" fill="#CEEBEF"/>
<path d="M20.3562 22.485L20.3876 22.4827L20.5597 23.0649L20.4867 23.5083C20.6187 23.6979 20.7222 23.7367 20.9206 23.8444L20.8835 23.9004C20.5254 24.1328 19.3799 24.7303 19.2367 24.9386C18.6813 25.1212 18.6517 24.9573 18.272 25.3923L17.9425 25.6781C17.3633 26.0246 15.9007 26.9909 15.3715 27.1638C14.8117 26.804 14.457 26.6328 14.1477 26.0324L14.2175 25.8859L14.2955 25.9178C14.5168 25.811 15.2821 25.2049 15.578 25.0165L16.1502 25.5547C16.5558 25.3586 16.9595 25.1586 17.3612 24.9547C18.1196 24.5638 18.5852 24.2764 18.8441 23.4717L18.9167 23.5855C19.262 23.2527 19.7423 22.8871 20.1941 22.7201L20.268 22.6935L20.3562 22.485Z" fill="#BEE1E6"/>
<path d="M18.5959 23.1199C18.6719 23.2258 18.7783 23.3642 18.844 23.4717C18.5851 24.2764 18.1195 24.5638 17.3612 24.9547C16.9594 25.1586 16.5557 25.3586 16.1502 25.5547L15.5779 25.0165C15.282 25.2049 14.5167 25.811 14.2954 25.9178L14.2174 25.8859C14.2966 25.5732 14.3545 25.5654 14.2614 25.3153C13.9628 25.288 13.9884 25.3326 13.6761 25.4739C13.5547 25.2084 13.6015 25.2485 13.6514 24.9104C13.0891 24.8081 12.9939 25.1862 12.606 25.0047C12.7557 24.7656 12.9229 24.4415 13.0628 24.189L12.709 23.9237L12.9844 23.5016L13.3812 23.2798L13.4838 23.4466C13.8364 23.3421 14.2366 23.5519 14.5592 23.7069L14.8311 23.7987C15.4084 23.9753 15.9324 24.4587 16.4085 24.843C17.1896 24.2613 17.4294 24.3234 18.2265 23.5114C18.3304 23.347 18.4529 23.2513 18.5959 23.1199Z" fill="#A02127"/>
<path d="M13.3813 23.2798L13.4839 23.4466C13.3317 23.7761 13.2701 23.8933 13.0629 24.189L12.709 23.9237L12.9844 23.5016L13.3813 23.2798Z" fill="#E4FAFC"/>
<path d="M14.5593 23.7069L14.8312 23.7987C14.7817 24.1488 14.6382 24.3639 14.2837 24.4259L14.2 24.3203C14.2078 24.0614 14.386 23.9076 14.5593 23.7069Z" fill="#E72928"/>
<path d="M15.4377 22.0169C16.7223 22.164 17.5346 22.363 18.596 23.1199C18.4529 23.2513 18.3304 23.347 18.2265 23.5114C17.9518 22.8969 16.1099 22.4132 15.4377 22.0169Z" fill="#B41D23"/>
<path d="M10.8028 24.595C11.2386 24.7606 12.15 25.3072 12.5116 24.9835L12.6059 25.0047C12.9938 25.1862 13.0891 24.8081 13.6513 24.9104C13.6014 25.2485 13.5546 25.2084 13.676 25.474C13.9883 25.3326 13.9628 25.288 14.2614 25.3153C14.3545 25.5655 14.2965 25.5732 14.2174 25.8859L14.1476 26.0324C14.4569 26.6328 14.8116 26.804 15.3714 27.1638C15.9005 26.9908 17.3632 26.0246 17.9423 25.6781L17.8658 26.0871C17.1575 26.4963 16.3215 27.0365 15.5981 27.3582C16.3437 28.0938 17.7264 31.3804 17.59 32.3514C16.4788 30.9504 16.141 30.1232 14.3182 29.4109C12.2422 28.5996 11.3516 27.6468 10.5887 25.5734L10.4553 25.0689C10.5472 24.8929 10.6769 24.7496 10.8028 24.595Z" fill="#CEEBEF"/>
<path d="M13.676 25.474C13.9883 25.3326 13.9628 25.288 14.2613 25.3153C14.3545 25.5655 14.2965 25.5732 14.2174 25.8859L14.1475 26.0324C14.4568 26.6328 14.8116 26.804 15.3713 27.1638C14.7378 27.4474 12.4605 27.7252 12.5199 26.4625C12.5385 26.0675 13.3313 25.6721 13.676 25.474Z" fill="#F9FCFD"/>
<path d="M13.6514 24.9104C13.6015 25.2485 13.5547 25.2084 13.6761 25.474C13.3314 25.6721 12.5387 26.0675 12.5201 26.4625C12.4606 27.7252 14.7379 27.4474 15.3715 27.1638C15.9006 26.9908 17.3633 26.0246 17.9424 25.6781L17.8659 26.0871C17.1576 26.4963 16.3216 27.0365 15.5982 27.3582C14.7018 27.755 11.749 27.9579 12.1962 26.2757C12.632 25.7569 13.4577 25.3598 13.6514 24.9104Z" fill="#A02127"/>
<path d="M10.8028 24.595C11.2386 24.7606 12.15 25.3072 12.5116 24.9835L12.6059 25.0047C12.9938 25.1862 13.0891 24.8081 13.6513 24.9104C13.4576 25.3598 12.6319 25.7569 12.1961 26.2757C11.599 25.7775 11.3306 24.8002 10.4553 25.0689C10.5472 24.8929 10.6769 24.7496 10.8028 24.595Z" fill="#F9FCFD"/>
<path d="M10.5888 25.5734C11.3516 27.6468 12.2423 28.5996 14.3183 29.4109C16.1411 30.1231 16.4789 30.9504 17.5901 32.3513C17.7313 32.5279 17.7591 32.5802 17.9655 32.6648L17.9615 32.9673C17.9285 32.9913 17.9122 33.0063 17.8706 33.0201C17.6069 33.1083 15.845 31.5793 15.4702 31.3351C14.5198 30.7159 13.288 29.9425 12.259 29.4851C11.7612 29.2639 11.097 29.2423 10.6529 28.9322C10.3725 28.4708 10.4531 27.6718 10.4592 27.1117C10.4579 26.6581 10.41 25.95 10.5888 25.5734Z" fill="#E72928"/>
<path d="M24.2572 29.0551C24.2011 29.2525 24.1571 29.3706 23.966 29.4811C21.9975 30.6202 19.9775 31.8422 17.9959 32.9481L17.9614 32.9673L17.9654 32.6648C18.2145 32.4038 23.8481 29.1886 24.2572 29.0551Z" fill="#B41D23"/>
<path d="M11.3384 39.4343C12.3282 38.7096 15.5889 36.9352 16.6935 36.3051C17.6737 35.7459 24.9074 31.4628 25.23 31.4601L25.2912 31.6445C25.2486 32.6826 25.2545 34.2305 25.3265 35.2663C24.017 35.986 22.717 36.7229 21.4271 37.477C20.6042 37.9511 19.4863 38.5593 18.7312 39.107C18.654 39.1462 18.3765 39.2802 18.3224 39.3202C16.2274 40.2832 13.6102 42.1955 11.5304 43.1632L11.35 43.1945C11.4373 42.6268 11.4553 39.9882 11.3384 39.4343Z" fill="#BEE1E6"/>
<path d="M20.534 35.8307L20.7385 35.8684L20.7229 35.9831C20.2764 36.359 17.1669 38.0691 16.4672 38.4669C16.3897 38.4591 16.3564 38.4341 16.2808 38.4C16.3822 38.1081 19.9251 36.1785 20.534 35.8307Z" fill="#F9FCFD"/>
<path d="M1.20848 24.7888L1.19922 24.6824C3.3826 23.2182 6.00641 21.9852 8.25784 20.5892C8.44592 20.4727 8.577 20.4916 8.78306 20.5178C9.29811 20.9449 10.5776 21.4579 10.7219 21.823C10.5957 21.929 9.40912 22.5264 9.12121 22.7041C7.33507 23.8065 5.07068 24.8968 3.36979 26.0749C2.77559 25.6759 1.85837 25.1872 1.20848 24.7888Z" fill="#CEEBEF"/>
<path d="M1.65698 24.7394C2.33851 24.2452 3.62859 23.5493 4.38657 23.1212C5.73474 22.3596 7.11022 21.5386 8.46549 20.8005C9.04418 21.0429 9.69053 21.4459 10.2409 21.7681C9.64825 22.1136 9.04942 22.4485 8.44481 22.7725C7.91048 23.3501 4.61578 24.9002 3.78528 25.4566C3.1549 25.8791 2.27124 25.1158 1.65698 24.7394Z" fill="#91BFC5"/>
<path d="M8.46526 20.8005C9.04395 21.0429 9.6903 21.4459 10.2407 21.7681C9.64802 22.1136 9.04919 22.4485 8.44458 22.7725C8.5046 22.2336 8.49033 21.3532 8.46526 20.8005Z" fill="#28A5A6"/>
<path d="M9.03843 20.2279L9.02393 20.1455C9.84039 19.5715 16.1884 15.9288 16.4931 15.9413C17.0521 16.386 18.3757 16.8892 18.5917 17.3758C17.8075 17.6027 17.1652 18.1039 16.4701 18.4534C14.898 19.2438 12.7848 20.7329 11.2443 21.4374C10.3965 21.1132 9.82828 20.6161 9.03843 20.2279Z" fill="#CEEBEF"/>
<path d="M16.2808 16.2308C16.6661 16.2984 17.8014 17.005 18.1629 17.2608L16.3471 18.2298C16.1965 18.3741 15.5118 18.7159 15.2945 18.8554C14.3041 19.491 12.1066 20.5094 11.2739 21.2208C10.7252 20.8301 10.1878 20.5883 9.61293 20.1698L9.60645 20.0557C11.4235 19.2316 13.3579 17.7211 15.1588 16.7907C15.5646 16.581 15.8162 16.3657 16.2808 16.2308Z" fill="#91BFC5"/>
<path d="M16.2808 16.2308C16.6661 16.2984 17.8014 17.005 18.1629 17.2608L16.3471 18.2298C16.2937 17.6999 16.3185 16.8281 16.2808 16.2308Z" fill="#28A5A6"/>
<path d="M0.293701 22.6219C0.495213 22.3349 1.59874 21.7541 1.94244 21.5557L5.33458 19.6022L12.3242 15.5747C13.3969 14.9552 14.4727 14.3309 15.5414 13.7041C15.7296 13.5937 16.0605 13.4465 16.2839 13.464C16.4752 13.4789 16.4754 13.541 16.606 13.6959C13.1038 15.8444 9.32501 17.8816 5.77525 19.968C5.03856 20.4011 1.13508 22.6949 0.702819 22.7878C0.552071 22.733 0.437197 22.6934 0.293701 22.6219Z" fill="#BEE1E6"/>
<path d="M0.0580827 32.373C2.08925 32.7776 5.5762 35.4348 7.58414 36.4023C8.24438 36.7204 10.7283 38.1259 11.1827 38.5136C11.0649 38.704 11.1361 38.6463 10.9039 38.7195C10.3772 38.6588 9.87221 38.1655 9.41225 37.9067C6.27517 36.142 3.18198 34.2615 0.0339355 32.5191L0.0580827 32.373Z" fill="#E4FAFC"/>
<path d="M1.20842 24.7888C1.85832 25.1872 2.77554 25.6759 3.36974 26.0749C3.35361 26.213 2.91232 27.693 2.82954 28.0513C2.27454 27.7512 1.70557 27.4321 1.13189 27.1739C1.10851 26.5587 1.17386 25.4163 1.20842 24.7888Z" fill="#28A5A6"/>
<path d="M10.8028 24.595C10.7825 24.6326 10.8502 23.7949 10.8633 23.7093C11.0179 23.4584 11.6542 23.0953 11.9331 22.9151C12.3563 23.2374 12.4618 23.3746 12.9844 23.5016L12.7089 23.9236L13.0628 24.189C12.9229 24.4415 12.7557 24.7656 12.606 25.0046L12.5117 24.9835C12.1501 25.3071 11.2387 24.7606 10.8028 24.595Z" fill="#BEE1E6"/>
<path d="M12.7089 23.9237L13.0628 24.1891C12.9229 24.4415 12.7557 24.7657 12.6059 25.0047L12.5117 24.9835C12.2498 24.7495 12.1656 24.7416 12.0938 24.4544C12.1872 24.2323 12.4951 24.0675 12.7089 23.9237Z" fill="#F9FCFD"/>
<path d="M11.3501 43.1945L11.5305 43.1632C11.6743 44.826 11.5617 46.534 11.5585 48.1996C11.5583 48.3347 11.5932 48.3809 11.6788 48.4675L11.4182 48.7013C11.1096 48.1678 11.0895 43.7523 11.3501 43.1945Z" fill="#CEEBEF"/>
<path d="M0.47876 53.4154C0.997892 53.4525 9.95899 58.8697 11.3362 59.5523L11.3163 59.6636C10.9017 59.5996 8.39882 58.0551 7.86248 57.7434L2.17819 54.4612C1.90246 54.3 0.533304 53.5888 0.47876 53.4154Z" fill="#28A5A6"/>
<path d="M9.03832 20.2279C9.82817 20.6161 10.3964 21.1132 11.2441 21.4374C11.227 21.8035 10.8332 23.0147 10.5148 23.2437C10.363 23.0567 10.6309 22.0392 10.7218 21.823C10.5775 21.4579 9.298 20.9449 8.78296 20.5178L9.03832 20.2279Z" fill="#28A5A6"/>
<path d="M32.7495 8.29739C34.0041 8.07459 34.5715 8.76715 35.5165 9.11501C36.3048 9.76862 37.2014 10.4245 38.024 11.0466C40.036 9.35703 42.1853 11.393 44.0368 12.3142C45.1283 12.8573 47.1777 14.8591 47.68 15.956C48.9576 16.3866 50.2551 16.6138 50.8188 17.9295C50.9271 18.1824 51.0906 18.3957 51.0543 18.6737C50.8928 18.9205 50.9807 18.8616 50.7356 18.9263C50.0832 18.786 49.6036 17.9753 48.9574 18.1101L48.8614 18.285C48.6224 18.3133 48.6054 18.2985 48.467 18.5339L48.5869 18.6604C48.4778 18.921 48.4564 18.9663 48.1655 19.1239C48.3073 19.296 48.3838 19.358 48.4277 19.577C48.1615 20.0481 47.2729 19.4743 46.9233 19.4723C46.487 19.1776 46.1085 18.5155 45.8143 18.0672L45.5252 18.0661C44.9672 17.7226 44.1001 17.3511 43.8358 16.8557C42.3543 16.4657 41.236 16.2273 39.843 15.5899L39.6792 15.8081L39.2424 15.5619C38.8857 15.2124 38.1533 14.99 37.6965 14.6169L37.7428 14.4845C37.5243 14.3464 37.2063 14.1854 36.9727 14.0579C37.2169 13.5944 37.1604 13.2286 37.1477 12.7124C36.0718 10.8901 34.1665 10.0106 32.7495 8.29739Z" fill="#D7A685"/>
<path d="M38.0239 11.0466C40.0359 9.35703 42.1852 11.393 44.0367 12.3142C45.1282 12.8573 47.1776 14.8591 47.6799 15.956C45.4442 15.3498 42.4461 14.011 40.3645 12.8968C39.8693 12.6317 38.509 11.4555 38.0239 11.0466Z" fill="#3EBCC3"/>
<path d="M43.8359 16.8557C44.4817 16.9274 44.9336 17.0184 45.5702 17.1711C45.6284 17.3958 45.7369 17.8689 45.8144 18.0672L45.5253 18.0661C44.9673 17.7226 44.1002 17.3511 43.8359 16.8557Z" fill="#3EBCC3"/>
<path d="M48.1655 19.1239C47.858 18.9822 47.1255 18.6554 47.1973 18.2483C47.6111 18.0655 48.0739 18.3594 48.467 18.5339L48.587 18.6604C48.4778 18.921 48.4564 18.9663 48.1655 19.1239Z" fill="#0B9696"/>
<path d="M37.7428 14.4845C38.4227 14.8488 39.1523 15.2579 39.843 15.5898L39.6792 15.8081L39.2424 15.5619C38.8857 15.2124 38.1533 14.99 37.6965 14.6169L37.7428 14.4845Z" fill="#2A7579"/>
<path d="M50.0328 20.6502C52.3475 19.488 51.9415 23.6779 51.8684 24.844C51.8235 24.9135 51.8054 24.9605 51.7406 25.0051L51.2153 24.7257C50.4777 24.4054 49.824 24.092 49.105 23.7378C49.9062 22.902 49.597 22.4435 49.3632 21.4046C49.4052 21.0289 49.7449 20.8584 50.0328 20.6502Z" fill="#BEE1E6"/>
<path d="M50.0327 20.6502C52.3474 19.488 51.9414 23.6779 51.8684 24.844C51.8234 24.9135 51.8054 24.9605 51.7406 25.0051L51.2152 24.7257C51.2875 22.8974 51.59 21.8827 50.0327 20.6502Z" fill="#CEEBEF"/>
<path d="M48.467 18.5339C48.6054 18.2985 48.6225 18.3133 48.8615 18.285C49.3067 18.5119 50.2139 18.9388 50.3238 19.4703C49.859 19.4693 49.3807 18.8822 48.6355 18.676L48.587 18.6604L48.467 18.5339Z" fill="#D7A685"/>
</svg>
