<svg width="140" height="100" viewBox="0 0 140 100" fill="none" xmlns="http://www.w3.org/2000/svg">
<path opacity="0.12" d="M139.798 22.7606C139.798 25.5238 138.826 27.4646 137.255 28.3652L135.031 29.6492C132.858 30.9127 130.125 29.9441 128.039 28.5011L112.556 37.4827L117.476 39.8247C119.157 40.6251 120.444 42.0939 120.952 43.8853C121.092 44.3793 121.168 44.8708 121.168 45.3348V49.6004C121.168 51.2499 120.206 52.1375 118.825 51.7626L105.816 48.577L63.3177 73.1131C60.7452 74.8185 57.2794 73.2164 54.8623 71.1099C54.6214 71.7333 54.2176 72.2683 53.6063 72.5734C50.3248 74.4816 50.0234 74.8901 48.718 74.704C47.9932 74.6008 47.2964 74.2751 46.6805 73.8732C41.7178 76.7173 42.4854 76.4476 41.4806 76.5611C40.9279 76.6234 39.7705 76.75 37.2994 77.0226C36.6296 77.1184 35.8945 76.549 35.4591 76.0298L8.06206 91.8296H8.06023C7.74206 92.2148 4.90624 91.9776 5.37605 91.6333C6.22086 91.1449 33.8533 75.1906 34.6953 74.7049C34.0701 72.9986 34.5511 72.8962 37.4055 68.9495C37.4427 68.8956 38.9583 67.9159 41.5829 66.2449C42.1114 66.8561 42.7078 67.3726 43.3394 67.7373C44.4736 68.3922 45.4942 68.4267 46.2106 67.9531L48.9915 66.3389C49.8316 67.139 50.7285 67.8266 51.6598 68.3643C56.4355 71.122 60.3078 68.8863 60.3078 63.371C60.3078 60.9036 59.5318 58.1971 58.247 55.712C86.3316 38.0366 132.903 8.97872 133.405 9.42625C137.088 12.6984 139.798 18.1458 139.798 22.7606Z" fill="black"/>
<path d="M129.546 2.9709C127.038 1.52326 124.769 1.38959 123.129 2.34346L120.8 3.68862C119.154 4.63204 118.135 6.66403 118.135 9.55902C118.135 15.3354 122.191 22.3596 127.193 25.2479C129.701 26.6955 131.97 26.8292 133.61 25.8753L135.939 24.5301C137.585 23.5867 138.604 21.5547 138.604 18.6597C138.604 12.8834 134.548 5.85924 129.546 2.9709Z" fill="#DBE6EC"/>
<path opacity="0.12" d="M138.102 21.8044C137.649 23.0547 136.901 23.9785 135.939 24.53L133.644 25.8563C134.559 25.3126 135.275 24.4277 135.724 23.2398L138.102 21.8044Z" fill="black"/>
<path d="M133.595 25.8848C137.132 23.8425 137.132 17.2202 133.595 11.0934C130.058 4.96672 124.323 1.65566 120.785 3.69796C117.248 5.74026 117.248 12.3626 120.785 18.4893C124.323 24.616 130.058 27.9271 133.595 25.8848Z" fill="#E8F3F8"/>
<path opacity="0.12" d="M135.724 23.2399C134.471 26.558 131.124 27.5178 127.193 25.2482C125.664 24.3654 124.223 23.0956 122.961 21.594L129.698 19.9169L133.951 19.8417L135.724 23.2399Z" fill="black"/>
<path d="M127.247 6.78649L71.8522 38.7027L70.0535 38.703L126.174 6.16687L127.247 6.78649Z" fill="#DBE6EC"/>
<path d="M127.247 6.7865V14.7581L76.4363 44.0272L71.8522 38.7027L127.247 6.7865Z" fill="#C2CBCE"/>
<path d="M133.951 19.8416V18.6089L80.8055 49.1671V50.3999L133.951 19.8416Z" fill="#C2CBCE"/>
<path d="M133.951 18.6089L127.247 14.7582L76.4363 44.0273L80.8055 49.1672L133.951 18.6089Z" fill="#DBE6EC"/>
<path opacity="0.12" d="M114.909 29.5581C111.231 31.6716 112.412 30.9931 112.116 31.163C109.998 29.2957 108.274 27.7661 106.855 26.5045C107.142 26.3393 105.817 27.1024 109.657 24.8903C110.953 26.0421 112.64 27.5484 114.909 29.5581Z" fill="black"/>
<path d="M79.996 52.0204C79.996 54.7727 79.0294 56.6948 77.4649 57.5921C75.907 58.4855 73.7562 58.363 71.383 56.9928C66.6261 54.2465 62.77 47.5675 62.77 42.0749C62.77 39.3897 63.6374 37.4097 65.1353 36.4852C66.7015 35.5186 68.9517 35.6987 71.383 37.1024C76.1399 39.8488 79.996 46.5278 79.996 52.0204Z" fill="#263E53"/>
<path opacity="0.77" d="M106.658 36.6113C106.658 39.4947 105.599 41.481 103.907 42.3267L57.9904 68.8363C59.4287 67.8836 60.3079 65.9995 60.3079 63.3712C60.3079 57.8568 56.4356 51.1496 51.66 48.3929C49.3862 47.0801 47.3169 46.8987 45.7735 47.6644L84.0626 25.5584L91.6843 21.1577C93.2631 20.1147 95.5128 20.191 98.01 21.6322C102.786 24.3899 106.658 31.0961 106.658 36.6113Z" fill="#DBE6EC"/>
<path opacity="0.35" d="M76.7829 50.1654C76.7829 51.8939 76.1759 53.101 75.1933 53.6645C74.2149 54.2256 72.8642 54.1487 71.3737 53.2882C68.3863 51.5634 65.9645 47.3689 65.9645 43.9193C65.9645 42.2329 66.5093 40.9895 67.45 40.4089C68.4335 39.8019 69.8467 39.915 71.3737 40.7965C74.3612 42.5214 76.7829 46.7159 76.7829 50.1654Z" fill="#32526E"/>
<path opacity="0.5" d="M81.5595 51.1178C81.5595 53.7358 80.684 55.6115 79.2521 56.5605C79.2521 56.5605 58.468 68.5597 57.9975 68.8314C59.4312 67.8768 60.3076 65.9946 60.3076 63.371C60.3076 57.8566 56.4363 51.1503 51.6597 48.3927C49.3859 47.0799 47.3166 46.8984 45.7732 47.6641C46.2821 47.3703 65.2938 36.3938 66.8687 35.4844C68.4253 34.6303 70.6024 34.8452 72.9469 36.1999C77.704 38.9464 81.5595 45.6248 81.5595 51.1178Z" fill="#3598DB"/>
<path d="M115.206 35.0156L100.669 22.1754L100.641 22.1512C99.8034 21.3995 98.9204 20.7473 98.0096 20.2216C97.0988 19.695 96.2158 19.3284 95.3784 19.1126L95.3505 19.1051L80.8133 15.1593C79.4326 14.7844 78.4706 15.6719 78.4706 17.3215V23.3532C78.4706 25.0028 79.4326 27.0013 80.8133 28.221L83.7515 30.8168L89.3961 27.5363C89.3728 27.2302 89.3617 26.9259 89.3617 26.6254C89.3617 21.1101 93.233 18.8753 98.0096 21.633C102.786 24.3907 106.658 31.0969 106.658 36.6113C106.658 39.5029 105.593 41.4939 103.891 42.335L103.89 42.3359L100.744 44.1521L115.206 48.0774C116.587 48.4523 117.549 47.5648 117.549 45.9152V39.8835C117.549 38.2339 116.587 36.2354 115.206 35.0156Z" fill="#E8F3F8"/>
<path d="M81.9903 17.0841V26.3837C81.9903 26.9121 81.3423 27.1646 80.983 26.7772C80.9789 26.7726 80.9747 26.7681 80.9705 26.7636C80.8716 26.6563 80.817 26.5162 80.817 26.3703V17.0841C80.817 16.6975 81.1845 16.4166 81.5576 16.5181C81.813 16.5876 81.9903 16.8195 81.9903 17.0841Z" fill="#D5DFE3"/>
<path d="M85.0298 17.9088V29.1548C85.0298 29.6602 84.4335 29.929 84.0549 29.5945C83.9288 29.4832 83.8566 29.3231 83.8566 29.1548V17.9088C83.8566 17.5224 84.2238 17.2415 84.5968 17.3427C84.8524 17.412 85.0298 17.6441 85.0298 17.9088Z" fill="#D5DFE3"/>
<path d="M88.0694 18.7348V28.2582L86.8952 28.9393V18.7348C86.8952 18.3478 87.2627 18.0668 87.6358 18.1682C87.7642 18.2026 87.8721 18.278 87.9484 18.3776C88.0248 18.478 88.0694 18.6017 88.0694 18.7348Z" fill="#D5DFE3"/>
<path d="M108.946 31.2415V44.4541C108.946 44.841 108.579 45.122 108.205 45.0206C107.95 44.9511 107.772 44.719 107.772 44.4541V31.2415C107.772 30.7358 108.369 30.4668 108.748 30.8016C108.874 30.913 108.946 31.0732 108.946 31.2415Z" fill="#D5DFE3"/>
<path d="M111.985 33.9246V45.2794C111.985 45.6659 111.618 45.9467 111.245 45.8456C110.989 45.7762 110.812 45.5442 110.812 45.2794V33.9246C110.812 33.4192 111.408 33.1504 111.787 33.4849C111.913 33.5963 111.985 33.7563 111.985 33.9246Z" fill="#D5DFE3"/>
<path d="M115.025 36.6594V46.1045C115.025 46.491 114.657 46.7718 114.284 46.6707C114.029 46.6014 113.851 46.3694 113.851 46.1045V36.6514C113.851 36.1349 114.475 35.8748 114.842 36.2381L114.854 36.25C114.963 36.3582 115.025 36.5056 115.025 36.6594Z" fill="#D5DFE3"/>
<path d="M103.893 42.325L100.746 44.142L100.67 44.1215L100.642 44.1141C99.8051 43.8982 98.9221 43.5316 98.0113 43.0051C97.3442 42.6199 96.692 42.1668 96.0612 41.656L97.1348 41.0374C97.4223 41.2373 97.7154 41.4235 98.0113 41.5947C100.283 42.9065 102.351 43.0879 103.893 42.325Z" fill="#C2CBCE"/>
<path d="M83.3266 50.0766C83.3266 52.8204 82.3636 54.7621 80.8071 55.6636C80.6724 55.7414 77.5159 57.5624 77.4651 57.5923C82.2228 53.9056 78.2602 41.586 70.8854 37.3276C68.5111 35.9571 66.3507 35.7999 64.7877 36.6865C64.7272 36.7217 65.6105 36.212 68.6833 34.4378C74.0391 31.5621 83.3266 41.2214 83.3266 50.0766Z" fill="#32526E"/>
<path d="M83.3266 50.0766C83.3266 52.8204 82.3636 54.7621 80.8071 55.6636C80.6722 55.7418 77.5163 57.5625 77.4651 57.5923C79.1333 56.3001 79.7297 53.947 79.4822 51.2518C79.485 51.2461 79.486 51.2406 79.486 51.235L83.2829 49.0198C83.3117 49.3733 83.3266 49.726 83.3266 50.0766Z" fill="#263E53"/>
<path d="M98.7251 22.0804L98.6702 22.112C96.8429 21.3602 95.1794 21.3463 93.9178 22.0227C92.5799 22.7419 91.6923 24.236 91.4225 26.3136L89.4286 27.4701C89.4072 27.1789 89.397 26.8904 89.397 26.6048C89.397 23.7941 90.3563 21.7827 91.9797 20.9118C93.5288 20.08 95.6864 20.2912 98.0096 21.6328C98.2506 21.7715 98.4888 21.9213 98.7251 22.0804Z" fill="#DBE6EC"/>
<path d="M98.9354 22.2256C98.847 22.1856 98.7586 22.1484 98.6703 22.1121L98.7252 22.0804C98.7958 22.1278 98.8657 22.1763 98.9354 22.2256Z" fill="#DBE6EC"/>
<path d="M63.8791 63.8626C64.6908 63.8626 65.3488 63.2046 65.3488 62.3929C65.3488 61.5812 64.6908 60.9232 63.8791 60.9232C63.0674 60.9232 62.4094 61.5812 62.4094 62.3929C62.4094 63.2046 63.0674 63.8626 63.8791 63.8626Z" fill="#86C1E9"/>
<path opacity="0.56" d="M64.2772 62.3092C64.3568 61.9722 64.1481 61.6345 63.8111 61.5549C63.4741 61.4753 63.1364 61.684 63.0568 62.021C62.9773 62.358 63.1859 62.6957 63.5229 62.7753C63.8599 62.8549 64.1977 62.6462 64.2772 62.3092Z" fill="#B6DAF2"/>
<path d="M57.8237 49.3054C57.8998 48.8369 57.5816 48.3955 57.1131 48.3194C56.6445 48.2434 56.2031 48.5616 56.127 49.0301C56.051 49.4986 56.3692 49.9401 56.8377 50.0161C57.3062 50.0921 57.7477 49.774 57.8237 49.3054Z" fill="#86C1E9"/>
<path opacity="0.56" d="M57.2164 49.0288C57.2164 49.2313 57.0522 49.3955 56.8497 49.3955C56.6472 49.3955 56.483 49.2313 56.483 49.0288C56.483 48.8262 56.6472 48.6621 56.8497 48.6621C57.0523 48.662 57.2164 48.8262 57.2164 49.0288Z" fill="#B6DAF2"/>
<path d="M65.4439 52.0223C65.8071 51.6591 65.8071 51.0702 65.4439 50.7069C65.0807 50.3437 64.4918 50.3437 64.1285 50.7069C63.7653 51.0702 63.7653 51.6591 64.1285 52.0223C64.4918 52.3856 65.0807 52.3856 65.4439 52.0223Z" fill="#86C1E9"/>
<path opacity="0.56" d="M64.6541 51.6119C64.8733 51.6119 65.0509 51.4342 65.0509 51.2151C65.0509 50.9959 64.8733 50.8182 64.6541 50.8182C64.4349 50.8182 64.2573 50.9959 64.2573 51.2151C64.2573 51.4342 64.4349 51.6119 64.6541 51.6119Z" fill="#B6DAF2"/>
<path d="M62.214 56.9158C62.4214 56.7085 62.4214 56.3723 62.214 56.165C62.0067 55.9577 61.6706 55.9577 61.4633 56.165C61.256 56.3723 61.256 56.7085 61.4633 56.9158C61.6706 57.1231 62.0067 57.1231 62.214 56.9158Z" fill="#86C1E9"/>
<path opacity="0.56" d="M61.9903 56.4551C61.9903 56.5803 61.8889 56.6817 61.7638 56.6817C61.6386 56.6817 61.5373 56.5803 61.5373 56.4551C61.5373 56.33 61.6386 56.2286 61.7638 56.2286C61.8889 56.2286 61.9903 56.33 61.9903 56.4551Z" fill="#B6DAF2"/>
<path d="M75.6656 48.7928C75.733 48.5074 75.5563 48.2215 75.2709 48.1541C74.9856 48.0868 74.6997 48.2634 74.6323 48.5488C74.5649 48.8341 74.7416 49.12 75.0269 49.1874C75.3123 49.2548 75.5982 49.0781 75.6656 48.7928Z" fill="#86C1E9"/>
<path opacity="0.56" d="M75.2996 48.5766C75.2996 48.7017 75.1982 48.8031 75.0731 48.8031C74.948 48.8031 74.8466 48.7017 74.8466 48.5766C74.8466 48.4515 74.948 48.3501 75.0731 48.3501C75.1982 48.3501 75.2996 48.4515 75.2996 48.5766Z" fill="#B6DAF2"/>
<path d="M63.8173 41.9476C63.8846 41.6622 63.7079 41.3763 63.4226 41.3089C63.1373 41.2415 62.8513 41.4182 62.784 41.7036C62.7166 41.9889 62.8933 42.2748 63.1786 42.3422C63.4639 42.4096 63.7499 42.2329 63.8173 41.9476Z" fill="#86C1E9"/>
<path opacity="0.56" d="M63.4512 41.7321C63.4512 41.8572 63.3499 41.9586 63.2247 41.9586C63.0996 41.9586 62.9982 41.8572 62.9982 41.7321C62.9982 41.607 63.0996 41.5056 63.2247 41.5056C63.3499 41.5056 63.4512 41.6071 63.4512 41.7321Z" fill="#B6DAF2"/>
<path d="M70.7583 54.78C71.57 54.78 72.228 54.122 72.228 53.3103C72.228 52.4986 71.57 51.8406 70.7583 51.8406C69.9466 51.8406 69.2886 52.4986 69.2886 53.3103C69.2886 54.122 69.9466 54.78 70.7583 54.78Z" fill="#86C1E9"/>
<path opacity="0.56" d="M70.5476 53.7008C70.894 53.7008 71.1747 53.4201 71.1747 53.0737C71.1747 52.7274 70.894 52.4467 70.5476 52.4467C70.2013 52.4467 69.9206 52.7274 69.9206 53.0737C69.9206 53.4201 70.2013 53.7008 70.5476 53.7008Z" fill="#B6DAF2"/>
<path d="M65.051 46.468C65.8627 46.468 66.5207 45.81 66.5207 44.9983C66.5207 44.1866 65.8627 43.5286 65.051 43.5286C64.2393 43.5286 63.5813 44.1866 63.5813 44.9983C63.5813 45.81 64.2393 46.468 65.051 46.468Z" fill="#86C1E9"/>
<path opacity="0.56" d="M64.8403 45.3889C65.1866 45.3889 65.4674 45.1082 65.4674 44.7618C65.4674 44.4155 65.1866 44.1348 64.8403 44.1348C64.494 44.1348 64.2132 44.4155 64.2132 44.7618C64.2132 45.1082 64.494 45.3889 64.8403 45.3889Z" fill="#B6DAF2"/>
<path d="M118.33 39.4321V45.4638C118.33 46.678 117.808 47.4809 116.981 47.6688C117.342 47.2818 117.549 46.6798 117.549 45.9151V39.8834C117.549 38.2338 116.587 36.2353 115.206 35.0156C100.804 22.3967 100.208 21.4896 98.01 20.2215C95.8282 18.9599 95.4868 19.2455 80.8137 15.1592C80.4499 15.0606 80.1149 15.0495 79.82 15.1164C79.7055 15.1425 79.5976 15.1797 79.4962 15.2281C79.4962 15.2281 80.1472 14.8477 80.1569 14.8419C80.5425 14.612 81.0343 14.5556 81.5951 14.7081C96.0849 18.7441 96.6022 18.504 98.7914 19.7703C100.992 21.0403 101.611 21.9688 115.988 34.5644C117.368 35.7841 118.33 37.7826 118.33 39.4321Z" fill="#DBE6EC"/>
<path opacity="0.46" d="M53.8296 63.4073C53.7059 63.5524 53.5654 63.6752 53.4119 63.7739L53.2528 63.8669L53.2481 63.8687L46.2107 67.9532C45.4943 68.4268 44.4737 68.3923 43.3395 67.7373C41.1726 66.486 39.4151 63.4427 39.4151 60.9399C39.4151 59.6309 39.8952 58.7294 40.6637 58.346L47.6649 54.283L47.8817 54.1574C48.038 54.0792 48.2064 54.0225 48.385 53.989C47.9738 54.4682 47.7347 55.1893 47.7347 56.1122C47.7347 58.6149 49.4921 61.6591 51.66 62.9105C52.4619 63.3738 53.2081 63.5264 53.8296 63.4073Z" fill="#3598DB"/>
<path d="M127.769 2.14724L125.417 3.50569C124.612 3.22506 123.844 3.09059 123.131 3.09249L125.484 1.73403C126.197 1.73206 126.964 1.86653 127.769 2.14724Z" fill="#C2CBCE"/>
<path d="M130.731 3.74437L128.377 5.10283C127.989 4.82022 127.595 4.56201 127.193 4.33003C127.112 4.28328 127.031 4.23748 126.951 4.19461L129.304 2.83521C129.385 2.87903 129.465 2.92388 129.546 2.97063C129.947 3.20254 130.343 3.46074 130.731 3.74437Z" fill="#C2CBCE"/>
<path d="M132.992 5.74599L130.64 7.10445C130.277 6.72243 129.902 6.35992 129.517 6.01983L131.871 4.66138C132.256 5.00052 132.631 5.36398 132.992 5.74599Z" fill="#C2CBCE"/>
<path d="M134.833 7.99011L132.48 9.34856C132.187 8.93441 131.88 8.53289 131.562 8.14605L133.914 6.7876C134.233 7.17451 134.54 7.57595 134.833 7.99011Z" fill="#C2CBCE"/>
<path d="M136.336 10.4284L133.983 11.7869C133.749 11.3454 133.5 10.9108 133.236 10.486L135.588 9.12854C135.852 9.55234 136.102 9.98694 136.336 10.4284Z" fill="#C2CBCE"/>
<path d="M137.515 13.0555L135.162 14.413C134.989 13.9433 134.796 13.4755 134.587 13.0136L136.939 11.6552C137.149 12.1171 137.341 12.5848 137.515 13.0555Z" fill="#C2CBCE"/>
<path d="M138.321 15.8971L135.969 17.2545C135.87 16.7508 135.746 16.243 135.598 15.7363L137.95 14.3778C138.099 14.8846 138.222 15.3923 138.321 15.8971Z" fill="#C2CBCE"/>
<path d="M138.603 18.6597C138.603 18.7893 138.601 18.918 138.596 19.0447L136.246 20.4012C136.25 20.2755 136.252 20.1478 136.252 20.0182C136.252 19.5865 136.229 19.148 136.185 18.7046L138.536 17.3472C138.581 17.7905 138.603 18.2281 138.603 18.6597Z" fill="#C2CBCE"/>
<path d="M138.405 20.7306C138.227 21.593 137.935 22.3385 137.544 22.9592L135.195 24.3157C135.584 23.695 135.877 22.9495 136.053 22.088L138.405 20.7306Z" fill="#C2CBCE"/>
<path d="M63.176 49.0558C62.8788 49.2274 62.5018 49.1516 62.2913 48.8805C60.9517 47.1553 59.3744 45.6962 57.6861 44.7207C55.8765 43.6768 54.1944 43.3354 52.797 43.6098L53.9953 42.9176C55.3928 42.6431 57.0749 42.9846 58.8845 44.0285C60.5222 44.9747 62.0555 46.3761 63.3687 48.034C63.629 48.3628 63.5392 48.8459 63.176 49.0558Z" fill="#263E53"/>
<path d="M71.1194 44.4697C70.8224 44.6415 70.4454 44.5657 70.235 44.2947C68.8954 42.5695 67.318 41.1103 65.6297 40.1348C63.82 39.0909 62.1379 38.7495 60.7406 39.0239L61.9379 38.3317C61.9389 38.3317 61.9389 38.3317 61.9398 38.3317C63.3373 38.0572 65.0185 38.3986 66.8272 39.4425C68.4651 40.3888 69.9985 41.7905 71.3118 43.4485C71.572 43.7772 71.4823 44.26 71.1194 44.4697Z" fill="#263E53"/>
<path d="M79.0623 39.884C78.7652 40.0557 78.3881 39.9799 78.1777 39.7088C76.8381 37.9836 75.2608 36.5244 73.5725 35.5489C71.7629 34.5051 70.0807 34.1636 68.6833 34.4381L69.8816 33.7458C71.2791 33.4713 72.9612 33.8128 74.7707 34.8568C76.4084 35.803 77.9417 37.2044 79.2549 38.8622C79.5154 39.1911 79.4255 39.6742 79.0623 39.884Z" fill="#263E53"/>
<path d="M87.006 35.2974C86.7089 35.4694 86.3315 35.3937 86.121 35.1225C84.7814 33.3975 83.2042 31.9384 81.516 30.9631C79.7064 29.9192 78.0243 29.5777 76.6268 29.8521L77.8279 29.1581C79.2245 28.8855 80.9057 29.2278 82.7134 30.2699C84.3513 31.217 85.8848 32.6181 87.1981 34.276C87.4584 34.6046 87.3688 35.0874 87.006 35.2974Z" fill="#263E53"/>
<path d="M94.9438 30.7156C94.6493 30.8854 94.2759 30.8102 94.0675 30.5417C92.7271 28.8145 91.1485 27.3536 89.4587 26.3772C87.6491 25.3333 85.9669 24.9919 84.5695 25.2663L85.7706 24.5731C87.1671 24.2986 88.8482 24.6411 90.6569 25.684C91.8745 26.3875 93.0344 27.3426 94.089 28.4676C94.3807 28.7788 94.8048 29.2936 95.1337 29.7019C95.3951 30.0264 95.3047 30.5074 94.9438 30.7156Z" fill="#263E53"/>
<path d="M54.0801 46.4668C53.7159 46.6773 53.2728 46.6907 52.8922 46.5116C51.4691 45.8424 50.1438 45.621 48.999 45.8018L50.1992 45.1096C51.3317 44.9305 52.6412 45.1465 54.0473 45.7998C54.3242 45.9285 54.3444 46.314 54.0801 46.4668Z" fill="#263E53"/>
<path d="M62.0233 41.8812C61.6593 42.0915 61.2164 42.1051 60.8359 41.9262C59.412 41.2573 58.0866 41.035 56.9426 41.2159L58.1428 40.5237C59.2744 40.3446 60.5837 40.5613 61.9903 41.2141C62.2675 41.3427 62.2877 41.7283 62.0233 41.8812Z" fill="#263E53"/>
<path d="M69.9668 37.2952C69.6029 37.5051 69.1604 37.5183 68.7803 37.3396C67.3569 36.6705 66.0314 36.4482 64.8873 36.6291L66.0874 35.9369C67.054 35.784 68.1503 35.9197 69.3256 36.3694C69.488 36.4315 69.7202 36.5367 69.9401 36.6404C70.2101 36.7677 70.2253 37.1461 69.9668 37.2952Z" fill="#263E53"/>
<path d="M77.9095 32.7094C77.5456 32.9193 77.1031 32.9325 76.723 32.7537C75.2998 32.0847 73.975 31.8624 72.8309 32.0433L74.0283 31.351C74.0293 31.351 74.0293 31.351 74.0302 31.351C75.0203 31.1945 76.1453 31.3399 77.352 31.8155C77.5255 31.8839 77.7008 31.9591 77.8775 32.0413C78.1543 32.17 78.1736 32.5564 77.9095 32.7094Z" fill="#263E53"/>
<path d="M85.8531 28.1233C85.4892 28.3333 85.0466 28.3465 84.6665 28.1678C83.2431 27.4988 81.9176 27.2765 80.7736 27.4573L81.9737 26.7651C83.1052 26.5862 84.4142 26.8027 85.8199 27.4551C86.0973 27.5839 86.1177 27.9701 85.8531 28.1233Z" fill="#263E53"/>
<path opacity="0.31" d="M94.5815 24.4827L53.61 47.9759C53.2602 47.7237 52.9039 47.4921 52.5429 47.2836C51.8414 46.8789 51.1603 46.5812 50.5072 46.3867L89.9267 24.4827H94.5815Z" fill="white"/>
<path opacity="0.78" d="M51.6596 53.8462C50.5261 53.1918 49.5052 53.1572 48.7887 53.6308L40.6637 58.3459C39.8955 58.7296 39.4149 59.631 39.4149 60.9397C39.4149 63.4427 41.1722 66.4862 43.3399 67.7377C44.4733 68.3921 45.4943 68.4267 46.2108 67.9531L54.3357 63.2381C55.104 62.8543 55.5845 61.9529 55.5845 60.6442C55.5845 58.1413 53.8272 55.0977 51.6596 53.8462Z" fill="#3598DB"/>
<path opacity="0.67" d="M60.3078 63.3709C60.3078 68.8862 56.4356 71.1219 51.6599 68.3643C50.7286 67.8265 49.8317 67.139 48.9916 66.3389L54.3357 63.2379C55.1042 62.8546 55.5843 61.953 55.5843 60.644C55.5843 58.1412 53.8268 55.098 51.6599 53.8466C50.5258 53.1916 49.5051 53.1571 48.7887 53.6308L43.4372 56.7364C43.1608 55.5995 43.011 54.4691 43.011 53.3852C43.011 47.8698 46.8833 45.6351 51.6599 48.3928C56.4356 51.1503 60.3078 57.8564 60.3078 63.3709Z" fill="#3598DB"/>
<path d="M37.1367 72.0446C38.3901 71.3209 38.3901 68.9742 37.1366 66.8032C35.8831 64.6322 33.8509 63.4589 32.5974 64.1826C31.344 64.9063 31.3441 67.2529 32.5975 69.4239C33.851 71.5949 35.8833 72.7682 37.1367 72.0446Z" fill="white"/>
<path d="M46.112 68.0125C47.6448 67.1276 47.6448 64.2581 46.112 61.6034C44.5792 58.9486 42.0942 57.5139 40.5614 58.3989C39.0287 59.2838 39.0287 62.1533 40.5615 64.8081C42.0942 67.4628 44.5793 68.8975 46.112 68.0125Z" fill="white"/>
<path d="M44.9546 56.6297C43.5467 55.8168 42.2783 55.7739 41.3882 56.3621L38.3496 58.1285C37.3952 58.6051 36.7982 59.725 36.7982 61.3507C36.7982 64.4601 38.9812 68.241 41.6741 69.7957C43.082 70.6086 44.3504 70.6516 45.2405 70.0633L48.2791 68.2969C49.2335 67.8202 49.8305 66.7004 49.8305 65.0746C49.8304 61.9654 47.6474 58.1844 44.9546 56.6297Z" fill="#FA4659"/>
<path opacity="0.12" d="M49.8309 65.0747C49.8309 66.7 49.2336 67.8202 48.279 68.2966L45.2543 70.055C46.0581 69.5154 46.5503 68.4566 46.5503 66.981C46.5503 66.5177 46.5019 66.0404 46.4107 65.5566L48.6855 64.2345C49.0623 64.0456 49.3842 63.7573 49.6344 63.3767C49.762 63.9527 49.8309 64.5238 49.8309 65.0747Z" fill="black"/>
<path d="M45.1186 70.137C47.0227 69.0377 47.0227 65.473 45.1186 62.1751C43.2145 58.8772 40.1274 57.0949 38.2233 58.1943C36.3193 59.2936 36.3193 62.8583 38.2234 66.1562C40.1275 69.4541 43.2146 71.2363 45.1186 70.137Z" fill="#FB6B7A"/>
<path d="M41.6741 60.4596C40.7472 59.9245 39.9122 59.8962 39.3263 60.2834L32.6818 64.1393C32.0536 64.4531 31.6606 65.1904 31.6606 66.2605C31.6606 68.3074 33.0976 70.7964 34.8704 71.8199C35.7973 72.355 36.6322 72.3833 37.2181 71.9961L43.8626 68.1401C44.4909 67.8263 44.8839 67.0891 44.8839 66.019C44.8839 63.9721 43.4468 61.4831 41.6741 60.4596Z" fill="#FA4659"/>
<path d="M43.9406 68.0966C45.1941 67.3729 45.194 65.0262 43.9406 62.8552C42.6871 60.6842 40.6548 59.5109 39.4014 60.2346C38.148 60.9583 38.148 63.3049 39.4015 65.4759C40.655 67.647 42.6872 68.8203 43.9406 68.0966Z" fill="#FA4659"/>
<path opacity="0.12" d="M44.884 66.019C44.884 67.0889 44.4904 67.8267 43.8624 68.1403L37.2185 71.9958C37.2139 71.9986 37.2093 72.0013 37.2046 72.0042C37.747 71.6534 38.0801 70.951 38.0801 69.9667C38.0801 69.8755 38.0773 69.7834 38.0717 69.6913L42.3747 67.2527C44.523 66.0312 44.1341 63.2056 44.1341 63.2056C44.5705 64.0578 44.845 64.978 44.8803 65.833C44.8831 65.8952 44.884 65.9576 44.884 66.019Z" fill="black"/>
<path d="M34.8703 64.4074C33.6921 63.7272 32.6627 63.8664 32.1045 64.6367L29.4253 68.3419C29.2517 68.5668 29.1514 68.8917 29.1514 69.3018C29.1514 70.4806 29.9789 71.9139 30.9998 72.5034C31.3567 72.7094 31.6898 72.7846 31.9723 72.7454L36.503 72.247C37.4468 72.1466 38.0801 71.3252 38.0801 69.9669C38.0801 67.92 36.643 65.4309 34.8703 64.4074Z" fill="#FB6B7A"/>
<path opacity="0.12" d="M38.0717 69.6912C37.7618 69.7358 32.3563 70.3052 32.3563 70.3052L31.972 72.7456L36.5031 72.2469C37.4465 72.1464 38.0801 71.3249 38.0801 69.9665C38.0801 69.8754 38.0773 69.7833 38.0717 69.6912Z" fill="black"/>
<path d="M32.3038 72.6322C33.0256 72.2155 33.0256 70.8641 32.3037 69.6138C31.5819 68.3636 30.4115 67.6879 29.6897 68.1046C28.9679 68.5214 28.9679 69.8728 29.6898 71.123C30.4116 72.3733 31.582 73.049 32.3038 72.6322Z" fill="#FB8894"/>
<path opacity="0.12" d="M32.5238 72.4562C32.1907 72.8237 31.6325 72.8684 30.9998 72.5037C30.4955 72.2125 30.0397 71.7157 29.7057 71.1453L31.5004 70.4187L32.5238 72.4562Z" fill="black"/>
<path d="M30.9996 69.7441C30.8432 69.6539 30.7028 69.6493 30.6041 69.7143L0.047348 87.3564L2.7346 87.5527L31.3689 71.0393C31.475 70.9862 31.541 70.8616 31.541 70.6811C31.541 70.3359 31.2991 69.9163 30.9996 69.7441Z" fill="#E8F3F8"/>
<path d="M31.5413 70.6812C31.5413 70.8616 31.4753 70.9863 31.3692 71.0394L2.73468 87.5528C2.7812 87.496 2.74023 87.4337 2.59794 87.3732C2.39422 87.2876 2.02857 87.2253 1.62479 87.1992L31.1943 70.1787C31.2473 70.1526 31.2901 70.108 31.319 70.0485C31.4538 70.2393 31.5413 70.4737 31.5413 70.6812Z" fill="#D5DFE3"/>
<path d="M2.5975 87.3734C2.94811 87.5214 2.68566 87.6836 2.01133 87.7357C1.337 87.7879 0.506061 87.7102 0.155455 87.5622C-0.195152 87.4142 0.0672914 87.252 0.741625 87.1998C1.41596 87.1477 2.24689 87.2254 2.5975 87.3734Z" fill="#C2CBCE"/>
<path d="M50.2077 51.1432C50.7086 50.9377 50.948 50.3651 50.7425 49.8642C50.537 49.3634 49.9644 49.124 49.4636 49.3295C48.9628 49.535 48.7233 50.1075 48.9288 50.6084C49.1343 51.1092 49.7069 51.3487 50.2077 51.1432Z" fill="#86C1E9"/>
<path opacity="0.56" d="M49.69 50.4953C49.9209 50.4953 50.1081 50.3081 50.1081 50.0771C50.1081 49.8462 49.9209 49.6589 49.69 49.6589C49.459 49.6589 49.2718 49.8462 49.2718 50.0771C49.2718 50.3081 49.459 50.4953 49.69 50.4953Z" fill="#B6DAF2"/>
<path d="M56.9729 66.9991C57.4476 66.9991 57.8323 66.6143 57.8323 66.1397C57.8323 65.6651 57.4476 65.2803 56.9729 65.2803C56.4983 65.2803 56.1135 65.6651 56.1135 66.1397C56.1135 66.6143 56.4983 66.9991 56.9729 66.9991Z" fill="#86C1E9"/>
<path opacity="0.56" d="M57.2164 66.0014C57.2164 66.2039 57.0522 66.3681 56.8497 66.3681C56.6471 66.3681 56.483 66.2039 56.483 66.0014C56.483 65.799 56.6471 65.6348 56.8497 65.6348C57.0522 65.6348 57.2164 65.799 57.2164 66.0014Z" fill="#B6DAF2"/>
<path d="M51.3788 58.2577C51.454 57.9378 51.2557 57.6174 50.9357 57.5421C50.6158 57.4668 50.2954 57.6652 50.2201 57.9851C50.1449 58.3051 50.3432 58.6255 50.6632 58.7007C50.9831 58.776 51.3035 58.5777 51.3788 58.2577Z" fill="#86C1E9"/>
<path opacity="0.56" d="M50.7148 58.2722C50.855 58.2722 50.9687 58.1585 50.9687 58.0183C50.9687 57.8781 50.855 57.7644 50.7148 57.7644C50.5745 57.7644 50.4609 57.8781 50.4609 58.0183C50.4609 58.1585 50.5745 58.2722 50.7148 58.2722Z" fill="#B6DAF2"/>
<path d="M44.8839 54.1697C45.1212 54.1697 45.3136 53.9773 45.3136 53.74C45.3136 53.5027 45.1212 53.3103 44.8839 53.3103C44.6466 53.3103 44.4542 53.5027 44.4542 53.74C44.4542 53.9773 44.6466 54.1697 44.8839 54.1697Z" fill="#86C1E9"/>
<path opacity="0.56" d="M45.0056 53.6709C45.0056 53.7721 44.9235 53.8542 44.8223 53.8542C44.7211 53.8542 44.639 53.7721 44.639 53.6709C44.639 53.5696 44.7211 53.4875 44.8223 53.4875C44.9235 53.4875 45.0056 53.5696 45.0056 53.6709Z" fill="#B6DAF2"/>
<path opacity="0.12" d="M118.686 64.4912C118.686 64.4912 119.211 69.7035 113.895 73.1635L73.7668 96.3313C69.6099 98.7315 63.7563 99.7709 58.7075 99.0792C64.0221 100.159 70.5434 99.1588 75.0611 96.5504L115.19 73.3826C116.054 72.8832 116.812 72.3471 117.46 71.7856C118.986 70.4647 119.715 68.4398 119.338 66.4574C119.113 65.2771 118.686 64.4912 118.686 64.4912Z" fill="black"/>
<path d="M115.414 61.0241L113.95 60.2437C113.126 59.7683 112.304 59.2195 111.318 58.9074C109.549 58.3477 107.464 58.2043 105.406 58.1598C105.422 58.3139 105.327 58.4717 105.122 58.59C104.742 58.8091 104.126 58.8091 103.745 58.59C103.555 58.4797 103.46 58.3351 103.461 58.1912C102.323 58.253 101.179 58.1809 100.023 58.3504C97.4371 58.7297 94.8754 59.6011 92.7982 60.8004L69.1505 74.4686L52.6428 83.9323C46.4487 87.5085 46.0254 93.2658 51.3896 96.3628L52.8381 97.1992C58.4067 100.413 67.8218 99.7631 73.7671 96.3314L113.895 73.1636C120.09 69.5875 120.778 64.1219 115.414 61.0241ZM114.272 61.3445C114.651 61.1247 115.268 61.1247 115.649 61.3445C116.028 61.5637 116.028 61.9201 115.649 62.1392C115.268 62.3591 114.651 62.3591 114.272 62.1392C113.891 61.9201 113.891 61.5637 114.272 61.3445ZM113.76 63.7323C114.139 63.5125 114.756 63.5125 115.136 63.7323C115.516 63.9514 115.516 64.3072 115.136 64.527C114.756 64.7462 114.139 64.7462 113.76 64.527C113.379 64.3072 113.379 63.9514 113.76 63.7323ZM110.441 59.3417C110.82 59.1218 111.437 59.1218 111.817 59.3417C112.197 59.5608 112.197 59.9166 111.817 60.1364C111.437 60.3555 110.82 60.3555 110.441 60.1364C110.06 59.9166 110.06 59.5608 110.441 59.3417ZM110.19 61.671C110.57 61.4519 111.186 61.4519 111.566 61.671C111.947 61.8909 111.947 62.2466 111.566 62.4658C111.186 62.6856 110.57 62.6856 110.19 62.4658C109.809 62.2466 109.809 61.8909 110.19 61.671ZM109.132 64.3422C109.513 64.1231 110.129 64.1231 110.509 64.3422C110.889 64.5621 110.889 64.9178 110.509 65.1377C110.129 65.3568 109.513 65.3568 109.132 65.1377C108.753 64.9178 108.753 64.5621 109.132 64.3422ZM109.285 67.1106C109.665 67.3297 109.665 67.6854 109.285 67.9053C108.904 68.1244 108.289 68.1244 107.908 67.9053C107.528 67.6854 107.528 67.3297 107.908 67.1106C108.289 66.8907 108.904 66.8907 109.285 67.1106ZM106.62 59.6098C107 59.3906 107.616 59.3906 107.997 59.6098C108.376 59.8296 108.376 60.1853 107.997 60.4045C107.616 60.6243 107 60.6243 106.62 60.4045C106.24 60.1853 106.24 59.8296 106.62 59.6098ZM105.563 62.2817C105.943 62.0618 106.559 62.0618 106.94 62.2817C107.319 62.5008 107.319 62.8565 106.94 63.0764C106.559 63.2955 105.943 63.2955 105.563 63.0764C105.182 62.8565 105.182 62.5008 105.563 62.2817ZM104.339 65.0493C104.718 64.8302 105.335 64.8302 105.715 65.0493C106.095 65.2691 106.095 65.6249 105.715 65.844C105.335 66.0639 104.718 66.0639 104.339 65.844C103.958 65.6249 103.958 65.2691 104.339 65.0493ZM104.658 67.7205C105.038 67.9403 105.038 68.296 104.658 68.5159C104.278 68.735 103.661 68.735 103.281 68.5159C102.901 68.296 102.901 67.9403 103.281 67.7205C103.661 67.5013 104.278 67.5013 104.658 67.7205ZM103.434 71.2835C103.054 71.5026 102.437 71.5026 102.057 71.2835C101.677 71.0637 101.677 70.7079 102.057 70.4888C102.437 70.2689 103.054 70.2689 103.434 70.4888C103.814 70.7079 103.814 71.0637 103.434 71.2835ZM101.992 60.2204C102.373 60.0005 102.989 60.0005 103.369 60.2204C103.75 60.4395 103.75 60.796 103.369 61.0151C102.989 61.235 102.373 61.235 101.992 61.0151C101.613 60.796 101.613 60.4395 101.992 60.2204ZM102.145 62.988C102.526 63.2079 102.526 63.5636 102.145 63.7827C101.765 64.0026 101.149 64.0026 100.768 63.7827C100.388 63.5636 100.388 63.2079 100.768 62.988C101.149 62.7689 101.765 62.7689 102.145 62.988ZM101.088 66.4546C100.708 66.6738 100.091 66.6738 99.7113 66.4546C99.3314 66.2348 99.3314 65.8791 99.7113 65.6599C100.092 65.4401 100.708 65.4401 101.088 65.6599C101.468 65.8791 101.468 66.2348 101.088 66.4546ZM99.5097 58.9195C99.8895 58.6997 100.506 58.6997 100.886 58.9195C101.266 59.1386 101.266 59.4944 100.886 59.7142C100.506 59.9333 99.8895 59.9333 99.5097 59.7142C99.1291 59.4944 99.1291 59.1386 99.5097 58.9195ZM99.8639 68.4275C100.244 68.6474 100.244 69.0031 99.8639 69.2222C99.4834 69.4421 98.8669 69.4421 98.487 69.2222C98.1072 69.0031 98.1072 68.6474 98.487 68.4275C98.8676 68.2084 99.4834 68.2084 99.8639 68.4275ZM97.4301 71.8942C97.0496 71.6743 97.0496 71.3186 97.4301 71.0987C97.8099 70.8796 98.4264 70.8796 98.8062 71.0987C99.1868 71.3186 99.1868 71.6743 98.8062 71.8942C98.4264 72.1133 97.8099 72.1133 97.4301 71.8942ZM97.582 74.6618C97.2022 74.8809 96.5857 74.8809 96.2059 74.6618C95.8254 74.4419 95.8254 74.0862 96.2059 73.867C96.5857 73.6472 97.2022 73.6472 97.582 73.867C97.9626 74.0862 97.9626 74.4419 97.582 74.6618ZM97.1986 60.9275C97.5791 60.7076 98.1949 60.7076 98.5754 60.9275C98.9553 61.1466 98.9553 61.5023 98.5754 61.7222C98.1949 61.9413 97.5791 61.9413 97.1986 61.7222C96.8187 61.5023 96.8187 61.1466 97.1986 60.9275ZM96.1416 63.5986C96.5215 63.3788 97.1379 63.3788 97.5178 63.5986C97.8983 63.8178 97.8983 64.1742 97.5178 64.3934C97.1379 64.6132 96.5215 64.6132 96.1416 64.3934C95.7611 64.1742 95.7611 63.8178 96.1416 63.5986ZM94.9174 66.3662C95.2973 66.1471 95.9137 66.1471 96.2936 66.3662C96.6741 66.5861 96.6741 66.9418 96.2936 67.161C95.9137 67.3808 95.2973 67.3808 94.9174 67.161C94.5369 66.9418 94.5369 66.5861 94.9174 66.3662ZM95.2366 69.0382C95.6172 69.2573 95.6172 69.613 95.2366 69.8329C94.8568 70.052 94.2403 70.052 93.8598 69.8329C93.48 69.613 93.48 69.2573 93.8598 69.0382C94.2403 68.8183 94.8568 68.8183 95.2366 69.0382ZM92.6356 72.6005C92.2557 72.3814 92.2557 72.0256 92.6356 71.8058C93.0161 71.5866 93.6326 71.5866 94.0124 71.8058C94.393 72.0256 94.393 72.3814 94.0124 72.6005C93.6326 72.8203 93.0161 72.8203 92.6356 72.6005ZM92.9555 75.2724C92.5749 75.4915 91.9585 75.4915 91.5786 75.2724C91.1981 75.0525 91.1981 74.6968 91.5786 74.477C91.9585 74.2578 92.5749 74.2578 92.9555 74.477C93.3353 74.6968 93.3353 75.0525 92.9555 75.2724ZM92.5713 61.5373C92.9518 61.3182 93.5683 61.3182 93.9482 61.5373C94.3287 61.7572 94.3287 62.1129 93.9482 62.332C93.5683 62.5519 92.9518 62.5519 92.5713 62.332C92.1915 62.113 92.1915 61.7572 92.5713 61.5373ZM91.3471 64.3057C91.7276 64.0858 92.3441 64.0858 92.724 64.3057C93.1045 64.5248 93.1045 64.8806 92.724 65.1004C92.3441 65.3195 91.7276 65.3195 91.3471 65.1004C90.9673 64.8806 90.9673 64.5248 91.3471 64.3057ZM90.2902 66.9769C90.67 66.757 91.2865 66.757 91.667 66.9769C92.0468 67.196 92.0468 67.5525 91.667 67.7716C91.2865 67.9915 90.67 67.9915 90.2902 67.7716C89.9096 67.5525 89.9103 67.196 90.2902 66.9769ZM89.066 69.7445C89.4458 69.5254 90.0623 69.5254 90.4428 69.7445C90.8226 69.9643 90.8226 70.3201 90.4428 70.5392C90.0623 70.7591 89.4458 70.7591 89.066 70.5392C88.6854 70.3201 88.6861 69.9643 89.066 69.7445ZM89.3852 72.4164C89.7657 72.6355 89.7657 72.9913 89.3852 73.2111C89.0053 73.4302 88.3888 73.4302 88.009 73.2111C87.6285 72.9913 87.6285 72.6355 88.009 72.4164C88.3888 72.1966 89.0053 72.1966 89.3852 72.4164ZM86.7848 75.9787C86.4043 75.7596 86.4043 75.4039 86.7848 75.184C87.1646 74.9649 87.7811 74.9649 88.161 75.184C88.5415 75.4039 88.5415 75.7596 88.161 75.9787C87.7811 76.1986 87.1646 76.1986 86.7848 75.9787ZM87.104 78.6506C86.7235 78.8698 86.1077 78.8698 85.7272 78.6506C85.3473 78.4308 85.3473 78.0751 85.7272 77.8552C86.1077 77.6361 86.7235 77.6361 87.104 77.8552C87.4838 78.0751 87.4838 78.4308 87.104 78.6506ZM86.7205 64.9155C87.1004 64.6964 87.7169 64.6964 88.0967 64.9155C88.4772 65.1354 88.4772 65.4911 88.0967 65.7103C87.7169 65.9301 87.1004 65.9301 86.7205 65.7103C86.34 65.4912 86.34 65.1354 86.7205 64.9155ZM85.4963 67.6839C85.8762 67.4641 86.4927 67.4641 86.8725 67.6839C87.253 67.9031 87.253 68.2588 86.8725 68.4787C86.4927 68.6978 85.8762 68.6978 85.4963 68.4787C85.1158 68.2588 85.1158 67.9031 85.4963 67.6839ZM84.4387 70.3551C84.8192 70.1353 85.4357 70.1353 85.8155 70.3551C86.1954 70.5743 86.1954 70.9307 85.8155 71.1498C85.435 71.3697 84.8192 71.3697 84.4387 71.1498C84.0589 70.9307 84.0589 70.5743 84.4387 70.3551ZM83.2145 73.1227C83.595 72.9036 84.2115 72.9036 84.5913 73.1227C84.9712 73.3426 84.9712 73.6983 84.5913 73.9174C84.2108 74.1373 83.595 74.1373 83.2145 73.9174C82.8347 73.6983 82.8347 73.3426 83.2145 73.1227ZM83.5344 75.7947C83.9142 76.0138 83.9142 76.3695 83.5344 76.5894C83.1539 76.8085 82.5374 76.8085 82.1575 76.5894C81.777 76.3695 81.777 76.0138 82.1575 75.7947C82.5374 75.5748 83.1539 75.5748 83.5344 75.7947ZM80.9333 79.357C80.5528 79.1378 80.5528 78.7821 80.9333 78.5623C81.3132 78.3431 81.9296 78.3431 82.3102 78.5623C82.69 78.7821 82.69 79.1378 82.3102 79.357C81.9296 79.5768 81.3132 79.5768 80.9333 79.357ZM81.2525 82.0289C80.8727 82.248 80.2562 82.248 79.8757 82.0289C79.4959 81.809 79.4959 81.4533 79.8757 81.2334C80.2562 81.0143 80.8727 81.0143 81.2525 81.2334C81.6331 81.4533 81.6331 81.809 81.2525 82.0289ZM80.8691 68.2938C81.2489 68.0747 81.8654 68.0747 82.2459 68.2938C82.6258 68.5136 82.6258 68.8694 82.2459 69.0885C81.8654 69.3084 81.2489 69.3084 80.8691 69.0885C80.4885 68.8694 80.4885 68.5136 80.8691 68.2938ZM79.6449 71.0622C80.0247 70.8423 80.6412 70.8423 81.0217 71.0622C81.4016 71.2813 81.4016 71.637 81.0217 71.8569C80.6412 72.076 80.0247 72.076 79.6449 71.8569C79.2643 71.637 79.2643 71.2813 79.6449 71.0622ZM78.5872 73.7334C78.9678 73.5135 79.5842 73.5135 79.9641 73.7334C80.3446 73.9525 80.3446 74.3089 79.9641 74.5281C79.5842 74.7479 78.9678 74.7479 78.5872 74.5281C78.2074 74.3089 78.2074 73.9525 78.5872 73.7334ZM77.3637 76.501C77.7436 76.2818 78.36 76.2818 78.7399 76.501C79.1204 76.7208 79.1204 77.0766 78.7399 77.2957C78.36 77.5155 77.7436 77.5155 77.363 77.2957C76.9832 77.0766 76.9832 76.7208 77.3637 76.501ZM77.6829 79.1729C78.0628 79.392 78.0628 79.7477 77.6829 79.9676C77.3024 80.1867 76.6866 80.1867 76.3061 79.9676C75.9262 79.7477 75.9262 79.392 76.3061 79.1729C76.6866 78.953 77.3024 78.953 77.6829 79.1729ZM74.0249 85.4071C73.6444 85.1873 73.6444 84.8315 74.0249 84.6117C74.4048 84.3925 75.0212 84.3925 75.4011 84.6117C75.7816 84.8315 75.7816 85.1873 75.4011 85.4071C75.0212 85.6262 74.4048 85.6262 74.0249 85.4071ZM74.1769 88.1747C73.797 88.3938 73.1806 88.3938 72.8007 88.1747C72.4202 87.9549 72.4202 87.5991 72.8007 87.38C73.1806 87.1602 73.797 87.1602 74.1769 87.38C74.5574 87.5991 74.5574 87.9549 74.1769 88.1747ZM75.0819 82.7352C74.702 82.5161 74.702 82.1604 75.0819 81.9405C75.4624 81.7214 76.0782 81.7214 76.4587 81.9405C76.8386 82.1604 76.8386 82.5161 76.4587 82.7352C76.0782 82.9551 75.4624 82.9551 75.0819 82.7352ZM75.0176 71.672C75.3981 71.4529 76.0139 71.4529 76.3944 71.672C76.7743 71.8919 76.7743 72.2476 76.3944 72.4667C76.0139 72.6866 75.3981 72.6866 75.0176 72.4667C74.6378 72.2477 74.6378 71.8919 75.0176 71.672ZM73.7934 74.4404C74.1739 74.2206 74.7897 74.2206 75.1702 74.4404C75.5501 74.6596 75.5501 75.0153 75.1702 75.2351C74.7897 75.4543 74.1739 75.4543 73.7934 75.2351C73.4136 75.0153 73.4136 74.6596 73.7934 74.4404ZM72.7365 77.1116C73.1163 76.8918 73.7328 76.8918 74.1133 77.1116C74.4931 77.3307 74.4931 77.6872 74.1126 77.9063C73.7328 78.1262 73.1163 78.1262 72.7365 77.9063C72.3559 77.6872 72.3559 77.3307 72.7365 77.1116ZM71.5123 79.8792C71.8921 79.6601 72.5086 79.6601 72.8891 79.8792C73.2689 80.0991 73.2689 80.4548 72.8884 80.6739C72.5086 80.8938 71.8921 80.8938 71.5123 80.6739C71.1317 80.4548 71.1317 80.0991 71.5123 79.8792ZM71.8315 82.5511C72.212 82.7703 72.212 83.126 71.8315 83.3458C71.4516 83.565 70.8351 83.565 70.4546 83.3458C70.0748 83.126 70.0748 82.7703 70.4546 82.5511C70.8351 82.3313 71.4516 82.3313 71.8315 82.5511ZM70.6073 86.1134C70.2274 86.3333 69.6109 86.3333 69.2304 86.1134C68.8506 85.8943 68.8506 85.5386 69.2304 85.3187C69.6109 85.0996 70.2274 85.0996 70.6073 85.3187C70.9878 85.5386 70.9878 85.8943 70.6073 86.1134ZM69.1661 75.0503C69.5467 74.8311 70.1632 74.8311 70.543 75.0503C70.9235 75.2701 70.9235 75.6258 70.543 75.845C70.1632 76.0648 69.5467 76.0648 69.1661 75.845C68.7863 75.6259 68.7863 75.2701 69.1661 75.0503ZM67.9419 77.8187C68.3225 77.5988 68.9389 77.5988 69.3188 77.8187C69.6993 78.0378 69.6993 78.3935 69.3188 78.6134C68.9389 78.8325 68.3225 78.8325 67.9419 78.6134C67.5621 78.3935 67.5621 78.0378 67.9419 77.8187ZM66.885 80.4899C67.2648 80.27 67.8813 80.27 68.2618 80.4899C68.6417 80.709 68.6417 81.0654 68.2618 81.2846C67.8813 81.5044 67.2648 81.5044 66.885 81.2846C66.5052 81.0654 66.5052 80.709 66.885 80.4899ZM65.6608 83.2575C66.0406 83.0383 66.6571 83.0383 67.0376 83.2575C67.4175 83.4773 67.4175 83.833 67.0376 84.0522C66.6571 84.272 66.0406 84.272 65.6608 84.0522C65.281 83.833 65.281 83.4773 65.6608 83.2575ZM65.98 85.9294C66.3605 86.1485 66.3605 86.5042 65.98 86.7241C65.6002 86.9432 64.9837 86.9432 64.6039 86.7241C64.2233 86.5042 64.2233 86.1485 64.6039 85.9294C64.9837 85.7095 65.6002 85.7095 65.98 85.9294ZM62.322 92.1636C61.9422 91.9437 61.9422 91.588 62.322 91.3682C62.7025 91.149 63.319 91.149 63.6988 91.3682C64.0787 91.588 64.0787 91.9437 63.6988 92.1636C63.319 92.3827 62.7025 92.3827 62.322 92.1636ZM63.3796 89.4917C62.9991 89.2726 62.9991 88.9168 63.3796 88.697C63.7595 88.4779 64.376 88.4779 64.7558 88.697C65.1363 88.9168 65.1363 89.2726 64.7558 89.4917C64.376 89.7115 63.7595 89.7115 63.3796 89.4917ZM63.3154 78.4285C63.6952 78.2094 64.3117 78.2094 64.6915 78.4285C65.0721 78.6484 65.0721 79.0041 64.6915 79.2232C64.3117 79.4431 63.6952 79.4431 63.3154 79.2232C62.9348 79.0042 62.9348 78.6484 63.3154 78.4285ZM62.0912 81.1969C62.471 80.9771 63.0875 80.9771 63.4673 81.1969C63.8479 81.416 63.8479 81.7718 63.4673 81.9916C63.0875 82.2108 62.471 82.2108 62.0912 81.9916C61.7106 81.7718 61.7106 81.416 62.0912 81.1969ZM61.0335 83.8681C61.4141 83.6482 62.0305 83.6482 62.4104 83.8681C62.7902 84.0872 62.7902 84.4437 62.4104 84.6628C62.0305 84.8827 61.4141 84.8827 61.0335 84.6628C60.6537 84.4437 60.6537 84.0872 61.0335 83.8681ZM59.8093 86.6357C60.1899 86.4166 60.8063 86.4166 61.1862 86.6357C61.566 86.8556 61.566 87.2113 61.1862 87.4304C60.8063 87.6503 60.1899 87.6503 59.8093 87.4304C59.4295 87.2113 59.4295 86.8556 59.8093 86.6357ZM57.4639 81.8068C57.8437 81.5876 58.4602 81.5876 58.8408 81.8068C59.2206 82.0266 59.2206 82.3823 58.8408 82.6015C58.4602 82.8213 57.8437 82.8213 57.4639 82.6015C57.0833 82.3824 57.0833 82.0266 57.4639 81.8068ZM56.2397 84.5752C56.6195 84.3553 57.236 84.3553 57.6166 84.5752C57.9964 84.7943 57.9964 85.15 57.6166 85.3699C57.236 85.589 56.6195 85.589 56.2397 85.3699C55.8591 85.15 55.8591 84.7943 56.2397 84.5752ZM55.1828 87.2463C55.5626 87.0265 56.1791 87.0265 56.5589 87.2463C56.9394 87.4655 56.9394 87.8219 56.5589 88.041C56.1791 88.2609 55.5626 88.2609 55.1828 88.041C54.8022 87.8219 54.8022 87.4655 55.1828 87.2463ZM51.6124 85.185C51.993 84.9659 52.6095 84.9659 52.9893 85.185C53.3691 85.4049 53.3691 85.7606 52.9893 85.9797C52.6087 86.1996 51.993 86.1996 51.6124 85.9797C51.2326 85.7606 51.2326 85.4049 51.6124 85.185ZM50.0924 93.8071C49.7118 94.0269 49.0961 94.0269 48.7155 93.8071C48.3357 93.5879 48.3357 93.2315 48.7155 93.0124C49.0961 92.7925 49.7118 92.7925 50.0924 93.0124C50.4722 93.2315 50.4722 93.5879 50.0924 93.8071ZM50.7081 91.4193C50.3276 91.6391 49.7111 91.6391 49.3313 91.4193C48.9507 91.2002 48.9507 90.8437 49.3313 90.6246C49.7111 90.4047 50.3276 90.4047 50.7081 90.6246C51.088 90.8437 51.088 91.2002 50.7081 91.4193ZM50.3882 88.7481C50.0084 88.5282 50.0084 88.1725 50.3882 87.9534C50.7688 87.7335 51.3853 87.7335 51.7651 87.9534C52.1449 88.1725 52.1449 88.5282 51.7651 88.7481C51.3845 88.9672 50.7688 88.9672 50.3882 88.7481ZM53.0536 96.2482C52.673 96.468 52.0572 96.468 51.6767 96.2482C51.2969 96.029 51.2969 95.6733 51.6767 95.4535C52.0572 95.2343 52.673 95.2343 53.0536 95.4535C53.4334 95.6733 53.4334 96.029 53.0536 96.2482ZM54.2778 93.4806C53.8972 93.6997 53.2814 93.6997 52.9009 93.4806C52.5211 93.2607 52.5211 92.905 52.9009 92.6859C53.2814 92.466 53.8972 92.466 54.2778 92.6859C54.6576 92.905 54.6576 93.2607 54.2778 93.4806ZM53.9586 90.8086C53.578 90.5895 53.578 90.2338 53.9586 90.0139C54.3384 89.7948 54.9549 89.7948 55.3347 90.0139C55.7152 90.2338 55.7152 90.5895 55.3347 90.8086C54.9549 91.0284 54.3384 91.0284 53.9586 90.8086ZM56.6232 98.1648C56.2433 98.384 55.0617 98.0291 55.0151 97.9511C54.8971 97.7541 54.9744 97.5271 55.247 97.3701C55.6269 97.1503 56.2433 97.1503 56.6232 97.3701C57.0037 97.5892 57.0037 97.945 56.6232 98.1648ZM57.8474 95.5418C57.4675 95.761 56.8511 95.761 56.4705 95.5418C56.0907 95.322 56.0907 94.9663 56.4712 94.7464C56.8511 94.5273 57.4675 94.5273 57.8474 94.7464C58.2279 94.9663 58.2279 95.322 57.8474 95.5418ZM58.905 92.8699C58.5245 93.0898 57.908 93.0898 57.5282 92.8699C57.1476 92.6508 57.1476 92.2951 57.5282 92.0752C57.908 91.8561 58.5245 91.8561 58.905 92.0752C59.2849 92.2951 59.2849 92.6508 58.905 92.8699ZM58.7524 90.1023C58.3718 89.8825 58.3718 89.5267 58.7524 89.3076C59.1322 89.0878 59.7487 89.0878 60.1292 89.3076C60.5091 89.5267 60.5091 89.8825 60.1292 90.1023C59.7487 90.3215 59.1322 90.3215 58.7524 90.1023ZM61.4177 97.6023C61.0372 97.8222 60.4207 97.8222 60.0409 97.6023C59.6603 97.3832 59.6603 97.0275 60.0409 96.8076C60.4207 96.5885 61.0372 96.5885 61.4177 96.8076C61.7975 97.0275 61.7975 97.3832 61.4177 97.6023ZM61.0978 94.9312C60.718 94.7113 60.718 94.3556 61.0978 94.1365C61.4783 93.9166 62.0948 93.9166 62.4746 94.1365C62.8545 94.3556 62.8545 94.7113 62.4746 94.9312C62.0948 95.1503 61.4783 95.1503 61.0978 94.9312ZM66.0443 96.9925C65.6644 97.2116 65.048 97.2116 64.6681 96.9925C64.2876 96.7726 64.2876 96.4169 64.6681 96.197C65.048 95.9779 65.6644 95.9779 66.0443 96.197C66.4248 96.4169 66.4248 96.7726 66.0443 96.9925ZM67.2685 94.2241C66.8886 94.4439 66.2722 94.4439 65.8923 94.2241C65.5118 94.0049 65.5118 93.6492 65.8923 93.4294C66.2722 93.2102 66.8886 93.2102 67.2685 93.4294C67.649 93.6493 67.649 94.0049 67.2685 94.2241ZM68.3261 91.553C67.9456 91.7721 67.3291 91.7721 66.9493 91.553C66.5694 91.3331 66.5694 90.9774 66.9493 90.7583C67.3291 90.5384 67.9456 90.5384 68.3261 90.7583C68.7059 90.9774 68.7059 91.3331 68.3261 91.553ZM68.1735 88.7854C67.7936 88.5655 67.7936 88.2098 68.1735 87.9899C68.5533 87.7708 69.1698 87.7708 69.5503 87.9899C69.9301 88.2098 69.9301 88.5655 69.5503 88.7854C69.1698 89.0045 68.5533 89.0045 68.1735 88.7854ZM70.8388 96.2854C70.4582 96.5045 69.8418 96.5045 69.4619 96.2854C69.0814 96.0663 69.0814 95.7098 69.4619 95.4907C69.8418 95.2708 70.4582 95.2708 70.8388 95.4907C71.2186 95.7098 71.2186 96.0656 70.8388 96.2854ZM71.8957 93.6142C71.5159 93.8334 70.8994 93.8334 70.5189 93.6142C70.139 93.3944 70.139 93.0387 70.5189 92.8188C70.8994 92.5997 71.5159 92.5997 71.8957 92.8188C72.2763 93.0387 72.2763 93.3944 71.8957 93.6142ZM73.1199 90.8458C72.7401 91.0657 72.1236 91.0657 71.7431 90.8458C71.3633 90.6267 71.3633 90.271 71.7431 90.0511C72.1236 89.832 72.7401 89.832 73.1199 90.0511C73.5005 90.2711 73.5005 90.6267 73.1199 90.8458ZM74.7006 95.2391C74.3208 95.4589 74.0701 95.7127 73.6903 95.4928C73.3098 95.2737 73.3098 94.918 73.6903 94.6981C74.0701 94.479 74.6866 94.479 75.0672 94.6981C75.4471 94.918 75.0811 95.0199 74.7006 95.2391ZM76.6895 92.9072C76.3097 93.1263 75.6932 93.1263 75.3134 92.9072C74.9329 92.688 74.9329 92.3316 75.3134 92.1125C75.6932 91.8926 76.3097 91.8926 76.6895 92.1125C77.0701 92.3316 77.0701 92.6873 76.6895 92.9072ZM77.7472 90.236C77.3667 90.4551 76.7509 90.4551 76.3703 90.236C75.9905 90.0161 75.9905 89.6604 76.3703 89.4406C76.7509 89.2214 77.3667 89.2214 77.7472 89.4406C78.127 89.6604 78.127 90.0161 77.7472 90.236ZM78.9714 87.4676C78.5909 87.6874 77.9751 87.6874 77.5946 87.4676C77.2147 87.2485 77.2147 86.8927 77.5946 86.6729C77.9751 86.4537 78.5909 86.4537 78.9714 86.6729C79.3512 86.8928 79.3512 87.2485 78.9714 87.4676ZM78.6515 84.7965C78.2717 84.5766 78.2717 84.2209 78.6515 84.0018C79.032 83.7819 79.6485 83.7819 80.0283 84.0018C80.4089 84.2209 80.4089 84.5766 80.0283 84.7965C79.6485 85.0156 79.032 85.0156 78.6515 84.7965ZM80.6456 91.7912C80.2651 92.0111 80.0057 92.2424 79.6252 92.0226C79.2453 91.8034 79.2453 91.4477 79.6252 91.2278C80.0057 91.0087 80.6215 91.0087 81.002 91.2278C81.3818 91.4478 81.0255 91.5721 80.6456 91.7912ZM82.541 89.5289C82.1612 89.7481 81.5447 89.7481 81.1642 89.5289C80.7843 89.3098 80.7843 88.9534 81.1642 88.7342C81.5447 88.5144 82.1612 88.5144 82.541 88.7342C82.9216 88.9534 82.9216 89.3091 82.541 89.5289ZM83.5987 86.8578C83.2181 87.0769 82.6016 87.0769 82.2218 86.8578C81.8413 86.6379 81.8413 86.2822 82.2218 86.0623C82.6016 85.8432 83.2181 85.8432 83.5987 86.0623C83.9785 86.2822 83.9785 86.6379 83.5987 86.8578ZM84.8229 84.0893C84.4423 84.3092 83.8258 84.3092 83.446 84.0893C83.0655 83.8702 83.0655 83.5145 83.446 83.2946C83.8258 83.0755 84.4423 83.0755 84.8229 83.2946C85.2027 83.5146 85.2027 83.8702 84.8229 84.0893ZM84.503 81.4182C84.1231 81.1984 84.1231 80.8427 84.503 80.6235C84.8835 80.4037 85.4993 80.4037 85.8798 80.6235C86.2596 80.8427 86.2596 81.1984 85.8798 81.4182C85.4993 81.6374 84.8835 81.6374 84.503 81.4182ZM86.5279 88.4187C86.1473 88.6385 85.8615 88.9372 85.4809 88.7174C85.1011 88.4982 85.1011 88.1425 85.4809 87.9226C85.8615 87.7035 86.4772 87.7035 86.8578 87.9226C87.2377 88.1426 86.9077 88.1996 86.5279 88.4187ZM88.3925 86.1507C88.0119 86.3698 87.3962 86.3698 87.0156 86.1507C86.6358 85.9316 86.6358 85.5751 87.0156 85.356C87.3962 85.1361 88.0119 85.1361 88.3925 85.356C88.7723 85.5751 88.7723 85.9308 88.3925 86.1507ZM89.4494 83.4795C89.0696 83.6986 88.4531 83.6986 88.0733 83.4795C87.6927 83.2597 87.6927 82.9039 88.0733 82.6841C88.4531 82.4649 89.0696 82.4649 89.4494 82.6841C89.83 82.9039 89.83 83.2597 89.4494 83.4795ZM90.6736 80.7111C90.2938 80.931 89.6773 80.931 89.2975 80.7111C88.9169 80.492 88.9169 80.1363 89.2975 79.9164C89.6773 79.6973 90.2938 79.6973 90.6736 79.9164C91.0542 80.1363 91.0542 80.492 90.6736 80.7111ZM90.3544 78.04C89.9739 77.8201 89.9739 77.4644 90.3544 77.2453C90.7343 77.0254 91.3507 77.0254 91.7313 77.2453C92.1111 77.4644 92.1111 77.8201 91.7313 78.04C91.3507 78.2591 90.7343 78.2591 90.3544 78.04ZM92.3485 85.0507C91.9687 85.2699 91.7079 85.5313 91.3281 85.3122C90.9475 85.0923 90.9475 84.7366 91.3281 84.5174C91.7079 84.2976 92.3244 84.2976 92.7042 84.5174C93.0848 84.7366 92.7291 84.8309 92.3485 85.0507ZM94.244 82.7724C93.8634 82.9916 93.2469 82.9916 92.8671 82.7724C92.4866 82.5533 92.4866 82.1969 92.8671 81.9777C93.2469 81.7579 93.8634 81.7579 94.244 81.9777C94.6238 82.1969 94.6238 82.5526 94.244 82.7724ZM95.3009 80.1013C94.9211 80.3204 94.3046 80.3204 93.924 80.1013C93.5442 79.8814 93.5442 79.5257 93.924 79.3058C94.3046 79.0867 94.9211 79.0867 95.3009 79.3058C95.6807 79.5257 95.6807 79.8814 95.3009 80.1013ZM96.5251 77.3329C96.1453 77.5527 95.5288 77.5527 95.1482 77.3329C94.7684 77.1137 94.7684 76.758 95.1482 76.5382C95.5288 76.319 96.1453 76.319 96.5251 76.5382C96.9049 76.7581 96.9049 77.1137 96.5251 77.3329ZM98.1258 81.677C97.746 81.8969 97.4754 82.1442 97.0956 81.9243C96.715 81.7052 96.715 81.3495 97.0956 81.1296C97.4754 80.9105 98.0919 80.9105 98.4717 81.1296C98.8523 81.3496 98.5063 81.4579 98.1258 81.677ZM100.095 79.3942C99.7149 79.6133 99.0984 79.6133 98.7186 79.3942C98.338 79.1751 98.338 78.8186 98.7186 78.5995C99.0984 78.3796 99.7149 78.3796 100.095 78.5995C100.475 78.8186 100.475 79.1743 100.095 79.3942ZM101.152 76.723C100.772 76.9422 100.155 76.9422 99.7755 76.723C99.3957 76.5032 99.3957 76.1474 99.7755 75.9276C100.155 75.7085 100.772 75.7085 101.152 75.9276C101.532 76.1474 101.532 76.5032 101.152 76.723ZM102.377 73.9546C101.996 74.1745 101.38 74.1745 101 73.9546C100.62 73.7355 100.62 73.3798 101 73.1599C101.38 72.9408 101.996 72.9408 102.377 73.1599C102.756 73.3798 102.756 73.7355 102.377 73.9546ZM103.992 78.2971C103.612 78.517 103.327 78.6769 102.946 78.4571C102.566 78.2379 102.566 77.8822 102.946 77.6624C103.327 77.4432 103.943 77.4432 104.323 77.6624C104.704 77.8814 104.373 78.078 103.992 78.2971ZM105.946 76.016C105.566 76.2351 104.95 76.2351 104.569 76.016C104.19 75.7968 104.19 75.4404 104.569 75.2213C104.95 75.0014 105.566 75.0014 105.946 75.2213C106.327 75.4404 106.327 75.7961 105.946 76.016ZM107.003 73.3448C106.623 73.5639 106.007 73.5639 105.627 73.3448C105.246 73.1249 105.246 72.7692 105.627 72.5493C106.007 72.3302 106.623 72.3302 107.004 72.5493C107.384 72.7692 107.384 73.1249 107.003 73.3448ZM108.227 70.5764C107.848 70.7962 107.231 70.7962 106.851 70.5764C106.471 70.3573 106.471 70.0015 106.851 69.7817C107.231 69.5625 107.848 69.5625 108.227 69.7817C108.608 70.0016 108.608 70.3573 108.227 70.5764ZM109.762 74.9662C109.382 75.1861 109.178 75.4009 108.798 75.181C108.418 74.9619 108.418 74.6054 108.798 74.3863C109.178 74.1664 109.794 74.1664 110.175 74.3863C110.554 74.6055 110.142 74.7471 109.762 74.9662ZM111.798 72.6377C111.417 72.8569 110.801 72.8569 110.421 72.6377C110.041 72.4186 110.041 72.0621 110.421 71.843C110.801 71.6232 111.417 71.6232 111.798 71.843C112.178 72.0621 112.178 72.4179 111.798 72.6377ZM112.855 69.9665C112.475 70.1857 111.858 70.1857 111.478 69.9665C111.098 69.7467 111.098 69.391 111.478 69.1711C111.858 68.952 112.475 68.952 112.855 69.1711C113.235 69.391 113.235 69.7467 112.855 69.9665ZM112.702 67.1981C112.322 66.979 112.322 66.6233 112.702 66.4034C113.083 66.1843 113.699 66.1843 114.079 66.4034C114.459 66.6233 114.459 66.979 114.079 67.1981C113.699 67.418 113.083 67.418 112.702 67.1981ZM115.629 71.3506C115.248 71.5704 114.88 71.9204 114.5 71.7005C114.12 71.4814 114.12 71.1257 114.5 70.9058C114.88 70.6867 115.526 70.6423 115.877 70.9058C116.052 71.037 116.008 71.1314 115.629 71.3506ZM117.459 69.1639C117.079 69.383 116.652 69.4786 116.272 69.2595C115.892 69.0404 115.892 68.6839 116.272 68.4648C116.652 68.2449 117.269 68.2449 117.649 68.4648C118.029 68.6839 117.839 68.944 117.459 69.1639ZM118.094 66.621C117.695 66.802 117.626 66.8556 117.246 66.6364C116.865 66.4166 116.865 66.0609 117.246 65.8417C117.612 65.6296 118.199 65.6222 118.581 65.8194C118.595 65.8266 118.709 66.3426 118.094 66.621Z" fill="#E69F6C"/>
<path d="M115.065 60.7467L113.616 59.9104C111.792 58.8578 109.507 58.2082 107.04 57.9494C107.033 57.9487 104.759 57.6607 101.875 57.956C98.6052 58.2907 95.3524 59.2392 92.6872 60.7781L52.5588 83.9459C46.3647 87.5221 45.692 92.9324 51.0563 96.0294L52.5047 96.8658C58.0613 100.072 67.4648 99.4435 73.4338 95.998L113.562 72.8302C119.756 69.254 120.429 63.8445 115.065 60.7467ZM113.938 61.0111C114.318 60.7913 114.935 60.7913 115.315 61.0111C115.695 61.2303 115.695 61.5867 115.315 61.8058C114.935 62.0257 114.318 62.0257 113.938 61.8058C113.558 61.5867 113.558 61.2303 113.938 61.0111ZM113.426 63.3989C113.806 63.179 114.423 63.179 114.803 63.3989C115.183 63.618 115.183 63.9737 114.803 64.1936C114.423 64.4127 113.806 64.4127 113.426 64.1936C113.046 63.9737 113.046 63.618 113.426 63.3989ZM110.107 59.0083C110.487 58.7884 111.104 58.7884 111.484 59.0083C111.864 59.2274 111.864 59.5831 111.484 59.803C111.104 60.0221 110.487 60.0221 110.107 59.803C109.727 59.5831 109.727 59.2274 110.107 59.0083ZM109.857 61.3376C110.236 61.1185 110.853 61.1185 111.233 61.3376C111.613 61.5575 111.613 61.9132 111.233 62.1323C110.853 62.3522 110.236 62.3522 109.857 62.1323C109.476 61.9132 109.476 61.5575 109.857 61.3376ZM108.799 64.0088C109.18 63.7897 109.795 63.7897 110.176 64.0088C110.556 64.2287 110.556 64.5844 110.176 64.8043C109.795 65.0234 109.18 65.0234 108.799 64.8043C108.419 64.5844 108.419 64.2287 108.799 64.0088ZM108.952 66.7771C109.331 66.9963 109.331 67.352 108.952 67.5718C108.571 67.791 107.955 67.791 107.575 67.5718C107.195 67.352 107.195 66.9963 107.575 66.7771C107.955 66.5573 108.571 66.5573 108.952 66.7771ZM106.286 59.2763C106.667 59.0572 107.283 59.0572 107.663 59.2763C108.043 59.4962 108.043 59.8519 107.663 60.0711C107.283 60.2909 106.667 60.2909 106.286 60.0711C105.907 59.8519 105.907 59.4962 106.286 59.2763ZM105.229 61.9483C105.609 61.7284 106.226 61.7284 106.606 61.9483C106.986 62.1674 106.986 62.5231 106.606 62.743C106.226 62.9621 105.609 62.9621 105.229 62.743C104.849 62.5231 104.849 62.1674 105.229 61.9483ZM104.005 64.7159C104.385 64.4967 105.001 64.4967 105.382 64.7159C105.762 64.9357 105.762 65.2914 105.382 65.5106C105.001 65.7304 104.385 65.7304 104.005 65.5106C103.625 65.2914 103.625 64.9357 104.005 64.7159ZM104.324 67.3871C104.705 67.6069 104.705 67.9626 104.324 68.1825C103.945 68.4016 103.328 68.4016 102.948 68.1825C102.568 67.9626 102.568 67.6069 102.948 67.3871C103.328 67.1679 103.945 67.1679 104.324 67.3871ZM103.1 70.9501C102.72 71.1692 102.104 71.1692 101.723 70.9501C101.343 70.7302 101.343 70.3745 101.723 70.1554C102.104 69.9355 102.72 69.9355 103.1 70.1554C103.481 70.3745 103.481 70.7302 103.1 70.9501ZM101.659 59.887C102.04 59.6671 102.656 59.6671 103.036 59.887C103.416 60.1061 103.416 60.4626 103.036 60.6817C102.656 60.9016 102.04 60.9016 101.659 60.6817C101.279 60.4626 101.279 60.1061 101.659 59.887ZM101.812 62.6546C102.192 62.8744 102.192 63.2302 101.812 63.4493C101.432 63.6692 100.815 63.6692 100.435 63.4493C100.055 63.2302 100.055 62.8744 100.435 62.6546C100.815 62.4355 101.432 62.4355 101.812 62.6546ZM100.755 66.1212C100.374 66.3403 99.7577 66.3403 99.3779 66.1212C98.9981 65.9014 98.9981 65.5456 99.3779 65.3265C99.7585 65.1066 100.374 65.1066 100.755 65.3265C101.135 65.5456 101.135 65.9014 100.755 66.1212ZM99.1763 58.5861C99.5561 58.3662 100.173 58.3662 100.552 58.5861C100.933 58.8052 100.933 59.1609 100.552 59.3808C100.173 59.5999 99.5561 59.5999 99.1763 59.3808C98.7958 59.1609 98.7958 58.8052 99.1763 58.5861ZM99.5306 68.0941C99.9104 68.314 99.9104 68.6697 99.5306 68.8888C99.15 69.1087 98.5335 69.1087 98.1537 68.8888C97.7739 68.6697 97.7739 68.314 98.1537 68.0941C98.5343 67.875 99.15 67.875 99.5306 68.0941ZM97.0968 71.5607C96.7162 71.3409 96.7162 70.9852 97.0968 70.7653C97.4766 70.5462 98.0931 70.5462 98.4729 70.7653C98.8535 70.9852 98.8535 71.3409 98.4729 71.5607C98.0931 71.7799 97.4766 71.7799 97.0968 71.5607ZM97.2487 74.3283C96.8689 74.5475 96.2524 74.5475 95.8726 74.3283C95.492 74.1085 95.492 73.7528 95.8726 73.5336C96.2524 73.3138 96.8689 73.3138 97.2487 73.5336C97.6293 73.7528 97.6293 74.1085 97.2487 74.3283ZM96.8652 60.594C97.2458 60.3742 97.8615 60.3742 98.2421 60.594C98.6219 60.8132 98.6219 61.1689 98.2421 61.3888C97.8615 61.6079 97.2458 61.6079 96.8652 61.3888C96.4854 61.1689 96.4854 60.8132 96.8652 60.594ZM95.8083 63.2652C96.1881 63.0454 96.8046 63.0454 97.1844 63.2652C97.565 63.4844 97.565 63.8408 97.1844 64.0599C96.8046 64.2798 96.1881 64.2798 95.8083 64.0599C95.4277 63.8408 95.4277 63.4844 95.8083 63.2652ZM94.5841 66.0328C94.9639 65.8137 95.5804 65.8137 95.9602 66.0328C96.3408 66.2527 96.3408 66.6084 95.9602 66.8275C95.5804 67.0474 94.9639 67.0474 94.5841 66.8275C94.2035 66.6084 94.2035 66.2527 94.5841 66.0328ZM94.9033 68.7047C95.2838 68.9239 95.2838 69.2796 94.9033 69.4995C94.5235 69.7186 93.907 69.7186 93.5264 69.4995C93.1466 69.2796 93.1466 68.9239 93.5264 68.7047C93.907 68.4849 94.5235 68.4849 94.9033 68.7047ZM92.3022 72.2671C91.9224 72.0479 91.9224 71.6922 92.3022 71.4723C92.6828 71.2532 93.2993 71.2532 93.6791 71.4723C94.0597 71.6922 94.0597 72.0479 93.6791 72.2671C93.2993 72.4869 92.6828 72.4869 92.3022 72.2671ZM92.6222 74.939C92.2416 75.1581 91.6251 75.1581 91.2453 74.939C90.8647 74.7191 90.8647 74.3634 91.2453 74.1435C91.6251 73.9244 92.2416 73.9244 92.6222 74.1435C93.002 74.3634 93.002 74.7191 92.6222 74.939ZM92.238 61.204C92.6185 60.9848 93.235 60.9848 93.6148 61.204C93.9954 61.4238 93.9954 61.7795 93.6148 61.9987C93.235 62.2185 92.6185 62.2185 92.238 61.9987C91.8581 61.7795 91.8581 61.4238 92.238 61.204ZM91.0138 63.9723C91.3943 63.7524 92.0108 63.7524 92.3906 63.9723C92.7712 64.1914 92.7712 64.5471 92.3906 64.767C92.0108 64.9861 91.3943 64.9861 91.0138 64.767C90.6339 64.5471 90.6339 64.1914 91.0138 63.9723ZM89.9568 66.6435C90.3366 66.4236 90.9531 66.4236 91.3337 66.6435C91.7135 66.8626 91.7135 67.219 91.3337 67.4382C90.9531 67.658 90.3366 67.658 89.9568 67.4382C89.5763 67.219 89.577 66.8626 89.9568 66.6435ZM88.7326 69.4111C89.1124 69.1919 89.7289 69.1919 90.1095 69.4111C90.4893 69.6309 90.4893 69.9867 90.1095 70.2058C89.7289 70.4256 89.1124 70.4256 88.7326 70.2058C88.3521 69.9867 88.3528 69.6309 88.7326 69.4111ZM89.0518 72.083C89.4324 72.3021 89.4324 72.6578 89.0518 72.8777C88.672 73.0968 88.0555 73.0968 87.6757 72.8777C87.2951 72.6578 87.2951 72.3021 87.6757 72.083C88.0555 71.8631 88.672 71.8631 89.0518 72.083ZM86.4515 75.6453C86.0709 75.4262 86.0709 75.0704 86.4515 74.8506C86.8313 74.6315 87.4478 74.6315 87.8276 74.8506C88.2082 75.0704 88.2082 75.4262 87.8276 75.6453C87.4478 75.8652 86.8313 75.8652 86.4515 75.6453ZM86.7707 78.3172C86.3901 78.5363 85.7744 78.5363 85.3938 78.3172C85.014 78.0974 85.014 77.7416 85.3938 77.5218C85.7744 77.3026 86.3901 77.3026 86.7707 77.5218C87.1505 77.7416 87.1505 78.0974 86.7707 78.3172ZM86.3872 64.5822C86.767 64.3631 87.3835 64.3631 87.7633 64.5822C88.1439 64.8021 88.1439 65.1578 87.7633 65.3769C87.3835 65.5968 86.767 65.5968 86.3872 65.3769C86.0067 65.1578 86.0067 64.8021 86.3872 64.5822ZM85.163 67.3505C85.5428 67.1307 86.1593 67.1307 86.5391 67.3505C86.9197 67.5697 86.9197 67.9254 86.5391 68.1452C86.1593 68.3644 85.5428 68.3644 85.163 68.1452C84.7825 67.9254 84.7825 67.5697 85.163 67.3505ZM84.1053 70.0217C84.4859 69.8019 85.1024 69.8019 85.4822 70.0217C85.862 70.2408 85.862 70.5973 85.4822 70.8164C85.1017 71.0363 84.4859 71.0363 84.1053 70.8164C83.7255 70.5973 83.7255 70.2408 84.1053 70.0217ZM82.8811 72.7893C83.2617 72.5702 83.8782 72.5702 84.258 72.7893C84.6378 73.0092 84.6378 73.3649 84.258 73.584C83.8774 73.8039 83.2617 73.8039 82.8811 73.584C82.5013 73.3649 82.5013 73.0092 82.8811 72.7893ZM83.2011 75.4612C83.5809 75.6804 83.5809 76.0361 83.2011 76.2559C82.8205 76.4751 82.204 76.4751 81.8242 76.2559C81.4437 76.0361 81.4437 75.6804 81.8242 75.4612C82.204 75.2414 82.8205 75.2414 83.2011 75.4612ZM80.6 79.0235C80.2195 78.8044 80.2195 78.4487 80.6 78.2288C80.9798 78.0097 81.5963 78.0097 81.9769 78.2288C82.3567 78.4487 82.3567 78.8044 81.9769 79.0235C81.5963 79.2434 80.9798 79.2434 80.6 79.0235ZM80.9192 81.6955C80.5394 81.9146 79.9229 81.9146 79.5423 81.6955C79.1625 81.4756 79.1625 81.1199 79.5423 80.9C79.9229 80.6809 80.5394 80.6809 80.9192 80.9C81.2998 81.1199 81.2998 81.4756 80.9192 81.6955ZM80.5357 67.9604C80.9156 67.7413 81.532 67.7413 81.9126 67.9604C82.2924 68.1803 82.2924 68.536 81.9126 68.7551C81.532 68.975 80.9156 68.975 80.5357 68.7551C80.1552 68.536 80.1552 68.1803 80.5357 67.9604ZM79.3115 70.7288C79.6914 70.5089 80.3078 70.5089 80.6884 70.7288C81.0682 70.9479 81.0682 71.3036 80.6884 71.5235C80.3078 71.7426 79.6914 71.7426 79.3115 71.5235C78.931 71.3036 78.931 70.9479 79.3115 70.7288ZM78.2539 73.4C78.6344 73.1801 79.2509 73.1801 79.6307 73.4C80.0113 73.6191 80.0113 73.9755 79.6307 74.1947C79.2509 74.4145 78.6344 74.4145 78.2539 74.1947C77.874 73.9755 77.874 73.6191 78.2539 73.4ZM77.0304 76.1676C77.4102 75.9484 78.0267 75.9484 78.4065 76.1676C78.7871 76.3874 78.7871 76.7431 78.4065 76.9623C78.0267 77.1821 77.4102 77.1821 77.0297 76.9623C76.6498 76.7431 76.6498 76.3874 77.0304 76.1676ZM77.3496 78.8395C77.7294 79.0586 77.7294 79.4143 77.3496 79.6342C76.969 79.8533 76.3533 79.8533 75.9727 79.6342C75.5929 79.4143 75.5929 79.0586 75.9727 78.8395C76.3533 78.6196 76.969 78.6196 77.3496 78.8395ZM73.6916 85.0737C73.3111 84.8538 73.3111 84.4981 73.6916 84.2783C74.0714 84.0591 74.6879 84.0591 75.0677 84.2783C75.4483 84.4981 75.4483 84.8538 75.0677 85.0737C74.6879 85.2928 74.0714 85.2928 73.6916 85.0737ZM73.8435 87.8413C73.4637 88.0604 72.8472 88.0604 72.4674 87.8413C72.0868 87.6214 72.0868 87.2657 72.4674 87.0466C72.8472 86.8267 73.4637 86.8267 73.8435 87.0466C74.2241 87.2657 74.2241 87.6214 73.8435 87.8413ZM74.7485 82.4018C74.3687 82.1827 74.3687 81.8269 74.7485 81.6071C75.1291 81.3879 75.7448 81.3879 76.1254 81.6071C76.5052 81.8269 76.5052 82.1827 76.1254 82.4018C75.7448 82.6216 75.1291 82.6216 74.7485 82.4018ZM74.6843 71.3387C75.0648 71.1196 75.6806 71.1196 76.0611 71.3387C76.4409 71.5585 76.4409 71.9143 76.0611 72.1334C75.6806 72.3532 75.0648 72.3532 74.6843 72.1334C74.3044 71.9143 74.3044 71.5585 74.6843 71.3387ZM73.4601 74.107C73.8406 73.8872 74.4564 73.8872 74.8369 74.107C75.2167 74.3261 75.2167 74.6819 74.8369 74.9017C74.4564 75.1209 73.8406 75.1209 73.4601 74.9017C73.0802 74.6819 73.0802 74.3261 73.4601 74.107ZM72.4031 76.7782C72.7829 76.5583 73.3994 76.5583 73.78 76.7782C74.1598 76.9973 74.1598 77.3538 73.7793 77.5729C73.3994 77.7928 72.7829 77.7928 72.4031 77.5729C72.0226 77.3538 72.0226 76.9973 72.4031 76.7782ZM71.1789 79.5458C71.5587 79.3267 72.1752 79.3267 72.5558 79.5458C72.9356 79.7657 72.9356 80.1214 72.5551 80.3405C72.1752 80.5604 71.5587 80.5604 71.1789 80.3405C70.7984 80.1214 70.7984 79.7657 71.1789 79.5458ZM71.4981 82.2177C71.8787 82.4368 71.8787 82.7926 71.4981 83.0124C71.1183 83.2315 70.5018 83.2315 70.1213 83.0124C69.7414 82.7926 69.7414 82.4368 70.1213 82.2177C70.5018 81.9979 71.1183 81.9979 71.4981 82.2177ZM70.2739 85.78C69.8941 85.9999 69.2776 85.9999 68.8971 85.78C68.5172 85.5609 68.5172 85.2052 68.8971 84.9853C69.2776 84.7662 69.8941 84.7662 70.2739 84.9853C70.6545 85.2052 70.6545 85.5609 70.2739 85.78ZM68.8328 74.7169C69.2133 74.4978 69.8298 74.4978 70.2096 74.7169C70.5902 74.9368 70.5902 75.2925 70.2096 75.5116C69.8298 75.7315 69.2133 75.7315 68.8328 75.5116C68.453 75.2925 68.453 74.9368 68.8328 74.7169ZM67.6086 77.4853C67.9891 77.2654 68.6056 77.2654 68.9854 77.4853C69.366 77.7044 69.366 78.0601 68.9854 78.28C68.6056 78.4991 67.9891 78.4991 67.6086 78.28C67.2288 78.0601 67.2288 77.7044 67.6086 77.4853ZM66.5516 80.1564C66.9315 79.9366 67.548 79.9366 67.9285 80.1564C68.3083 80.3756 68.3083 80.732 67.9285 80.9511C67.548 81.171 66.9315 81.171 66.5516 80.9511C66.1718 80.732 66.1718 80.3756 66.5516 80.1564ZM65.3274 82.924C65.7073 82.7049 66.3238 82.7049 66.7043 82.924C67.0841 83.1439 67.0841 83.4996 66.7043 83.7187C66.3238 83.9386 65.7073 83.9386 65.3274 83.7187C64.9476 83.4996 64.9476 83.1439 65.3274 82.924ZM65.6466 85.596C66.0272 85.8151 66.0272 86.1708 65.6466 86.3907C65.2668 86.6098 64.6503 86.6098 64.2705 86.3907C63.89 86.1708 63.89 85.8151 64.2705 85.596C64.6503 85.3761 65.2668 85.3761 65.6466 85.596ZM62.982 78.0952C63.3619 77.876 63.9783 77.876 64.3582 78.0952C64.7387 78.315 64.7387 78.6707 64.3582 78.8899C63.9783 79.1097 63.3619 79.1097 62.982 78.8899C62.6015 78.6707 62.6015 78.315 62.982 78.0952ZM61.7578 80.8635C62.1377 80.6436 62.7541 80.6436 63.134 80.8635C63.5145 81.0826 63.5145 81.4383 63.134 81.6582C62.7541 81.8773 62.1377 81.8773 61.7578 81.6582C61.3773 81.4383 61.3773 81.0826 61.7578 80.8635ZM60.7002 83.5347C61.0807 83.3148 61.6972 83.3148 62.077 83.5347C62.4569 83.7538 62.4569 84.1103 62.077 84.3294C61.6972 84.5492 61.0807 84.5492 60.7002 84.3294C60.3203 84.1103 60.3203 83.7538 60.7002 83.5347ZM59.476 86.3023C59.8565 86.0832 60.473 86.0832 60.8528 86.3023C61.2327 86.5221 61.2327 86.8779 60.8528 87.097C60.473 87.3168 59.8565 87.3168 59.476 87.097C59.0961 86.8779 59.0961 86.5221 59.476 86.3023ZM57.1305 81.4734C57.5104 81.2543 58.1269 81.2543 58.5074 81.4734C58.8872 81.6933 58.8872 82.049 58.5074 82.2681C58.1269 82.488 57.5104 82.488 57.1305 82.2681C56.75 82.049 56.75 81.6933 57.1305 81.4734ZM55.9064 84.2417C56.2862 84.0219 56.9027 84.0219 57.2832 84.2417C57.663 84.4609 57.663 84.8166 57.2832 85.0364C56.9027 85.2556 56.2862 85.2556 55.9064 85.0364C55.5258 84.8166 55.5258 84.4609 55.9064 84.2417ZM54.8494 86.9129C55.2292 86.6931 55.8457 86.6931 56.2255 86.9129C56.6061 87.132 56.6061 87.4885 56.2255 87.7076C55.8457 87.9275 55.2292 87.9275 54.8494 87.7076C54.4689 87.4885 54.4689 87.132 54.8494 86.9129ZM51.2791 84.8516C51.6596 84.6325 52.2761 84.6325 52.6559 84.8516C53.0358 85.0715 53.0358 85.4272 52.6559 85.6464C52.2754 85.8662 51.6596 85.8662 51.2791 85.6464C50.8993 85.4272 50.8993 85.0715 51.2791 84.8516ZM49.7591 93.4737C49.3785 93.6935 48.7627 93.6935 48.3822 93.4737C48.0024 93.2545 48.0024 92.8981 48.3822 92.6789C48.7627 92.4591 49.3785 92.4591 49.7591 92.6789C50.1389 92.8981 50.1389 93.2545 49.7591 93.4737ZM50.3748 91.0859C49.9943 91.3057 49.3778 91.3057 48.9979 91.0859C48.6174 90.8667 48.6174 90.5103 48.9979 90.2912C49.3778 90.0713 49.9943 90.0713 50.3748 90.2912C50.7546 90.5103 50.7546 90.8667 50.3748 91.0859ZM50.0549 88.4147C49.6751 88.1948 49.6751 87.8391 50.0549 87.62C50.4354 87.4001 51.0519 87.4001 51.4317 87.62C51.8116 87.8391 51.8116 88.1948 51.4317 88.4147C51.0512 88.6338 50.4354 88.6338 50.0549 88.4147ZM52.7202 95.9147C52.3397 96.1346 51.7239 96.1346 51.3434 95.9147C50.9635 95.6956 50.9635 95.3399 51.3434 95.12C51.7239 94.9009 52.3397 94.9009 52.7202 95.12C53.1 95.3399 53.1 95.6956 52.7202 95.9147ZM53.9444 93.1471C53.5639 93.3663 52.9481 93.3663 52.5676 93.1471C52.1877 92.9273 52.1877 92.5716 52.5676 92.3524C52.9481 92.1326 53.5639 92.1326 53.9444 92.3524C54.3242 92.5716 54.3242 92.9273 53.9444 93.1471ZM53.6252 90.4752C53.2447 90.2561 53.2447 89.9004 53.6252 89.6805C54.005 89.4614 54.6215 89.4614 55.0013 89.6805C55.3819 89.9004 55.3819 90.2561 55.0013 90.4752C54.6215 90.6951 54.005 90.6951 53.6252 90.4752ZM56.2898 97.8314C55.91 98.0505 55.2935 98.0505 54.9137 97.8314C54.5331 97.6115 54.5331 97.2558 54.9137 97.0367C55.2935 96.8168 55.91 96.8168 56.2898 97.0367C56.6704 97.2558 56.6704 97.6115 56.2898 97.8314ZM57.514 95.2084C57.1342 95.4276 56.5177 95.4276 56.1372 95.2084C55.7573 94.9886 55.7573 94.6328 56.1379 94.413C56.5177 94.1939 57.1342 94.1939 57.514 94.413C57.8946 94.6328 57.8946 94.9886 57.514 95.2084ZM58.5717 92.5365C58.1911 92.7564 57.5747 92.7564 57.1948 92.5365C56.8143 92.3174 56.8143 91.9617 57.1948 91.7418C57.5747 91.5227 58.1911 91.5227 58.5717 91.7418C58.9515 91.9617 58.9515 92.3174 58.5717 92.5365ZM58.419 89.7689C58.0385 89.549 58.0385 89.1933 58.419 88.9742C58.7989 88.7543 59.4153 88.7543 59.7959 88.9742C60.1757 89.1933 60.1757 89.549 59.7959 89.7689C59.4153 89.988 58.7989 89.988 58.419 89.7689ZM61.0844 97.269C60.7038 97.4888 60.0873 97.4888 59.7075 97.269C59.327 97.0498 59.327 96.6941 59.7075 96.4743C60.0873 96.2551 60.7038 96.2551 61.0844 96.4743C61.4642 96.6941 61.4642 97.0498 61.0844 97.269ZM62.1413 94.5978C61.7615 94.8169 61.145 94.8169 60.7644 94.5978C60.3846 94.3779 60.3846 94.0222 60.7644 93.8031C61.145 93.5832 61.7615 93.5832 62.1413 93.8031C62.5211 94.0222 62.5211 94.3779 62.1413 94.5978ZM63.3655 91.8302C62.9857 92.0493 62.3692 92.0493 61.9886 91.8302C61.6088 91.6103 61.6088 91.2546 61.9886 91.0347C62.3692 90.8156 62.9857 90.8156 63.3655 91.0347C63.7453 91.2546 63.7453 91.6103 63.3655 91.8302ZM63.0463 89.1583C62.6658 88.9391 62.6658 88.5834 63.0463 88.3636C63.4261 88.1444 64.0426 88.1444 64.4224 88.3636C64.803 88.5834 64.803 88.9391 64.4224 89.1583C64.0426 89.3781 63.4261 89.3781 63.0463 89.1583ZM65.7109 96.6591C65.3311 96.8782 64.7146 96.8782 64.3348 96.6591C63.9542 96.4392 63.9542 96.0835 64.3348 95.8636C64.7146 95.6445 65.3311 95.6445 65.7109 95.8636C66.0915 96.0835 66.0915 96.4392 65.7109 96.6591ZM66.9351 93.8907C66.5553 94.1106 65.9388 94.1106 65.559 93.8907C65.1784 93.6716 65.1784 93.3159 65.559 93.096C65.9388 92.8769 66.5553 92.8769 66.9351 93.096C67.3157 93.3159 67.3157 93.6716 66.9351 93.8907ZM67.9928 91.2195C67.6122 91.4387 66.9957 91.4387 66.6159 91.2195C66.2361 90.9997 66.2361 90.644 66.6159 90.4248C66.9957 90.205 67.6122 90.205 67.9928 90.4248C68.3726 90.644 68.3726 90.9997 67.9928 91.2195ZM67.8401 88.4519C67.4603 88.2321 67.4603 87.8764 67.8401 87.6565C68.22 87.4374 68.8364 87.4374 69.217 87.6565C69.5968 87.8764 69.5968 88.2321 69.217 88.4519C68.8364 88.6711 68.22 88.6711 67.8401 88.4519ZM70.5055 95.952C70.1249 96.1711 69.5084 96.1711 69.1286 95.952C68.748 95.7329 68.748 95.3764 69.1286 95.1573C69.5084 94.9374 70.1249 94.9374 70.5055 95.1573C70.8853 95.3764 70.8853 95.7321 70.5055 95.952ZM71.5624 93.2808C71.1826 93.4999 70.5661 93.4999 70.1855 93.2808C69.8057 93.061 69.8057 92.7052 70.1855 92.4854C70.5661 92.2662 71.1826 92.2662 71.5624 92.4854C71.943 92.7052 71.943 93.061 71.5624 93.2808ZM72.7866 90.5125C72.4068 90.7323 71.7903 90.7323 71.4097 90.5125C71.0299 90.2934 71.0299 89.9376 71.4097 89.7178C71.7903 89.4986 72.4068 89.4986 72.7866 89.7178C73.1672 89.9376 73.1672 90.2934 72.7866 90.5125ZM74.7332 95.1595C74.3534 95.3793 73.7369 95.3793 73.3571 95.1595C72.9765 94.9404 72.9765 94.5846 73.3571 94.3648C73.7369 94.1456 74.3534 94.1456 74.7339 94.3648C75.1137 94.5846 75.1138 94.9404 74.7332 95.1595ZM76.3562 92.5738C75.9764 92.7929 75.3599 92.7929 74.9801 92.5738C74.5995 92.3546 74.5995 91.9982 74.9801 91.779C75.3599 91.5592 75.9764 91.5592 76.3562 91.779C76.7368 91.9982 76.7368 92.3539 76.3562 92.5738ZM77.4139 89.9026C77.0333 90.1217 76.4176 90.1217 76.037 89.9026C75.6572 89.6827 75.6572 89.327 76.037 89.1071C76.4176 88.888 77.0333 88.888 77.4139 89.1071C77.7937 89.327 77.7937 89.6827 77.4139 89.9026ZM78.6381 87.1342C78.2575 87.3541 77.6418 87.3541 77.2612 87.1342C76.8814 86.9151 76.8814 86.5594 77.2612 86.3395C77.6418 86.1204 78.2575 86.1204 78.6381 86.3395C79.0179 86.5594 79.0179 86.9151 78.6381 87.1342ZM78.3181 84.4631C77.9383 84.2432 77.9383 83.8875 78.3181 83.6684C78.6987 83.4485 79.3152 83.4485 79.695 83.6684C80.0756 83.8875 80.0756 84.2432 79.695 84.4631C79.3152 84.6822 78.6987 84.6822 78.3181 84.4631ZM80.6687 91.6892C80.2881 91.9091 79.6724 91.9091 79.2918 91.6892C78.912 91.4701 78.912 91.1144 79.2918 90.8945C79.6724 90.6754 80.2881 90.6754 80.6687 90.8945C81.0485 91.1144 81.0485 91.4701 80.6687 91.6892ZM82.2077 89.1955C81.8279 89.4146 81.2114 89.4146 80.8308 89.1955C80.451 88.9764 80.451 88.6199 80.8308 88.4008C81.2114 88.1809 81.8279 88.1809 82.2077 88.4008C82.5882 88.6199 82.5882 88.9757 82.2077 89.1955ZM83.2654 86.5243C82.8848 86.7435 82.2683 86.7435 81.8885 86.5243C81.5079 86.3045 81.5079 85.9488 81.8885 85.7289C82.2683 85.5098 82.8848 85.5098 83.2654 85.7289C83.6452 85.9488 83.6452 86.3045 83.2654 86.5243ZM84.4896 83.756C84.109 83.9759 83.4925 83.9759 83.1127 83.756C82.7321 83.5369 82.7321 83.1812 83.1127 82.9613C83.4925 82.7422 84.109 82.7422 84.4896 82.9613C84.8694 83.1812 84.8694 83.5369 84.4896 83.756ZM84.1696 81.0848C83.7898 80.865 83.7898 80.5092 84.1696 80.2901C84.5502 80.0703 85.1659 80.0703 85.5465 80.2901C85.9263 80.5092 85.9263 80.865 85.5465 81.0848C85.1659 81.3039 84.5502 81.3039 84.1696 81.0848ZM86.5245 88.384C86.144 88.6039 85.5282 88.6039 85.1477 88.384C84.7678 88.1649 84.7678 87.8092 85.1477 87.5893C85.5282 87.3702 86.144 87.3702 86.5245 87.5893C86.9044 87.8092 86.9044 88.1649 86.5245 88.384ZM88.0592 85.8173C87.6786 86.0364 87.0629 86.0364 86.6823 85.8173C86.3025 85.5981 86.3025 85.2417 86.6823 85.0226C87.0629 84.8027 87.6786 84.8027 88.0592 85.0226C88.439 85.2417 88.439 85.5974 88.0592 85.8173ZM89.1161 83.1461C88.7363 83.3652 88.1198 83.3652 87.74 83.1461C87.3594 82.9262 87.3594 82.5705 87.74 82.3507C88.1198 82.1315 88.7363 82.1315 89.1161 82.3507C89.4967 82.5705 89.4967 82.9262 89.1161 83.1461ZM90.3403 80.3778C89.9605 80.5976 89.344 80.5976 88.9642 80.3778C88.5836 80.1586 88.5836 79.8029 88.9642 79.5831C89.344 79.3639 89.9605 79.3639 90.3403 79.5831C90.7209 79.8029 90.7209 80.1586 90.3403 80.3778ZM90.0211 77.7066C89.6405 77.4867 89.6405 77.131 90.0211 76.9119C90.4009 76.692 91.0174 76.692 91.398 76.9119C91.7778 77.131 91.7778 77.4867 91.398 77.7066C91.0174 77.9257 90.4009 77.9257 90.0211 77.7066ZM92.3709 84.9787C91.9911 85.1979 91.3746 85.1979 90.9948 84.9787C90.6142 84.7589 90.6142 84.4032 90.9948 84.184C91.3746 83.9642 91.9911 83.9642 92.3709 84.184C92.7515 84.4032 92.7515 84.7589 92.3709 84.9787ZM93.9106 82.439C93.5301 82.6582 92.9136 82.6582 92.5338 82.439C92.1532 82.2199 92.1532 81.8635 92.5338 81.6443C92.9136 81.4245 93.5301 81.4245 93.9106 81.6443C94.2905 81.8635 94.2905 82.2192 93.9106 82.439ZM94.9676 79.7679C94.5877 79.987 93.9713 79.987 93.5907 79.7679C93.2109 79.548 93.2109 79.1923 93.5907 78.9724C93.9713 78.7533 94.5877 78.7533 94.9676 78.9724C95.3474 79.1923 95.3474 79.548 94.9676 79.7679ZM96.1918 76.9995C95.812 77.2194 95.1955 77.2194 94.8149 76.9995C94.4351 76.7804 94.4351 76.4247 94.8149 76.2048C95.1955 75.9857 95.812 75.9857 96.1918 76.2048C96.5716 76.4247 96.5716 76.7804 96.1918 76.9995ZM98.1384 81.591C97.7585 81.8109 97.1421 81.8109 96.7622 81.591C96.3817 81.3719 96.3817 81.0162 96.7622 80.7963C97.1421 80.5772 97.7585 80.5772 98.1384 80.7963C98.5189 81.0162 98.5189 81.3719 98.1384 81.591ZM99.7614 79.0608C99.3816 79.2799 98.7651 79.2799 98.3853 79.0608C98.0047 78.8417 98.0047 78.4852 98.3853 78.2661C98.7651 78.0462 99.3816 78.0462 99.7614 78.2661C100.142 78.4852 100.142 78.8409 99.7614 79.0608ZM100.819 76.3896C100.439 76.6087 99.822 76.6087 99.4422 76.3896C99.0624 76.1698 99.0624 75.814 99.4422 75.5942C99.822 75.375 100.439 75.375 100.819 75.5942C101.199 75.814 101.199 76.1698 100.819 76.3896ZM102.043 73.6213C101.663 73.8411 101.046 73.8411 100.666 73.6213C100.287 73.4021 100.287 73.0464 100.666 72.8266C101.046 72.6074 101.663 72.6074 102.043 72.8266C102.423 73.0464 102.423 73.4021 102.043 73.6213ZM103.99 78.1237C103.61 78.3435 102.994 78.3435 102.613 78.1237C102.233 77.9045 102.233 77.5488 102.613 77.3289C102.994 77.1098 103.61 77.1098 103.99 77.3289C104.37 77.5481 104.37 77.9045 103.99 78.1237ZM105.613 75.6825C105.233 75.9017 104.617 75.9017 104.236 75.6825C103.856 75.4634 103.856 75.107 104.236 74.8878C104.617 74.668 105.233 74.668 105.613 74.8878C105.993 75.107 105.993 75.4627 105.613 75.6825ZM106.67 73.0114C106.29 73.2305 105.673 73.2305 105.294 73.0114C104.913 72.7915 104.913 72.4358 105.294 72.2159C105.673 71.9968 106.29 71.9968 106.671 72.2159C107.05 72.4358 107.05 72.7915 106.67 73.0114ZM107.894 70.243C107.514 70.4629 106.898 70.4629 106.518 70.243C106.137 70.0239 106.137 69.6682 106.518 69.4483C106.898 69.2292 107.514 69.2292 107.894 69.4483C108.275 69.6682 108.275 70.0239 107.894 70.243ZM109.841 74.8477C109.461 75.0675 108.845 75.0675 108.464 74.8477C108.085 74.6285 108.085 74.2721 108.464 74.053C108.845 73.8331 109.461 73.8331 109.841 74.053C110.221 74.2721 110.221 74.6285 109.841 74.8477ZM111.464 72.3043C111.084 72.5234 110.468 72.5234 110.087 72.3043C109.708 72.0852 109.708 71.7287 110.087 71.5096C110.468 71.2897 111.084 71.2897 111.464 71.5096C111.844 71.7287 111.844 72.0844 111.464 72.3043ZM112.521 69.6331C112.141 69.8523 111.525 69.8523 111.144 69.6331C110.765 69.4133 110.765 69.0575 111.144 68.8377C111.525 68.6186 112.141 68.6186 112.521 68.8377C112.902 69.0575 112.902 69.4133 112.521 69.6331ZM112.369 66.8648C111.989 66.6457 111.989 66.2899 112.369 66.0701C112.749 65.851 113.366 65.851 113.745 66.0701C114.126 66.2899 114.126 66.6457 113.745 66.8648C113.366 67.0847 112.749 67.0847 112.369 66.8648ZM115.544 71.3672C115.163 71.587 114.547 71.587 114.167 71.3672C113.786 71.148 113.786 70.7923 114.167 70.5725C114.547 70.3533 115.163 70.3533 115.544 70.5725C115.924 70.7916 115.924 71.148 115.544 71.3672ZM117.316 68.9261C116.935 69.1452 116.319 69.1452 115.939 68.9261C115.558 68.7069 115.558 68.3505 115.939 68.1314C116.319 67.9115 116.935 67.9115 117.316 68.1314C117.696 68.3505 117.696 68.7062 117.316 68.9261ZM118.289 66.3031C117.909 66.5222 117.292 66.5222 116.913 66.3031C116.532 66.0832 116.532 65.7275 116.913 65.5084C117.292 65.2885 117.909 65.2885 118.289 65.5084C118.669 65.7275 118.669 66.0832 118.289 66.3031Z" fill="#F0B889"/>
<path d="M91.0503 69.0257L99.5841 73.9622C100.145 74.2862 100.145 75.0961 99.5841 75.4201L77.8962 87.9146C77.2883 88.2656 76.5392 88.2656 75.9313 87.9146L67.3975 82.9781C66.8363 82.6542 66.8363 81.8442 67.3975 81.5203L89.0853 69.0257C89.6933 68.6747 90.4423 68.6747 91.0503 69.0257Z" fill="#E69F6C"/>
<path d="M88.7325 70.2063C89.1127 70.4258 89.729 70.4258 90.1092 70.2063C90.4894 69.9868 90.4894 69.6309 90.1092 69.4114C89.729 69.192 89.1127 69.192 88.7325 69.4114C88.3524 69.6309 88.3524 69.9868 88.7325 70.2063Z" fill="white"/>
<path d="M92.3024 72.2672C92.6825 72.4867 93.299 72.4867 93.6791 72.2672C94.0593 72.0477 94.0593 71.6919 93.6791 71.4724C93.299 71.2529 92.6825 71.2529 92.3024 71.4724C91.9223 71.6919 91.9222 72.0477 92.3024 72.2672Z" fill="white"/>
<path d="M95.8723 74.3284C96.2524 74.5479 96.8689 74.5479 97.249 74.3284C97.6292 74.1089 97.6292 73.753 97.249 73.5335C96.8689 73.314 96.2524 73.314 95.8723 73.5335C95.4921 73.7531 95.4921 74.1089 95.8723 74.3284Z" fill="white"/>
<path d="M87.6753 72.8777C88.0554 73.0972 88.6718 73.0972 89.052 72.8777C89.4322 72.6582 89.4322 72.3023 89.052 72.0828C88.6719 71.8633 88.0555 71.8633 87.6754 72.0828C87.2952 72.3023 87.2952 72.6582 87.6753 72.8777Z" fill="white"/>
<path d="M91.2452 74.9389C91.6254 75.1583 92.2417 75.1583 92.6219 74.9389C93.0021 74.7194 93.0021 74.3635 92.6219 74.144C92.2417 73.9245 91.6254 73.9245 91.2452 74.144C90.8651 74.3635 90.8651 74.7194 91.2452 74.9389Z" fill="white"/>
<path d="M94.8151 76.9998C95.1953 77.2192 95.8116 77.2192 96.1917 76.9998C96.5719 76.7803 96.5719 76.4244 96.1917 76.2049C95.8116 75.9854 95.1952 75.9854 94.815 76.2049C94.4349 76.4244 94.4349 76.7803 94.8151 76.9998Z" fill="white"/>
<path d="M82.8813 73.5845C83.2615 73.804 83.8778 73.804 84.258 73.5845C84.6382 73.365 84.6382 73.0091 84.258 72.7896C83.8778 72.5701 83.2615 72.5701 82.8813 72.7896C82.5012 73.0091 82.5012 73.365 82.8813 73.5845Z" fill="white"/>
<path d="M86.4512 75.6455C86.8313 75.865 87.4477 75.865 87.8279 75.6455C88.2081 75.426 88.2081 75.0702 87.8279 74.8507C87.4478 74.6312 86.8314 74.6312 86.4512 74.8507C86.071 75.0702 86.071 75.426 86.4512 75.6455Z" fill="white"/>
<path d="M90.021 77.7065C90.4011 77.926 91.0175 77.926 91.3977 77.7065C91.7779 77.487 91.7779 77.1312 91.3977 76.9117C91.0176 76.6922 90.4012 76.6922 90.0211 76.9117C89.6409 77.1313 89.6409 77.487 90.021 77.7065Z" fill="white"/>
<path d="M81.824 76.256C82.2042 76.4755 82.8206 76.4755 83.2007 76.256C83.5809 76.0365 83.5809 75.6806 83.2007 75.4611C82.8206 75.2416 82.2042 75.2416 81.8241 75.4611C81.4439 75.6806 81.4439 76.0365 81.824 76.256Z" fill="white"/>
<path d="M85.3939 78.317C85.7741 78.5365 86.3905 78.5365 86.7707 78.317C87.1508 78.0975 87.1508 77.7417 86.7707 77.5222C86.3905 77.3027 85.7741 77.3027 85.394 77.5222C85.0138 77.7417 85.0138 78.0975 85.3939 78.317Z" fill="white"/>
<path d="M88.9638 80.3781C89.3439 80.5975 89.9603 80.5975 90.3404 80.3781C90.7206 80.1586 90.7206 79.8027 90.3404 79.5832C89.9603 79.3637 89.3439 79.3637 88.9638 79.5832C88.5837 79.8027 88.5837 80.1586 88.9638 80.3781Z" fill="white"/>
<path d="M77.03 76.9628C77.4102 77.1823 78.0265 77.1823 78.4067 76.9628C78.7868 76.7433 78.7868 76.3874 78.4067 76.1679C78.0265 75.9484 77.4101 75.9484 77.0299 76.1679C76.6498 76.3874 76.6498 76.7433 77.03 76.9628Z" fill="white"/>
<path d="M80.5998 79.0238C80.98 79.2433 81.5964 79.2433 81.9765 79.0238C82.3567 78.8043 82.3567 78.4484 81.9765 78.229C81.5964 78.0095 80.98 78.0095 80.5998 78.229C80.2197 78.4484 80.2197 78.8043 80.5998 79.0238Z" fill="white"/>
<path d="M84.1697 81.0848C84.5498 81.3043 85.1663 81.3043 85.5464 81.0848C85.9266 80.8653 85.9266 80.5095 85.5464 80.29C85.1663 80.0705 84.5499 80.0705 84.1697 80.29C83.7895 80.5096 83.7895 80.8653 84.1697 81.0848Z" fill="white"/>
<path d="M75.9728 79.6343C76.353 79.8538 76.9693 79.8538 77.3495 79.6343C77.7297 79.4148 77.7297 79.0589 77.3495 78.8394C76.9693 78.6199 76.353 78.6199 75.9728 78.8394C75.5927 79.0589 75.5926 79.4148 75.9728 79.6343Z" fill="white"/>
<path d="M79.5426 81.6953C79.9228 81.9148 80.5391 81.9148 80.9193 81.6953C81.2995 81.4758 81.2995 81.12 80.9193 80.9005C80.5392 80.681 79.9228 80.681 79.5427 80.9005C79.1625 81.12 79.1625 81.4758 79.5426 81.6953Z" fill="white"/>
<path d="M83.1125 83.7562C83.4927 83.9757 84.109 83.9757 84.4892 83.7562C84.8693 83.5367 84.8693 83.1809 84.4892 82.9614C84.109 82.7419 83.4926 82.7419 83.1124 82.9614C82.7323 83.1809 82.7323 83.5367 83.1125 83.7562Z" fill="white"/>
<path d="M71.1787 80.3411C71.5588 80.5606 72.1752 80.5606 72.5553 80.3411C72.9355 80.1216 72.9355 79.7657 72.5553 79.5462C72.1751 79.3267 71.5588 79.3267 71.1787 79.5462C70.7986 79.7657 70.7986 80.1216 71.1787 80.3411Z" fill="white"/>
<path d="M74.7486 82.402C75.1288 82.6215 75.7451 82.6215 76.1253 82.402C76.5055 82.1825 76.5055 81.8266 76.1253 81.6071C75.7451 81.3876 75.1288 81.3876 74.7486 81.6071C74.3685 81.8266 74.3684 82.1825 74.7486 82.402Z" fill="white"/>
<path d="M78.3184 84.463C78.6985 84.6825 79.3149 84.6825 79.6951 84.463C80.0753 84.2435 80.0753 83.8877 79.6951 83.6682C79.315 83.4487 78.6986 83.4487 78.3185 83.6682C77.9383 83.8877 77.9383 84.2435 78.3184 84.463Z" fill="white"/>
<path d="M70.1214 83.0125C70.5016 83.2319 71.118 83.2319 71.4982 83.0125C71.8783 82.793 71.8783 82.4371 71.4982 82.2176C71.118 81.9981 70.5016 81.9981 70.1215 82.2176C69.7413 82.4371 69.7413 82.793 70.1214 83.0125Z" fill="white"/>
<path d="M73.6914 85.0735C74.0715 85.293 74.6879 85.293 75.0681 85.0735C75.4483 84.854 75.4483 84.4981 75.0681 84.2786C74.688 84.0591 74.0715 84.0591 73.6914 84.2786C73.3112 84.4981 73.3112 84.854 73.6914 85.0735Z" fill="white"/>
<path d="M77.2612 87.1345C77.6414 87.354 78.2578 87.354 78.6379 87.1345C79.0181 86.915 79.0181 86.5592 78.6379 86.3397C78.2578 86.1202 77.6414 86.1202 77.2612 86.3397C76.8811 86.5592 76.8811 86.915 77.2612 87.1345Z" fill="white"/>
<path d="M90.2577 69.5215C89.8845 69.3951 89.3987 69.4243 89.0795 69.6084C88.7581 69.7946 88.7085 70.0773 88.9305 70.2935C88.8597 70.2702 88.7932 70.2409 88.7326 70.2059C88.352 69.9868 88.3528 69.631 88.7326 69.4112C89.1124 69.192 89.7289 69.192 90.1094 69.4112C90.1679 69.4448 90.2168 69.482 90.2577 69.5215Z" fill="#C2CBCE"/>
<path d="M93.8273 71.582C93.4548 71.4564 92.9691 71.4856 92.6491 71.6697C92.3278 71.8559 92.2781 72.1393 92.5009 72.3548C92.43 72.3314 92.3628 72.3022 92.3022 72.2672C91.9224 72.048 91.9224 71.6923 92.3022 71.4725C92.6827 71.2533 93.2992 71.2533 93.6791 71.4725C93.7375 71.5061 93.7872 71.5433 93.8273 71.582Z" fill="#C2CBCE"/>
<path d="M97.3962 73.6434C97.0244 73.517 96.5387 73.5462 96.2195 73.731C95.8974 73.9165 95.8477 74.1999 96.0712 74.4161C96.0004 74.3928 95.9332 74.3636 95.8725 74.3285C95.492 74.1086 95.492 73.7529 95.8725 73.5338C96.2524 73.3139 96.8688 73.3139 97.2487 73.5338C97.3071 73.5674 97.356 73.6039 97.3962 73.6434Z" fill="#C2CBCE"/>
<path d="M89.1993 72.1927C88.8275 72.0663 88.3418 72.0955 88.0226 72.2803C87.7005 72.4659 87.6508 72.7493 87.8743 72.9655C87.8035 72.9421 87.7363 72.9129 87.6757 72.8778C87.2951 72.658 87.2951 72.3022 87.6757 72.0831C88.0555 71.8632 88.672 71.8632 89.0518 72.0831C89.1102 72.1167 89.1592 72.1532 89.1993 72.1927Z" fill="#C2CBCE"/>
<path d="M92.7704 74.254C92.3972 74.1276 91.9114 74.1569 91.5922 74.3409C91.2701 74.5272 91.2204 74.8106 91.4439 75.0268C91.3731 75.0034 91.3059 74.9742 91.2453 74.9392C90.8647 74.7193 90.8647 74.3636 91.2453 74.1437C91.6251 73.9246 92.2416 73.9246 92.6221 74.1437C92.6806 74.1773 92.7295 74.2146 92.7704 74.254Z" fill="#C2CBCE"/>
<path d="M96.34 76.3146C95.9675 76.1889 95.4817 76.2181 95.1618 76.4022C94.8397 76.5885 94.7908 76.8726 95.0143 77.0881C94.9427 77.0647 94.8762 77.0348 94.8149 76.9997C94.435 76.7806 94.435 76.4249 94.8149 76.205C95.1954 75.9859 95.8119 75.9859 96.1917 76.205C96.2502 76.2386 96.2991 76.2758 96.34 76.3146Z" fill="#C2CBCE"/>
<path d="M84.4062 72.8989C84.0337 72.7733 83.548 72.8025 83.2281 72.9866C82.9067 73.1728 82.857 73.4562 83.0798 73.6717C83.0089 73.6491 82.9417 73.6191 82.8811 73.5841C82.5013 73.3649 82.5013 73.0092 82.8811 72.7893C83.2617 72.5702 83.8781 72.5702 84.258 72.7893C84.3164 72.8229 84.3653 72.8602 84.4062 72.8989Z" fill="#C2CBCE"/>
<path d="M87.9759 74.9602C87.6033 74.8346 87.1176 74.8638 86.7984 75.0478C86.4756 75.2341 86.4266 75.5182 86.6516 75.7337C86.58 75.7103 86.5128 75.6811 86.4514 75.6453C86.0709 75.4262 86.0709 75.0705 86.4514 74.8506C86.8313 74.6315 87.4478 74.6315 87.8276 74.8506C87.886 74.8842 87.9357 74.9215 87.9759 74.9602Z" fill="#C2CBCE"/>
<path d="M91.5455 77.0208C91.1722 76.8952 90.6872 76.9244 90.368 77.1092C90.0459 77.2947 89.9962 77.5781 90.2197 77.7943C90.1489 77.7709 90.0817 77.7417 90.0211 77.7067C89.6405 77.4868 89.6405 77.1311 90.0211 76.912C90.4009 76.6921 91.0174 76.6921 91.3979 76.912C91.4556 76.9456 91.5053 76.9821 91.5455 77.0208Z" fill="#C2CBCE"/>
<path d="M83.3486 75.5701C82.9753 75.4445 82.4903 75.4737 82.1711 75.6585C81.849 75.844 81.7993 76.1274 82.0228 76.3436C81.952 76.3203 81.8848 76.2911 81.8242 76.256C81.4436 76.0361 81.4436 75.6804 81.8242 75.4613C82.204 75.2414 82.8205 75.2414 83.201 75.4613C83.2587 75.4949 83.3084 75.5314 83.3486 75.5701Z" fill="#C2CBCE"/>
<path d="M86.9189 77.6322C86.5464 77.5058 86.0607 77.535 85.7407 77.7191C85.4194 77.9054 85.3697 78.1888 85.5925 78.4042C85.5216 78.3816 85.4544 78.3524 85.3938 78.3173C85.014 78.0975 85.014 77.7418 85.3938 77.5219C85.7743 77.3028 86.3901 77.3028 86.7706 77.5219C86.8291 77.5555 86.878 77.5927 86.9189 77.6322Z" fill="#C2CBCE"/>
<path d="M90.4885 79.6927C90.116 79.5671 89.6303 79.5963 89.3111 79.7804C88.989 79.9666 88.9393 80.2508 89.1635 80.4655C89.092 80.4429 89.0248 80.4129 88.9641 80.3779C88.5836 80.1587 88.5836 79.803 88.9641 79.5832C89.344 79.364 89.9604 79.364 90.3403 79.5832C90.3987 79.6168 90.4484 79.654 90.4885 79.6927Z" fill="#C2CBCE"/>
<path d="M78.5548 76.2772C78.1822 76.1516 77.6965 76.1808 77.3773 76.3649C77.0552 76.5511 77.0055 76.8338 77.2276 77.05C77.1567 77.0266 77.0903 76.9974 77.0296 76.9624C76.6498 76.7432 76.6498 76.3875 77.0304 76.1676C77.4102 75.9485 78.0267 75.9485 78.4065 76.1676C78.4649 76.2012 78.5146 76.2385 78.5548 76.2772Z" fill="#C2CBCE"/>
<path d="M82.1251 78.3392C81.7519 78.2129 81.2661 78.2421 80.9469 78.4261C80.6248 78.6124 80.5751 78.8965 80.7994 79.1113C80.7278 79.0886 80.6606 79.0587 80.6 79.0236C80.2194 78.8045 80.2194 78.4488 80.6 78.2289C80.9798 78.0098 81.5963 78.0098 81.9768 78.2289C82.0353 78.2625 82.0842 78.2998 82.1251 78.3392Z" fill="#C2CBCE"/>
<path d="M85.6947 80.3998C85.3222 80.2735 84.8365 80.3027 84.5165 80.4875C84.1951 80.673 84.1455 80.9564 84.3683 81.1719C84.2974 81.1492 84.2302 81.12 84.1696 81.085C83.7898 80.8651 83.7898 80.5094 84.1696 80.2903C84.5501 80.0704 85.1659 80.0704 85.5464 80.2903C85.6049 80.3239 85.6538 80.3611 85.6947 80.3998Z" fill="#C2CBCE"/>
<path d="M77.4978 78.9491C77.1253 78.8228 76.6396 78.852 76.3197 79.0368C75.9983 79.2223 75.9486 79.5057 76.1714 79.7212C76.1005 79.6986 76.0333 79.6693 75.9727 79.6343C75.5929 79.4144 75.5929 79.0587 75.9727 78.8396C76.3533 78.6197 76.969 78.6197 77.3496 78.8396C77.408 78.8732 77.4569 78.9104 77.4978 78.9491Z" fill="#C2CBCE"/>
<path d="M81.0674 81.0098C80.6949 80.8841 80.2092 80.9133 79.8893 81.0974C79.5679 81.2837 79.5182 81.5671 79.741 81.7825C79.6701 81.7599 79.6029 81.7307 79.5423 81.6956C79.1625 81.4758 79.1625 81.12 79.5423 80.9002C79.9229 80.6811 80.5393 80.6811 80.9192 80.9002C80.9776 80.9338 81.0273 80.971 81.0674 81.0098Z" fill="#C2CBCE"/>
<path d="M84.6378 83.0718C84.2645 82.9454 83.7788 82.9746 83.4596 83.1587C83.1368 83.3449 83.0878 83.6298 83.3128 83.8446C83.2412 83.8212 83.174 83.792 83.1127 83.7562C82.7321 83.537 82.7321 83.1813 83.1127 82.9615C83.4925 82.7423 84.109 82.7423 84.4895 82.9615C84.5479 82.9951 84.5969 83.0323 84.6378 83.0718Z" fill="#C2CBCE"/>
<path d="M72.704 79.6562C72.3308 79.5299 71.845 79.5591 71.5258 79.7432C71.2037 79.9294 71.154 80.2128 71.3776 80.429C71.3067 80.4057 71.2395 80.3757 71.1789 80.3406C70.7983 80.1215 70.7983 79.7658 71.1789 79.5459C71.5587 79.3268 72.1752 79.3268 72.5557 79.5459C72.6142 79.5795 72.6631 79.6168 72.704 79.6562Z" fill="#C2CBCE"/>
<path d="M76.2736 81.7174C75.9011 81.591 75.4154 81.6202 75.0954 81.8043C74.7733 81.9906 74.7244 82.2747 74.9479 82.4902C74.877 82.4668 74.8098 82.4369 74.7485 82.4018C74.3687 82.1827 74.3687 81.827 74.7485 81.6071C75.129 81.388 75.7448 81.388 76.1254 81.6071C76.1838 81.6407 76.2327 81.6779 76.2736 81.7174Z" fill="#C2CBCE"/>
<path d="M79.8418 83.7773C79.47 83.6516 78.9843 83.6808 78.6651 83.8656C78.3437 84.0512 78.294 84.3346 78.5168 84.5501C78.4459 84.5274 78.3787 84.4982 78.3181 84.4631C77.9383 84.2433 77.9383 83.8876 78.3181 83.6684C78.6987 83.4486 79.3151 83.4486 79.695 83.6684C79.7527 83.7013 79.8016 83.7378 79.8418 83.7773Z" fill="#C2CBCE"/>
<path d="M71.6449 82.3266C71.2731 82.201 70.7874 82.2302 70.4682 82.415C70.1468 82.6005 70.0971 82.8839 70.3199 83.0994C70.249 83.0767 70.1818 83.0475 70.1212 83.0125C69.7414 82.7926 69.7414 82.4369 70.1212 82.2178C70.5018 81.9979 71.1183 81.9979 71.4981 82.2178C71.5558 82.2506 71.6047 82.2871 71.6449 82.3266Z" fill="#C2CBCE"/>
<path d="M75.216 84.3879C74.8435 84.2623 74.3577 84.2915 74.0385 84.4756C73.7164 84.6618 73.6667 84.9452 73.8902 85.1614C73.8194 85.1381 73.7522 85.1089 73.6916 85.0738C73.311 84.8539 73.311 84.4982 73.6916 84.2784C74.0714 84.0592 74.6879 84.0592 75.0677 84.2784C75.1261 84.312 75.1758 84.3492 75.216 84.3879Z" fill="#C2CBCE"/>
<path d="M78.7863 86.4499C78.4138 86.3236 77.9281 86.3528 77.6081 86.5369C77.2867 86.7231 77.2371 87.0065 77.4599 87.222C77.389 87.1986 77.3218 87.1694 77.2612 87.1343C76.8814 86.9152 76.8814 86.5595 77.2612 86.3396C77.6417 86.1205 78.2575 86.1205 78.638 86.3396C78.6965 86.3732 78.7454 86.4105 78.7863 86.4499Z" fill="#C2CBCE"/>
<path opacity="0.12" d="M99.5839 75.4203L77.8959 87.9143C77.2882 88.2657 76.5395 88.2657 75.9311 87.9143L75.8624 87.8749C76.4117 88.0882 77.0347 88.0444 77.5555 87.7441L99.2435 75.2494C99.8045 74.9258 99.8227 74.1004 99.2617 73.7761L99.5839 73.9624C100.146 74.286 100.146 75.096 99.5839 75.4203Z" fill="black"/>
</svg>
